<svg width="426" height="534" viewBox="0 0 426 534" fill="none" xmlns="http://www.w3.org/2000/svg">
<rect width="426" height="534" rx="30" fill="#323232"/>
<path d="M41.6 355H25.92V314.792H41.6C54.312 314.792 62.32 322.968 62.32 334.672C62.32 346.376 54.032 355 41.6 355ZM36.504 323.92V345.872H40.984C47.984 345.872 51.456 342.232 51.456 334.672C51.456 327.56 47.872 323.92 40.984 323.92H36.504ZM80.6346 355.504C71.3386 355.504 65.1226 349.232 65.1226 339.88C65.1226 330.864 71.6186 324.312 80.5786 324.312C90.5466 324.312 97.2106 332.432 95.4746 342.344H75.0346C75.5386 346.152 77.3306 348.056 80.4106 348.056C83.0986 348.056 84.8906 346.936 85.7306 344.752H95.3066C93.4586 351.64 88.1386 355.504 80.6346 355.504ZM80.3546 331.368C77.4986 331.368 75.8186 332.992 75.1466 336.352H85.2266C85.1146 333.328 83.2106 331.368 80.3546 331.368ZM126.825 344.752C126.825 351.416 121.897 355.56 112.825 355.56C103.753 355.56 98.8246 351.304 98.2086 344.36H107.393C107.393 346.88 109.689 348.504 112.993 348.504C115.177 348.504 117.137 348 117.137 346.432C117.137 345.088 116.129 344.528 114.057 344.136L108.121 343.072C102.857 342.12 99.4966 339.096 99.4966 334.224C99.4966 328.4 104.425 324.312 112.321 324.312C120.217 324.312 125.705 328.512 126.265 335.232H117.081C116.857 332.824 115.009 331.368 112.377 331.368C110.137 331.368 108.681 331.984 108.681 333.328C108.681 334.616 109.633 335.008 111.537 335.344L117.921 336.52C123.745 337.584 126.825 340.44 126.825 344.752ZM142.312 317.872C142.312 321.008 139.793 323.304 136.153 323.304C132.513 323.304 129.993 321.008 129.993 317.872C129.993 314.68 132.513 312.384 136.153 312.384C139.793 312.384 142.312 314.68 142.312 317.872ZM141.025 355H131.449V324.872H141.025V355ZM160.748 366.368C152.404 366.368 146.692 361.776 146.356 354.776H155.652C155.988 357.464 157.724 358.92 160.692 358.92C164.276 358.92 166.124 357.016 166.124 353.376V349.848C164.556 352.088 161.7 353.432 158.452 353.432C151.116 353.432 145.404 347.104 145.404 338.872C145.404 330.36 150.668 324.312 158.06 324.312C161.868 324.312 164.612 325.432 166.908 327.952V324.872H175.7V353.264C175.7 361.384 169.988 366.368 160.748 366.368ZM155.092 338.928C155.092 342.68 157.164 345.088 160.412 345.088C163.772 345.088 166.012 342.568 166.012 338.872C166.012 335.12 163.772 332.656 160.412 332.656C157.164 332.656 155.092 335.12 155.092 338.928ZM191.556 339.152V355H181.98V324.872H190.772V328.512C193.124 325.88 195.924 324.312 199.732 324.312C205.668 324.312 209.868 328.288 209.868 335.624V355H200.292V338.816C200.292 335.008 198.948 332.936 196.036 332.936C193.684 332.936 191.556 334.616 191.556 339.152Z" fill="white"/>
<path d="M33.68 393.02C33.68 395.3 31.82 397.2 28.48 397.2C25.14 397.2 23.18 395.34 23.04 392.62H24.56C24.7 394.66 25.98 395.98 28.46 395.98C30.5 395.98 32.1 394.94 32.1 393.22C32.1 391.74 31.26 391.06 29.22 390.64L27.4 390.28C25.5 389.9 23.5 389.02 23.5 386.52C23.5 384.22 25.52 382.44 28.38 382.44C31.18 382.44 33.34 384.2 33.5 386.94H31.96C31.86 385.04 30.46 383.66 28.4 383.66C26.2 383.66 25.02 385 25.02 386.44C25.02 388.14 26.46 388.66 28.06 388.98L29.88 389.36C32.3 389.86 33.68 390.86 33.68 393.02ZM41.8111 395.66V396.9C41.2711 397.12 40.8111 397.2 40.2911 397.2C38.5511 397.2 37.2111 396.3 37.2111 394.02V387.64H34.7311V386.46H37.2111V383.34H38.6111V386.46H41.9111V387.64H38.6111V393.72C38.6111 395.36 39.4111 395.92 40.5711 395.92C41.0111 395.92 41.3711 395.84 41.8111 395.66ZM50.5078 397V395.08C49.8878 396.4 48.6078 397.2 46.9678 397.2C44.7878 397.2 43.3678 395.98 43.3678 394.08C43.3678 392.02 45.0078 390.94 48.2078 390.94C48.8478 390.94 49.3278 390.98 50.3678 391.06V390.18C50.3678 388.42 49.4278 387.38 47.8278 387.38C46.1078 387.38 45.0278 388.44 45.0078 390.16H43.7278C43.7878 387.82 45.4078 386.26 47.8078 386.26C50.2678 386.26 51.7078 387.7 51.7078 390.14V397H50.5078ZM44.7078 394.04C44.7078 395.32 45.6878 396.18 47.1678 396.18C49.1278 396.18 50.3678 394.9 50.3678 392.92V391.98C49.4678 391.9 48.8478 391.88 48.2678 391.88C45.8678 391.88 44.7078 392.58 44.7078 394.04ZM56.0528 391.36V397H54.6528V386.46H55.9528V388.86C56.6728 387.3 58.2328 386.3 59.9728 386.3V387.76C57.7528 387.68 56.0528 389.06 56.0528 391.36ZM67.7291 395.66V396.9C67.1891 397.12 66.7291 397.2 66.2091 397.2C64.4691 397.2 63.1291 396.3 63.1291 394.02V387.64H60.6491V386.46H63.1291V383.34H64.5291V386.46H67.8291V387.64H64.5291V393.72C64.5291 395.36 65.3291 395.92 66.4891 395.92C66.9291 395.92 67.2891 395.84 67.7291 395.66ZM73.7538 397.2C70.7938 397.2 68.8338 394.98 68.8338 391.64C68.8338 388.56 70.8738 386.26 73.6738 386.26C76.6738 386.26 78.6338 388.68 78.3938 392.06H70.2338C70.3538 394.56 71.6738 396.1 73.7338 396.1C75.4938 396.1 76.7138 395.12 77.0538 393.44H78.4338C77.9538 395.78 76.1738 397.2 73.7538 397.2ZM73.6538 387.34C71.7538 387.34 70.4138 388.8 70.2338 391.1H76.9338C76.8138 388.74 75.5938 387.34 73.6538 387.34ZM79.7322 391.72C79.7322 388.48 81.5322 386.26 84.3722 386.26C85.9522 386.26 87.2922 387.16 87.9922 388.66V382.64H89.3922V397H88.0922V394.78C87.3522 396.32 85.9922 397.2 84.3722 397.2C81.5322 397.2 79.7322 394.96 79.7322 391.72ZM81.1522 391.72C81.1522 394.4 82.5122 395.98 84.5722 395.98C86.6122 395.98 88.0122 394.32 88.0122 391.68C88.0122 389.02 86.5722 387.48 84.5722 387.48C82.5122 387.48 81.1522 389.04 81.1522 391.72ZM98.9259 397H97.5259V387.64H95.0459V386.46H97.5259V385.5C97.5259 383.56 98.5859 382.48 100.426 382.48C100.906 382.48 101.326 382.56 101.686 382.7V383.86C101.346 383.72 101.026 383.7 100.666 383.7C99.5459 383.7 98.9259 384.26 98.9259 385.5V386.46H102.026V387.64H98.9259V397ZM105.037 391.36V397H103.637V386.46H104.937V388.86C105.657 387.3 107.217 386.3 108.957 386.3V387.76C106.737 387.68 105.037 389.06 105.037 391.36ZM114.869 397.2C111.969 397.2 109.869 394.9 109.869 391.72C109.869 388.56 111.969 386.28 114.869 386.28C117.789 386.28 119.889 388.56 119.889 391.72C119.889 394.9 117.789 397.2 114.869 397.2ZM114.869 395.98C116.929 395.98 118.469 394.34 118.469 391.72C118.469 389.14 116.929 387.5 114.869 387.5C112.829 387.5 111.289 389.14 111.289 391.72C111.289 394.34 112.829 395.98 114.869 395.98ZM123.553 397H122.153V386.46H123.453V388.44C124.153 387.08 125.393 386.26 126.893 386.26C128.533 386.26 129.753 387.16 130.193 388.7C130.853 387.22 132.173 386.26 133.833 386.26C136.013 386.26 137.373 387.7 137.373 390.16V397H135.993V390.62C135.993 388.62 135.073 387.48 133.373 387.48C131.773 387.48 130.473 388.88 130.473 390.82V397H129.073V390.62C129.073 388.62 128.153 387.48 126.453 387.48C124.833 387.48 123.553 388.88 123.553 390.82V397ZM154.157 391.72C154.157 394.98 152.337 397.2 149.537 397.2C147.957 397.2 146.617 396.34 145.897 394.84V400.86H144.497V386.46H145.797V388.74C146.517 387.18 147.917 386.26 149.537 386.26C152.337 386.26 154.157 388.5 154.157 391.72ZM152.737 391.72C152.737 389.06 151.357 387.48 149.297 387.48C147.337 387.48 145.877 389.04 145.877 391.72C145.877 394.34 147.297 395.98 149.297 395.98C151.357 395.98 152.737 394.42 152.737 391.72ZM157.811 390.86V397H156.411V382.64H157.811V388.4C158.471 387.14 159.671 386.26 161.191 386.26C163.391 386.26 164.811 387.66 164.811 390.16V397H163.411V390.64C163.411 388.62 162.491 387.48 160.771 387.48C159.131 387.48 157.811 388.9 157.811 390.86ZM171.978 397.2C169.078 397.2 166.978 394.9 166.978 391.72C166.978 388.56 169.078 386.28 171.978 386.28C174.898 386.28 176.998 388.56 176.998 391.72C176.998 394.9 174.898 397.2 171.978 397.2ZM171.978 395.98C174.038 395.98 175.578 394.34 175.578 391.72C175.578 389.14 174.038 387.5 171.978 387.5C169.938 387.5 168.398 389.14 168.398 391.72C168.398 394.34 169.938 395.98 171.978 395.98ZM184.487 395.66V396.9C183.947 397.12 183.487 397.2 182.967 397.2C181.227 397.2 179.887 396.3 179.887 394.02V387.64H177.407V386.46H179.887V383.34H181.287V386.46H184.587V387.64H181.287V393.72C181.287 395.36 182.087 395.92 183.247 395.92C183.687 395.92 184.047 395.84 184.487 395.66ZM190.592 397.2C187.692 397.2 185.592 394.9 185.592 391.72C185.592 388.56 187.692 386.28 190.592 386.28C193.512 386.28 195.612 388.56 195.612 391.72C195.612 394.9 193.512 397.2 190.592 397.2ZM190.592 395.98C192.652 395.98 194.192 394.34 194.192 391.72C194.192 389.14 192.652 387.5 190.592 387.5C188.552 387.5 187.012 389.14 187.012 391.72C187.012 394.34 188.552 395.98 190.592 395.98ZM203.455 397H202.055V386.46H203.355V388.44C204.055 387.08 205.295 386.26 206.795 386.26C208.435 386.26 209.655 387.16 210.095 388.7C210.755 387.22 212.075 386.26 213.735 386.26C215.915 386.26 217.275 387.7 217.275 390.16V397H215.895V390.62C215.895 388.62 214.975 387.48 213.275 387.48C211.675 387.48 210.375 388.88 210.375 390.82V397H208.975V390.62C208.975 388.62 208.055 387.48 206.355 387.48C204.735 387.48 203.455 388.88 203.455 390.82V397ZM226.699 397V395.08C226.079 396.4 224.799 397.2 223.159 397.2C220.979 397.2 219.559 395.98 219.559 394.08C219.559 392.02 221.199 390.94 224.399 390.94C225.039 390.94 225.519 390.98 226.559 391.06V390.18C226.559 388.42 225.619 387.38 224.019 387.38C222.299 387.38 221.219 388.44 221.199 390.16H219.919C219.979 387.82 221.599 386.26 223.999 386.26C226.459 386.26 227.899 387.7 227.899 390.14V397H226.699ZM220.899 394.04C220.899 395.32 221.879 396.18 223.359 396.18C225.319 396.18 226.559 394.9 226.559 392.92V391.98C225.659 391.9 225.039 391.88 224.459 391.88C222.059 391.88 220.899 392.58 220.899 394.04ZM232.244 390.86V397H230.844V386.46H232.144V388.44C232.824 387.14 234.104 386.26 235.624 386.26C237.824 386.26 239.244 387.66 239.244 390.16V397H237.844V390.64C237.844 388.62 236.924 387.48 235.204 387.48C233.564 387.48 232.244 388.9 232.244 390.86ZM244.012 384.02C244.012 384.64 243.552 385.08 242.872 385.08C242.212 385.08 241.752 384.64 241.752 384.02C241.752 383.42 242.212 382.98 242.872 382.98C243.552 382.98 244.012 383.42 244.012 384.02ZM243.592 397H242.192V386.46H243.592V397ZM256.285 391.72C256.285 394.98 254.465 397.2 251.665 397.2C250.085 397.2 248.745 396.34 248.025 394.84V400.86H246.625V386.46H247.925V388.74C248.645 387.18 250.045 386.26 251.665 386.26C254.465 386.26 256.285 388.5 256.285 391.72ZM254.865 391.72C254.865 389.06 253.485 387.48 251.425 387.48C249.465 387.48 248.005 389.04 248.005 391.72C248.005 394.34 249.425 395.98 251.425 395.98C253.485 395.98 254.865 394.42 254.865 391.72ZM265.28 392.74V386.46H266.66V397H265.36V395.1C264.82 396.32 263.54 397.2 262 397.2C259.86 397.2 258.44 395.98 258.44 393.32V386.46H259.84V393.02C259.84 395.16 260.9 395.98 262.38 395.98C264.06 395.98 265.28 394.62 265.28 392.74ZM271.092 397H269.692V382.64H271.092V397ZM280.605 397V395.08C279.985 396.4 278.705 397.2 277.065 397.2C274.885 397.2 273.465 395.98 273.465 394.08C273.465 392.02 275.105 390.94 278.305 390.94C278.945 390.94 279.425 390.98 280.465 391.06V390.18C280.465 388.42 279.525 387.38 277.925 387.38C276.205 387.38 275.125 388.44 275.105 390.16H273.825C273.885 387.82 275.505 386.26 277.905 386.26C280.365 386.26 281.805 387.7 281.805 390.14V397H280.605ZM274.805 394.04C274.805 395.32 275.785 396.18 277.265 396.18C279.225 396.18 280.465 394.9 280.465 392.92V391.98C279.565 391.9 278.945 391.88 278.365 391.88C275.965 391.88 274.805 392.58 274.805 394.04ZM290.112 395.66V396.9C289.572 397.12 289.112 397.2 288.592 397.2C286.852 397.2 285.512 396.3 285.512 394.02V387.64H283.032V386.46H285.512V383.34H286.912V386.46H290.212V387.64H286.912V393.72C286.912 395.36 287.712 395.92 288.872 395.92C289.312 395.92 289.672 395.84 290.112 395.66ZM294.149 384.02C294.149 384.64 293.689 385.08 293.009 385.08C292.349 385.08 291.889 384.64 291.889 384.02C291.889 383.42 292.349 382.98 293.009 382.98C293.689 382.98 294.149 383.42 294.149 384.02ZM293.729 397H292.329V386.46H293.729V397ZM300.982 397.2C298.082 397.2 295.982 394.9 295.982 391.72C295.982 388.56 298.082 386.28 300.982 386.28C303.902 386.28 306.002 388.56 306.002 391.72C306.002 394.9 303.902 397.2 300.982 397.2ZM300.982 395.98C303.042 395.98 304.582 394.34 304.582 391.72C304.582 389.14 303.042 387.5 300.982 387.5C298.942 387.5 297.402 389.14 297.402 391.72C297.402 394.34 298.942 395.98 300.982 395.98ZM309.666 390.86V397H308.266V386.46H309.566V388.44C310.246 387.14 311.526 386.26 313.046 386.26C315.246 386.26 316.666 387.66 316.666 390.16V397H315.266V390.64C315.266 388.62 314.346 387.48 312.626 387.48C310.986 387.48 309.666 388.9 309.666 390.86ZM330.273 397V395.08C329.653 396.4 328.373 397.2 326.733 397.2C324.553 397.2 323.133 395.98 323.133 394.08C323.133 392.02 324.773 390.94 327.973 390.94C328.613 390.94 329.093 390.98 330.133 391.06V390.18C330.133 388.42 329.193 387.38 327.593 387.38C325.873 387.38 324.793 388.44 324.773 390.16H323.493C323.553 387.82 325.173 386.26 327.573 386.26C330.033 386.26 331.473 387.7 331.473 390.14V397H330.273ZM324.473 394.04C324.473 395.32 325.453 396.18 326.933 396.18C328.893 396.18 330.133 394.9 330.133 392.92V391.98C329.233 391.9 328.613 391.88 328.033 391.88C325.633 391.88 324.473 392.58 324.473 394.04ZM335.818 390.86V397H334.418V386.46H335.718V388.44C336.398 387.14 337.678 386.26 339.198 386.26C341.398 386.26 342.818 387.66 342.818 390.16V397H341.418V390.64C341.418 388.62 340.498 387.48 338.778 387.48C337.138 387.48 335.818 388.9 335.818 390.86ZM344.986 391.72C344.986 388.48 346.786 386.26 349.626 386.26C351.206 386.26 352.546 387.16 353.246 388.66V382.64H354.646V397H353.346V394.78C352.606 396.32 351.246 397.2 349.626 397.2C346.786 397.2 344.986 394.96 344.986 391.72ZM346.406 391.72C346.406 394.4 347.766 395.98 349.826 395.98C351.866 395.98 353.266 394.32 353.266 391.68C353.266 389.02 351.826 387.48 349.826 387.48C347.766 387.48 346.406 389.04 346.406 391.72ZM31.64 417.46L27.58 428H26.12L22.1 417.46H23.6L26.9 426.36L30.2 417.46H31.64ZM35.0861 415.02C35.0861 415.64 34.6261 416.08 33.9461 416.08C33.2861 416.08 32.8261 415.64 32.8261 415.02C32.8261 414.42 33.2861 413.98 33.9461 413.98C34.6261 413.98 35.0861 414.42 35.0861 415.02ZM34.6661 428H33.2661V417.46H34.6661V428ZM36.9197 422.72C36.9197 419.48 38.7197 417.26 41.5597 417.26C43.1397 417.26 44.4797 418.16 45.1797 419.66V413.64H46.5797V428H45.2797V425.78C44.5397 427.32 43.1797 428.2 41.5597 428.2C38.7197 428.2 36.9197 425.96 36.9197 422.72ZM38.3397 422.72C38.3397 425.4 39.6997 426.98 41.7597 426.98C43.7997 426.98 45.1997 425.32 45.1997 422.68C45.1997 420.02 43.7597 418.48 41.7597 418.48C39.6997 418.48 38.3397 420.04 38.3397 422.72ZM53.7538 428.2C50.7938 428.2 48.8338 425.98 48.8338 422.64C48.8338 419.56 50.8738 417.26 53.6738 417.26C56.6738 417.26 58.6338 419.68 58.3938 423.06H50.2338C50.3538 425.56 51.6738 427.1 53.7338 427.1C55.4938 427.1 56.7138 426.12 57.0538 424.44H58.4338C57.9538 426.78 56.1738 428.2 53.7538 428.2ZM53.6538 418.34C51.7538 418.34 50.4138 419.8 50.2338 422.1H56.9338C56.8138 419.74 55.5938 418.34 53.6538 418.34ZM64.7322 428.2C61.8322 428.2 59.7322 425.9 59.7322 422.72C59.7322 419.56 61.8322 417.28 64.7322 417.28C67.6522 417.28 69.7522 419.56 69.7522 422.72C69.7522 425.9 67.6522 428.2 64.7322 428.2ZM64.7322 426.98C66.7922 426.98 68.3322 425.34 68.3322 422.72C68.3322 420.14 66.7922 418.5 64.7322 418.5C62.6922 418.5 61.1522 420.14 61.1522 422.72C61.1522 425.34 62.6922 426.98 64.7322 426.98ZM80.3358 428.2C77.3758 428.2 75.4158 425.98 75.4158 422.64C75.4158 419.56 77.4558 417.26 80.2558 417.26C83.2558 417.26 85.2158 419.68 84.9758 423.06H76.8158C76.9358 425.56 78.2558 427.1 80.3158 427.1C82.0758 427.1 83.2958 426.12 83.6358 424.44H85.0158C84.5358 426.78 82.7558 428.2 80.3358 428.2ZM80.2358 418.34C78.3358 418.34 76.9958 419.8 76.8158 422.1H83.5158C83.3958 419.74 82.1758 418.34 80.2358 418.34ZM86.3142 422.72C86.3142 419.48 88.1142 417.26 90.9542 417.26C92.5342 417.26 93.8742 418.16 94.5742 419.66V413.64H95.9742V428H94.6742V425.78C93.9342 427.32 92.5742 428.2 90.9542 428.2C88.1142 428.2 86.3142 425.96 86.3142 422.72ZM87.7342 422.72C87.7342 425.4 89.0942 426.98 91.1542 426.98C93.1942 426.98 94.5942 425.32 94.5942 422.68C94.5942 420.02 93.1542 418.48 91.1542 418.48C89.0942 418.48 87.7342 420.04 87.7342 422.72ZM100.828 415.02C100.828 415.64 100.368 416.08 99.6883 416.08C99.0283 416.08 98.5683 415.64 98.5683 415.02C98.5683 414.42 99.0283 413.98 99.6883 413.98C100.368 413.98 100.828 414.42 100.828 415.02ZM100.408 428H99.0083V417.46H100.408V428ZM108.862 426.66V427.9C108.322 428.12 107.862 428.2 107.342 428.2C105.602 428.2 104.262 427.3 104.262 425.02V418.64H101.782V417.46H104.262V414.34H105.662V417.46H108.962V418.64H105.662V424.72C105.662 426.36 106.462 426.92 107.622 426.92C108.062 426.92 108.422 426.84 108.862 426.66ZM112.899 415.02C112.899 415.64 112.439 416.08 111.759 416.08C111.099 416.08 110.639 415.64 110.639 415.02C110.639 414.42 111.099 413.98 111.759 413.98C112.439 413.98 112.899 414.42 112.899 415.02ZM112.479 428H111.079V417.46H112.479V428ZM116.912 421.86V428H115.512V417.46H116.812V419.44C117.492 418.14 118.772 417.26 120.292 417.26C122.492 417.26 123.912 418.66 123.912 421.16V428H122.512V421.64C122.512 419.62 121.592 418.48 119.872 418.48C118.232 418.48 116.912 419.9 116.912 421.86ZM130.84 432.08C128.16 432.08 126.48 430.68 126.36 428.32H127.7C127.82 430.04 128.94 430.96 130.82 430.96C132.9 430.96 134 429.86 134 427.78V425.58C133.36 427.06 132.08 427.92 130.52 427.92C127.86 427.92 126.08 425.78 126.08 422.58C126.08 419.38 127.84 417.26 130.5 417.26C132.08 417.26 133.4 418.16 134.08 419.7V417.46H135.38V427.76C135.38 430.48 133.72 432.08 130.84 432.08ZM127.48 422.58C127.48 425.16 128.7 426.72 130.72 426.72C132.7 426.72 134.02 425.12 134.02 422.68C134.02 420.1 132.72 418.46 130.72 418.46C128.72 418.46 127.48 420.02 127.48 422.58ZM148.022 426.66V427.9C147.482 428.12 147.022 428.2 146.502 428.2C144.762 428.2 143.422 427.3 143.422 425.02V418.64H140.942V417.46H143.422V414.34H144.822V417.46H148.122V418.64H144.822V424.72C144.822 426.36 145.622 426.92 146.782 426.92C147.222 426.92 147.582 426.84 148.022 426.66ZM154.127 428.2C151.227 428.2 149.127 425.9 149.127 422.72C149.127 419.56 151.227 417.28 154.127 417.28C157.047 417.28 159.147 419.56 159.147 422.72C159.147 425.9 157.047 428.2 154.127 428.2ZM154.127 426.98C156.187 426.98 157.727 425.34 157.727 422.72C157.727 420.14 156.187 418.5 154.127 418.5C152.087 418.5 150.547 420.14 150.547 422.72C150.547 425.34 152.087 426.98 154.127 426.98ZM164.81 422.72C164.81 419.48 166.61 417.26 169.45 417.26C171.03 417.26 172.37 418.16 173.07 419.66V413.64H174.47V428H173.17V425.78C172.43 427.32 171.07 428.2 169.45 428.2C166.61 428.2 164.81 425.96 164.81 422.72ZM166.23 422.72C166.23 425.4 167.59 426.98 169.65 426.98C171.69 426.98 173.09 425.32 173.09 422.68C173.09 420.02 171.65 418.48 169.65 418.48C167.59 418.48 166.23 420.04 166.23 422.72ZM181.644 428.2C178.684 428.2 176.724 425.98 176.724 422.64C176.724 419.56 178.764 417.26 181.564 417.26C184.564 417.26 186.524 419.68 186.284 423.06H178.124C178.244 425.56 179.564 427.1 181.624 427.1C183.384 427.1 184.604 426.12 184.944 424.44H186.324C185.844 426.78 184.064 428.2 181.644 428.2ZM181.544 418.34C179.644 418.34 178.304 419.8 178.124 422.1H184.824C184.704 419.74 183.484 418.34 181.544 418.34ZM196.478 425.06C196.478 427 194.918 428.2 192.318 428.2C189.698 428.2 188.098 426.88 187.898 424.7H189.238C189.338 426.2 190.518 427.14 192.318 427.14C194.038 427.14 195.078 426.48 195.078 425.28C195.078 424.24 194.478 423.76 192.878 423.44L191.358 423.14C189.358 422.76 188.298 421.78 188.298 420.26C188.298 418.5 189.858 417.26 192.158 417.26C194.578 417.26 196.178 418.56 196.338 420.66H195.018C194.878 419.2 193.818 418.34 192.158 418.34C190.678 418.34 189.658 419.04 189.658 420.14C189.658 421.18 190.298 421.68 191.858 421.98L193.438 422.28C195.538 422.68 196.478 423.56 196.478 425.06ZM200.731 415.02C200.731 415.64 200.271 416.08 199.591 416.08C198.931 416.08 198.471 415.64 198.471 415.02C198.471 414.42 198.931 413.98 199.591 413.98C200.271 413.98 200.731 414.42 200.731 415.02ZM200.311 428H198.911V417.46H200.311V428ZM207.324 432.08C204.644 432.08 202.964 430.68 202.844 428.32H204.184C204.304 430.04 205.424 430.96 207.304 430.96C209.384 430.96 210.484 429.86 210.484 427.78V425.58C209.844 427.06 208.564 427.92 207.004 427.92C204.344 427.92 202.564 425.78 202.564 422.58C202.564 419.38 204.324 417.26 206.984 417.26C208.564 417.26 209.884 418.16 210.564 419.7V417.46H211.864V427.76C211.864 430.48 210.204 432.08 207.324 432.08ZM203.964 422.58C203.964 425.16 205.184 426.72 207.204 426.72C209.184 426.72 210.504 425.12 210.504 422.68C210.504 420.1 209.204 418.46 207.204 418.46C205.204 418.46 203.964 420.02 203.964 422.58ZM216.307 421.86V428H214.907V417.46H216.207V419.44C216.887 418.14 218.167 417.26 219.687 417.26C221.887 417.26 223.307 418.66 223.307 421.16V428H221.907V421.64C221.907 419.62 220.987 418.48 219.267 418.48C217.627 418.48 216.307 419.9 216.307 421.86ZM228.074 415.02C228.074 415.64 227.614 416.08 226.934 416.08C226.274 416.08 225.814 415.64 225.814 415.02C225.814 414.42 226.274 413.98 226.934 413.98C227.614 413.98 228.074 414.42 228.074 415.02ZM227.654 428H226.254V417.46H227.654V428ZM232.088 421.86V428H230.688V417.46H231.988V419.44C232.668 418.14 233.948 417.26 235.468 417.26C237.668 417.26 239.088 418.66 239.088 421.16V428H237.688V421.64C237.688 419.62 236.768 418.48 235.048 418.48C233.408 418.48 232.088 419.9 232.088 421.86ZM246.016 432.08C243.336 432.08 241.656 430.68 241.536 428.32H242.876C242.996 430.04 244.116 430.96 245.996 430.96C248.076 430.96 249.176 429.86 249.176 427.78V425.58C248.536 427.06 247.256 427.92 245.696 427.92C243.036 427.92 241.256 425.78 241.256 422.58C241.256 419.38 243.016 417.26 245.676 417.26C247.256 417.26 248.576 418.16 249.256 419.7V417.46H250.556V427.76C250.556 430.48 248.896 432.08 246.016 432.08ZM242.656 422.58C242.656 425.16 243.876 426.72 245.896 426.72C247.876 426.72 249.196 425.12 249.196 422.68C249.196 420.1 247.896 418.46 245.896 418.46C243.896 418.46 242.656 420.02 242.656 422.58ZM266.558 428L263.798 419.32L261.058 428H259.638L256.558 417.46H257.938L260.378 426.02L263.118 417.46H264.498L267.218 426.04L269.658 417.46H271.058L267.958 428H266.558ZM276.801 428.2C273.841 428.2 271.881 425.98 271.881 422.64C271.881 419.56 273.921 417.26 276.721 417.26C279.721 417.26 281.681 419.68 281.441 423.06H273.281C273.401 425.56 274.721 427.1 276.781 427.1C278.541 427.1 279.761 426.12 280.101 424.44H281.481C281.001 426.78 279.221 428.2 276.801 428.2ZM276.701 418.34C274.801 418.34 273.461 419.8 273.281 422.1H279.981C279.861 419.74 278.641 418.34 276.701 418.34ZM293.414 422.72C293.414 425.96 291.594 428.2 288.774 428.2C287.154 428.2 285.794 427.32 285.054 425.78V428H283.754V413.64H285.154V419.68C285.834 418.14 287.174 417.26 288.774 417.26C291.594 417.26 293.414 419.48 293.414 422.72ZM291.994 422.72C291.994 420.04 290.614 418.48 288.554 418.48C286.574 418.48 285.134 420.02 285.134 422.68C285.134 425.32 286.534 426.98 288.554 426.98C290.614 426.98 291.994 425.4 291.994 422.72ZM306.328 428V426.08C305.708 427.4 304.428 428.2 302.788 428.2C300.608 428.2 299.188 426.98 299.188 425.08C299.188 423.02 300.828 421.94 304.028 421.94C304.668 421.94 305.148 421.98 306.188 422.06V421.18C306.188 419.42 305.248 418.38 303.648 418.38C301.928 418.38 300.848 419.44 300.828 421.16H299.548C299.608 418.82 301.228 417.26 303.628 417.26C306.088 417.26 307.528 418.7 307.528 421.14V428H306.328ZM300.528 425.04C300.528 426.32 301.508 427.18 302.988 427.18C304.948 427.18 306.188 425.9 306.188 423.92V422.98C305.288 422.9 304.668 422.88 304.088 422.88C301.688 422.88 300.528 423.58 300.528 425.04ZM311.873 421.86V428H310.473V417.46H311.773V419.44C312.453 418.14 313.733 417.26 315.253 417.26C317.453 417.26 318.873 418.66 318.873 421.16V428H317.473V421.64C317.473 419.62 316.553 418.48 314.833 418.48C313.193 418.48 311.873 419.9 311.873 421.86ZM321.041 422.72C321.041 419.48 322.841 417.26 325.681 417.26C327.261 417.26 328.601 418.16 329.301 419.66V413.64H330.701V428H329.401V425.78C328.661 427.32 327.301 428.2 325.681 428.2C322.841 428.2 321.041 425.96 321.041 422.72ZM322.461 422.72C322.461 425.4 323.821 426.98 325.881 426.98C327.921 426.98 329.321 425.32 329.321 422.68C329.321 420.02 327.881 418.48 325.881 418.48C323.821 418.48 322.461 420.04 322.461 422.72ZM24.92 459H23.52V448.46H24.82V450.44C25.52 449.08 26.76 448.26 28.26 448.26C29.9 448.26 31.12 449.16 31.56 450.7C32.22 449.22 33.54 448.26 35.2 448.26C37.38 448.26 38.74 449.7 38.74 452.16V459H37.36V452.62C37.36 450.62 36.44 449.48 34.74 449.48C33.14 449.48 31.84 450.88 31.84 452.82V459H30.44V452.62C30.44 450.62 29.52 449.48 27.82 449.48C26.2 449.48 24.92 450.88 24.92 452.82V459ZM45.9041 459.2C43.0041 459.2 40.9041 456.9 40.9041 453.72C40.9041 450.56 43.0041 448.28 45.9041 448.28C48.8241 448.28 50.9241 450.56 50.9241 453.72C50.9241 456.9 48.8241 459.2 45.9041 459.2ZM45.9041 457.98C47.9641 457.98 49.5041 456.34 49.5041 453.72C49.5041 451.14 47.9641 449.5 45.9041 449.5C43.8641 449.5 42.3241 451.14 42.3241 453.72C42.3241 456.34 43.8641 457.98 45.9041 457.98ZM62.848 453.72C62.848 456.96 61.028 459.2 58.208 459.2C56.588 459.2 55.228 458.32 54.488 456.78V459H53.188V444.64H54.588V450.68C55.268 449.14 56.608 448.26 58.208 448.26C61.028 448.26 62.848 450.48 62.848 453.72ZM61.428 453.72C61.428 451.04 60.048 449.48 57.988 449.48C56.008 449.48 54.568 451.02 54.568 453.68C54.568 456.32 55.968 457.98 57.988 457.98C60.048 457.98 61.428 456.4 61.428 453.72ZM66.922 446.02C66.922 446.64 66.462 447.08 65.782 447.08C65.122 447.08 64.662 446.64 64.662 446.02C64.662 445.42 65.122 444.98 65.782 444.98C66.462 444.98 66.922 445.42 66.922 446.02ZM66.502 459H65.102V448.46H66.502V459ZM70.9356 459H69.5356V444.64H70.9356V459ZM78.1092 459.2C75.1492 459.2 73.1892 456.98 73.1892 453.64C73.1892 450.56 75.2292 448.26 78.0292 448.26C81.0292 448.26 82.9892 450.68 82.7492 454.06H74.5892C74.7092 456.56 76.0292 458.1 78.0892 458.1C79.8492 458.1 81.0692 457.12 81.4092 455.44H82.7892C82.3092 457.78 80.5292 459.2 78.1092 459.2ZM78.0092 449.34C76.1092 449.34 74.7692 450.8 74.5892 453.1H81.2892C81.1692 450.74 79.9492 449.34 78.0092 449.34ZM95.7227 459V457.08C95.1027 458.4 93.8227 459.2 92.1827 459.2C90.0027 459.2 88.5827 457.98 88.5827 456.08C88.5827 454.02 90.2227 452.94 93.4227 452.94C94.0627 452.94 94.5427 452.98 95.5827 453.06V452.18C95.5827 450.42 94.6427 449.38 93.0427 449.38C91.3227 449.38 90.2427 450.44 90.2227 452.16H88.9427C89.0027 449.82 90.6227 448.26 93.0227 448.26C95.4827 448.26 96.9227 449.7 96.9227 452.14V459H95.7227ZM89.9227 456.04C89.9227 457.32 90.9027 458.18 92.3827 458.18C94.3427 458.18 95.5827 456.9 95.5827 454.92V453.98C94.6827 453.9 94.0627 453.88 93.4827 453.88C91.0827 453.88 89.9227 454.58 89.9227 456.04ZM109.528 453.72C109.528 456.98 107.708 459.2 104.908 459.2C103.328 459.2 101.988 458.34 101.268 456.84V462.86H99.8677V448.46H101.168V450.74C101.888 449.18 103.288 448.26 104.908 448.26C107.708 448.26 109.528 450.5 109.528 453.72ZM108.108 453.72C108.108 451.06 106.728 449.48 104.668 449.48C102.708 449.48 101.248 451.04 101.248 453.72C101.248 456.34 102.668 457.98 104.668 457.98C106.728 457.98 108.108 456.42 108.108 453.72ZM121.442 453.72C121.442 456.98 119.622 459.2 116.822 459.2C115.242 459.2 113.902 458.34 113.182 456.84V462.86H111.782V448.46H113.082V450.74C113.802 449.18 115.202 448.26 116.822 448.26C119.622 448.26 121.442 450.5 121.442 453.72ZM120.022 453.72C120.022 451.06 118.642 449.48 116.582 449.48C114.622 449.48 113.162 451.04 113.162 453.72C113.162 456.34 114.582 457.98 116.582 457.98C118.642 457.98 120.022 456.42 120.022 453.72ZM125.096 459H123.696V444.64H125.096V459ZM129.949 446.02C129.949 446.64 129.489 447.08 128.809 447.08C128.149 447.08 127.689 446.64 127.689 446.02C127.689 445.42 128.149 444.98 128.809 444.98C129.489 444.98 129.949 445.42 129.949 446.02ZM129.529 459H128.129V448.46H129.529V459ZM136.503 459.22C133.723 459.22 131.783 456.96 131.783 453.72C131.783 450.52 133.743 448.26 136.503 448.26C138.963 448.26 140.723 449.9 141.143 452.54H139.723C139.403 450.62 138.203 449.48 136.503 449.48C134.543 449.48 133.203 451.2 133.203 453.72C133.203 456.28 134.543 458 136.503 458C138.223 458 139.403 456.88 139.723 454.92H141.143C140.763 457.6 138.983 459.22 136.503 459.22ZM149.883 459V457.08C149.263 458.4 147.983 459.2 146.343 459.2C144.163 459.2 142.743 457.98 142.743 456.08C142.743 454.02 144.383 452.94 147.583 452.94C148.223 452.94 148.703 452.98 149.743 453.06V452.18C149.743 450.42 148.803 449.38 147.203 449.38C145.483 449.38 144.403 450.44 144.383 452.16H143.103C143.163 449.82 144.783 448.26 147.183 448.26C149.643 448.26 151.083 449.7 151.083 452.14V459H149.883ZM144.083 456.04C144.083 457.32 145.063 458.18 146.543 458.18C148.503 458.18 149.743 456.9 149.743 454.92V453.98C148.843 453.9 148.223 453.88 147.643 453.88C145.243 453.88 144.083 454.58 144.083 456.04ZM159.389 457.66V458.9C158.849 459.12 158.389 459.2 157.869 459.2C156.129 459.2 154.789 458.3 154.789 456.02V449.64H152.309V448.46H154.789V445.34H156.189V448.46H159.489V449.64H156.189V455.72C156.189 457.36 156.989 457.92 158.149 457.92C158.589 457.92 158.949 457.84 159.389 457.66ZM163.426 446.02C163.426 446.64 162.966 447.08 162.286 447.08C161.626 447.08 161.166 446.64 161.166 446.02C161.166 445.42 161.626 444.98 162.286 444.98C162.966 444.98 163.426 445.42 163.426 446.02ZM163.006 459H161.606V448.46H163.006V459ZM170.26 459.2C167.36 459.2 165.26 456.9 165.26 453.72C165.26 450.56 167.36 448.28 170.26 448.28C173.18 448.28 175.28 450.56 175.28 453.72C175.28 456.9 173.18 459.2 170.26 459.2ZM170.26 457.98C172.32 457.98 173.86 456.34 173.86 453.72C173.86 451.14 172.32 449.5 170.26 449.5C168.22 449.5 166.68 451.14 166.68 453.72C166.68 456.34 168.22 457.98 170.26 457.98ZM178.943 452.86V459H177.543V448.46H178.843V450.44C179.523 449.14 180.803 448.26 182.323 448.26C184.523 448.26 185.943 449.66 185.943 452.16V459H184.543V452.64C184.543 450.62 183.623 449.48 181.903 449.48C180.263 449.48 178.943 450.9 178.943 452.86ZM196.771 456.06C196.771 458 195.211 459.2 192.611 459.2C189.991 459.2 188.391 457.88 188.191 455.7H189.531C189.631 457.2 190.811 458.14 192.611 458.14C194.331 458.14 195.371 457.48 195.371 456.28C195.371 455.24 194.771 454.76 193.171 454.44L191.651 454.14C189.651 453.76 188.591 452.78 188.591 451.26C188.591 449.5 190.151 448.26 192.451 448.26C194.871 448.26 196.471 449.56 196.631 451.66H195.311C195.171 450.2 194.111 449.34 192.451 449.34C190.971 449.34 189.951 450.04 189.951 451.14C189.951 452.18 190.591 452.68 192.151 452.98L193.731 453.28C195.831 453.68 196.771 454.56 196.771 456.06Z" fill="white"/>
<rect x="22.5" y="27.5" width="6" height="6" fill="#D9D9D9" stroke="#1473E6"/>
<rect x="212.5" y="286.5" width="6" height="6" fill="#D9D9D9" stroke="#1473E6"/>
<rect x="22.5" y="286.5" width="6" height="6" fill="#D9D9D9" stroke="#1473E6"/>
<rect x="212.5" y="27.5" width="6" height="6" fill="#D9D9D9" stroke="#1473E6"/>
<line x1="28" y1="30.5" x2="212" y2="30.5" stroke="#1473E6"/>
<path d="M215.5 33L215.5 286" stroke="#1473E6"/>
<line x1="25.5" y1="33" x2="25.5" y2="286" stroke="#1473E6"/>
<line x1="212" y1="289.5" x2="29" y2="289.5" stroke="#1473E6"/>
<line x1="212.404" y1="33.2941" x2="28.4044" y2="286.294" stroke="#1473E6"/>
<line x1="28.4044" y1="33.7059" x2="212.404" y2="286.706" stroke="#1473E6"/>
<path d="M393 47C344.5 47 357.407 47 313.5 47C269.593 47 258.5 47 234 47C234 35.9543 269.593 27 313.5 27C357.407 27 393 35.9543 393 47Z" fill="url(#paint0_linear_160_12)"/>
<path d="M396 87C347.5 87 360.407 87 316.5 87C272.593 87 261.5 87 237 87C237 64.9086 272.593 47 316.5 47C360.407 47 396 64.9086 396 87Z" fill="url(#paint1_linear_160_12)"/>
<path d="M393 146C344.5 146 357.407 146 313.5 146C269.593 146 258.5 146 234 146C234 113.415 269.593 87 313.5 87C357.407 87 393 113.415 393 146Z" fill="url(#paint2_linear_160_12)"/>
<path d="M393 226C344.5 226 357.407 226 313.5 226C269.593 226 258.5 226 234 226C234 181.817 269.593 146 313.5 146C357.407 146 393 181.817 393 226Z" fill="url(#paint3_linear_160_12)"/>
<rect x="27" y="492" width="5" height="5" fill="url(#paint4_linear_160_12)"/>
<rect x="32" y="497" width="5" height="5" fill="url(#paint5_linear_160_12)"/>
<rect x="27" y="502" width="5" height="5" fill="url(#paint6_linear_160_12)"/>
<rect x="37" y="492" width="5" height="5" fill="url(#paint7_linear_160_12)"/>
<rect x="42" y="497" width="5" height="5" fill="url(#paint8_linear_160_12)"/>
<rect x="37" y="502" width="5" height="5" fill="url(#paint9_linear_160_12)"/>
<rect x="47" y="492" width="5" height="5" fill="url(#paint10_linear_160_12)"/>
<rect x="52" y="497" width="5" height="5" fill="url(#paint11_linear_160_12)"/>
<rect x="47" y="502" width="5" height="5" fill="url(#paint12_linear_160_12)"/>
<rect x="57" y="492" width="5" height="5" fill="url(#paint13_linear_160_12)"/>
<rect x="62" y="497" width="5" height="5" fill="url(#paint14_linear_160_12)"/>
<rect x="57" y="502" width="5" height="5" fill="url(#paint15_linear_160_12)"/>
<rect x="67" y="492" width="5" height="5" fill="url(#paint16_linear_160_12)"/>
<rect x="72" y="497" width="5" height="5" fill="url(#paint17_linear_160_12)"/>
<rect x="67" y="502" width="5" height="5" fill="url(#paint18_linear_160_12)"/>
<rect x="77" y="492" width="5" height="5" fill="url(#paint19_linear_160_12)"/>
<rect x="82" y="497" width="5" height="5" fill="url(#paint20_linear_160_12)"/>
<rect x="77" y="502" width="5" height="5" fill="url(#paint21_linear_160_12)"/>
<rect x="87" y="492" width="5" height="5" fill="url(#paint22_linear_160_12)"/>
<rect x="92" y="497" width="5" height="5" fill="url(#paint23_linear_160_12)"/>
<rect x="87" y="502" width="5" height="5" fill="url(#paint24_linear_160_12)"/>
<rect x="97" y="492" width="5" height="5" fill="url(#paint25_linear_160_12)"/>
<rect x="102" y="497" width="5" height="5" fill="url(#paint26_linear_160_12)"/>
<rect x="97" y="502" width="5" height="5" fill="url(#paint27_linear_160_12)"/>
<rect x="107" y="492" width="5" height="5" fill="url(#paint28_linear_160_12)"/>
<rect x="112" y="497" width="5" height="5" fill="url(#paint29_linear_160_12)"/>
<rect x="107" y="502" width="5" height="5" fill="url(#paint30_linear_160_12)"/>
<rect x="117" y="492" width="5" height="5" fill="url(#paint31_linear_160_12)"/>
<rect x="122" y="497" width="5" height="5" fill="url(#paint32_linear_160_12)"/>
<rect x="117" y="502" width="5" height="5" fill="url(#paint33_linear_160_12)"/>
<rect x="127" y="492" width="5" height="5" fill="url(#paint34_linear_160_12)"/>
<rect x="132" y="497" width="5" height="5" fill="url(#paint35_linear_160_12)"/>
<rect x="127" y="502" width="5" height="5" fill="url(#paint36_linear_160_12)"/>
<rect x="137" y="492" width="5" height="5" fill="url(#paint37_linear_160_12)"/>
<rect x="142" y="497" width="5" height="5" fill="url(#paint38_linear_160_12)"/>
<rect x="137" y="502" width="5" height="5" fill="url(#paint39_linear_160_12)"/>
<rect x="147" y="492" width="5" height="5" fill="url(#paint40_linear_160_12)"/>
<rect x="152" y="497" width="5" height="5" fill="url(#paint41_linear_160_12)"/>
<rect x="147" y="502" width="5" height="5" fill="url(#paint42_linear_160_12)"/>
<rect x="157" y="492" width="5" height="5" fill="url(#paint43_linear_160_12)"/>
<rect x="162" y="497" width="5" height="5" fill="url(#paint44_linear_160_12)"/>
<rect x="157" y="502" width="5" height="5" fill="url(#paint45_linear_160_12)"/>
<rect x="167" y="492" width="5" height="5" fill="url(#paint46_linear_160_12)"/>
<rect x="172" y="497" width="5" height="5" fill="url(#paint47_linear_160_12)"/>
<rect x="167" y="502" width="5" height="5" fill="url(#paint48_linear_160_12)"/>
<rect x="177" y="492" width="5" height="5" fill="url(#paint49_linear_160_12)"/>
<rect x="182" y="497" width="5" height="5" fill="url(#paint50_linear_160_12)"/>
<rect x="177" y="502" width="5" height="5" fill="url(#paint51_linear_160_12)"/>
<rect x="187" y="492" width="5" height="5" fill="url(#paint52_linear_160_12)"/>
<rect x="192" y="497" width="5" height="5" fill="url(#paint53_linear_160_12)"/>
<rect x="187" y="502" width="5" height="5" fill="url(#paint54_linear_160_12)"/>
<rect x="197" y="492" width="5" height="5" fill="url(#paint55_linear_160_12)"/>
<rect x="202" y="497" width="5" height="5" fill="url(#paint56_linear_160_12)"/>
<rect x="197" y="502" width="5" height="5" fill="url(#paint57_linear_160_12)"/>
<rect x="207" y="492" width="5" height="5" fill="url(#paint58_linear_160_12)"/>
<rect x="212" y="497" width="5" height="5" fill="url(#paint59_linear_160_12)"/>
<rect x="207" y="502" width="5" height="5" fill="url(#paint60_linear_160_12)"/>
<rect x="217" y="492" width="5" height="5" fill="url(#paint61_linear_160_12)"/>
<rect x="222" y="497" width="5" height="5" fill="url(#paint62_linear_160_12)"/>
<rect x="217" y="502" width="5" height="5" fill="url(#paint63_linear_160_12)"/>
<rect x="227" y="492" width="5" height="5" fill="url(#paint64_linear_160_12)"/>
<rect x="232" y="497" width="5" height="5" fill="url(#paint65_linear_160_12)"/>
<rect x="227" y="502" width="5" height="5" fill="url(#paint66_linear_160_12)"/>
<rect x="237" y="492" width="5" height="5" fill="url(#paint67_linear_160_12)"/>
<rect x="242" y="497" width="5" height="5" fill="url(#paint68_linear_160_12)"/>
<rect x="237" y="502" width="5" height="5" fill="url(#paint69_linear_160_12)"/>
<rect x="247" y="492" width="5" height="5" fill="url(#paint70_linear_160_12)"/>
<rect x="252" y="497" width="5" height="5" fill="url(#paint71_linear_160_12)"/>
<rect x="247" y="502" width="5" height="5" fill="url(#paint72_linear_160_12)"/>
<rect x="257" y="492" width="5" height="5" fill="url(#paint73_linear_160_12)"/>
<rect x="262" y="497" width="5" height="5" fill="url(#paint74_linear_160_12)"/>
<rect x="257" y="502" width="5" height="5" fill="url(#paint75_linear_160_12)"/>
<rect x="267" y="492" width="5" height="5" fill="url(#paint76_linear_160_12)"/>
<rect x="272" y="497" width="5" height="5" fill="url(#paint77_linear_160_12)"/>
<rect x="22" y="497" width="5" height="5" fill="url(#paint78_linear_160_12)"/>
<rect x="267" y="502" width="5" height="5" fill="url(#paint79_linear_160_12)"/>
<line x1="22" y1="486.5" x2="392" y2="486.5" stroke="#1473E6"/>
<line x1="282.5" y1="487" x2="282.5" y2="507" stroke="#1473E6"/>
<path d="M366.63 497H365.237L365.246 495.972H366.63C366.976 495.972 367.268 495.894 367.505 495.739C367.742 495.581 367.921 495.351 368.041 495.049C368.164 494.747 368.226 494.382 368.226 493.955V493.643C368.226 493.314 368.19 493.026 368.12 492.777C368.053 492.528 367.952 492.318 367.817 492.148C367.682 491.979 367.517 491.851 367.32 491.766C367.124 491.678 366.898 491.634 366.644 491.634H365.211V490.602H366.644C367.071 490.602 367.462 490.675 367.817 490.821C368.174 490.965 368.483 491.171 368.744 491.441C369.005 491.71 369.206 492.033 369.346 492.408C369.49 492.78 369.562 493.194 369.562 493.651V493.955C369.562 494.409 369.49 494.823 369.346 495.198C369.206 495.573 369.005 495.896 368.744 496.165C368.486 496.432 368.177 496.638 367.817 496.785C367.459 496.928 367.064 497 366.63 497ZM365.984 490.602V497H364.666V490.602H365.984ZM372.629 497.088C372.26 497.088 371.929 497.029 371.636 496.912C371.343 496.792 371.094 496.626 370.889 496.416C370.687 496.205 370.531 495.96 370.423 495.682C370.314 495.4 370.26 495.102 370.26 494.785V494.609C370.26 494.249 370.312 493.919 370.414 493.621C370.517 493.322 370.663 493.062 370.854 492.843C371.047 492.623 371.281 492.455 371.557 492.337C371.832 492.217 372.143 492.157 372.488 492.157C372.825 492.157 373.124 492.213 373.385 492.324C373.646 492.436 373.864 492.594 374.04 492.799C374.218 493.004 374.353 493.25 374.444 493.537C374.535 493.821 374.58 494.138 374.58 494.486V495.014H370.801V494.17H373.336V494.073C373.336 493.897 373.304 493.741 373.24 493.603C373.178 493.462 373.084 493.351 372.958 493.269C372.833 493.187 372.671 493.146 372.475 493.146C372.308 493.146 372.165 493.183 372.044 493.256C371.924 493.329 371.826 493.432 371.75 493.563C371.677 493.695 371.621 493.851 371.583 494.029C371.548 494.205 371.53 494.398 371.53 494.609V494.785C371.53 494.976 371.557 495.151 371.609 495.312C371.665 495.474 371.743 495.613 371.842 495.73C371.945 495.847 372.068 495.938 372.211 496.002C372.358 496.067 372.523 496.099 372.708 496.099C372.937 496.099 373.149 496.055 373.345 495.967C373.544 495.876 373.716 495.74 373.859 495.559L374.475 496.227C374.375 496.37 374.239 496.508 374.066 496.64C373.896 496.771 373.691 496.88 373.451 496.965C373.21 497.047 372.937 497.088 372.629 497.088ZM377.872 495.686C377.872 495.595 377.845 495.513 377.792 495.44C377.74 495.367 377.642 495.299 377.498 495.238C377.357 495.173 377.154 495.115 376.887 495.062C376.647 495.009 376.423 494.943 376.215 494.864C376.01 494.782 375.831 494.684 375.679 494.57C375.529 494.456 375.412 494.321 375.327 494.166C375.242 494.007 375.2 493.827 375.2 493.625C375.2 493.426 375.242 493.238 375.327 493.062C375.415 492.887 375.54 492.731 375.701 492.597C375.865 492.459 376.064 492.352 376.298 492.276C376.536 492.197 376.802 492.157 377.098 492.157C377.511 492.157 377.866 492.223 378.162 492.355C378.46 492.487 378.689 492.668 378.847 492.9C379.008 493.128 379.089 493.389 379.089 493.682H377.823C377.823 493.559 377.797 493.449 377.744 493.353C377.694 493.253 377.615 493.175 377.507 493.12C377.401 493.061 377.264 493.032 377.094 493.032C376.953 493.032 376.832 493.057 376.729 493.106C376.626 493.153 376.547 493.218 376.492 493.3C376.439 493.379 376.413 493.467 376.413 493.563C376.413 493.637 376.427 493.703 376.457 493.761C376.489 493.817 376.54 493.868 376.61 493.915C376.681 493.962 376.771 494.006 376.883 494.047C376.997 494.085 377.138 494.12 377.305 494.152C377.647 494.223 377.954 494.315 378.223 494.429C378.493 494.541 378.707 494.693 378.865 494.886C379.023 495.077 379.102 495.327 379.102 495.638C379.102 495.849 379.055 496.042 378.961 496.218C378.868 496.394 378.733 496.547 378.557 496.679C378.381 496.808 378.17 496.909 377.924 496.982C377.681 497.053 377.407 497.088 377.103 497.088C376.66 497.088 376.285 497.009 375.978 496.851C375.673 496.692 375.441 496.492 375.283 496.249C375.128 496.002 375.05 495.75 375.05 495.493H376.25C376.256 495.666 376.3 495.805 376.382 495.91C376.467 496.016 376.574 496.092 376.703 496.139C376.834 496.186 376.977 496.209 377.129 496.209C377.293 496.209 377.429 496.187 377.538 496.143C377.646 496.096 377.728 496.035 377.784 495.958C377.842 495.879 377.872 495.789 377.872 495.686ZM381.26 492.245V497H379.99V492.245H381.26ZM379.911 491.006C379.911 490.821 379.975 490.669 380.104 490.549C380.233 490.429 380.406 490.369 380.623 490.369C380.836 490.369 381.008 490.429 381.137 490.549C381.269 490.669 381.334 490.821 381.334 491.006C381.334 491.19 381.269 491.343 381.137 491.463C381.008 491.583 380.836 491.643 380.623 491.643C380.406 491.643 380.233 491.583 380.104 491.463C379.975 491.343 379.911 491.19 379.911 491.006ZM385.316 492.245H386.463V496.842C386.463 497.275 386.366 497.643 386.173 497.945C385.982 498.25 385.716 498.479 385.373 498.635C385.03 498.793 384.632 498.872 384.178 498.872C383.979 498.872 383.768 498.846 383.545 498.793C383.325 498.74 383.114 498.658 382.912 498.547C382.713 498.436 382.546 498.295 382.411 498.125L382.969 497.378C383.116 497.548 383.286 497.68 383.479 497.773C383.672 497.87 383.886 497.918 384.121 497.918C384.349 497.918 384.542 497.876 384.701 497.791C384.859 497.709 384.98 497.587 385.065 497.426C385.15 497.268 385.193 497.076 385.193 496.851V493.344L385.316 492.245ZM382.117 494.68V494.587C382.117 494.224 382.161 493.895 382.249 493.599C382.339 493.3 382.467 493.043 382.631 492.83C382.798 492.616 383 492.45 383.237 492.333C383.475 492.216 383.743 492.157 384.042 492.157C384.358 492.157 384.623 492.216 384.837 492.333C385.051 492.45 385.227 492.617 385.364 492.834C385.502 493.048 385.609 493.301 385.685 493.594C385.764 493.884 385.826 494.202 385.87 494.548V494.75C385.826 495.081 385.76 495.389 385.672 495.673C385.584 495.957 385.468 496.206 385.325 496.42C385.181 496.631 385.002 496.795 384.789 496.912C384.578 497.029 384.326 497.088 384.033 497.088C383.74 497.088 383.475 497.028 383.237 496.908C383.003 496.788 382.802 496.619 382.635 496.402C382.468 496.186 382.339 495.931 382.249 495.638C382.161 495.345 382.117 495.025 382.117 494.68ZM383.382 494.587V494.68C383.382 494.876 383.401 495.059 383.439 495.229C383.478 495.399 383.536 495.55 383.615 495.682C383.697 495.811 383.798 495.912 383.918 495.985C384.042 496.055 384.187 496.09 384.354 496.09C384.585 496.09 384.774 496.042 384.92 495.945C385.067 495.846 385.177 495.709 385.25 495.537C385.323 495.364 385.366 495.165 385.377 494.939V494.363C385.372 494.179 385.347 494.013 385.303 493.867C385.259 493.717 385.197 493.59 385.118 493.484C385.039 493.379 384.937 493.297 384.811 493.238C384.685 493.18 384.535 493.15 384.362 493.15C384.195 493.15 384.05 493.188 383.927 493.265C383.807 493.338 383.706 493.439 383.624 493.568C383.545 493.697 383.485 493.849 383.444 494.025C383.403 494.198 383.382 494.385 383.382 494.587ZM388.687 493.26V497H387.421V492.245H388.607L388.687 493.26ZM388.502 494.456H388.159C388.159 494.104 388.205 493.788 388.295 493.506C388.386 493.222 388.514 492.98 388.678 492.781C388.842 492.579 389.037 492.425 389.262 492.32C389.491 492.211 389.746 492.157 390.027 492.157C390.25 492.157 390.453 492.189 390.638 492.254C390.822 492.318 390.98 492.421 391.112 492.562C391.247 492.702 391.35 492.888 391.42 493.12C391.493 493.351 391.53 493.634 391.53 493.968V497H390.255V493.963C390.255 493.752 390.226 493.588 390.167 493.471C390.109 493.354 390.022 493.272 389.908 493.225C389.797 493.175 389.659 493.15 389.495 493.15C389.325 493.15 389.177 493.184 389.051 493.251C388.928 493.319 388.826 493.413 388.744 493.533C388.665 493.65 388.604 493.788 388.563 493.946C388.522 494.104 388.502 494.274 388.502 494.456Z" fill="white"/>
<path d="M387.423 503.291V504.267C387.423 504.791 387.376 505.233 387.283 505.594C387.189 505.954 387.054 506.244 386.878 506.464C386.703 506.684 386.49 506.843 386.241 506.943C385.995 507.04 385.717 507.088 385.406 507.088C385.16 507.088 384.933 507.057 384.725 506.996C384.517 506.934 384.33 506.836 384.163 506.701C383.999 506.563 383.858 506.385 383.741 506.165C383.624 505.945 383.534 505.679 383.473 505.365C383.411 505.052 383.38 504.686 383.38 504.267V503.291C383.38 502.767 383.427 502.327 383.521 501.973C383.618 501.618 383.754 501.334 383.93 501.12C384.105 500.903 384.316 500.748 384.562 500.654C384.812 500.561 385.09 500.514 385.397 500.514C385.646 500.514 385.875 500.544 386.083 500.606C386.294 500.665 386.481 500.76 386.646 500.892C386.81 501.021 386.949 501.193 387.063 501.41C387.18 501.624 387.27 501.886 387.331 502.197C387.393 502.507 387.423 502.872 387.423 503.291ZM386.606 504.398V503.155C386.606 502.868 386.588 502.616 386.553 502.399C386.521 502.179 386.473 501.992 386.408 501.836C386.344 501.681 386.262 501.555 386.162 501.458C386.065 501.362 385.953 501.292 385.824 501.248C385.698 501.201 385.556 501.177 385.397 501.177C385.204 501.177 385.033 501.214 384.883 501.287C384.734 501.357 384.608 501.47 384.505 501.625C384.406 501.781 384.33 501.984 384.277 502.236C384.224 502.488 384.198 502.794 384.198 503.155V504.398C384.198 504.686 384.214 504.939 384.246 505.159C384.281 505.378 384.333 505.569 384.4 505.73C384.467 505.888 384.549 506.019 384.646 506.121C384.743 506.224 384.854 506.3 384.98 506.35C385.109 506.396 385.251 506.42 385.406 506.42C385.605 506.42 385.78 506.382 385.929 506.306C386.079 506.229 386.203 506.111 386.303 505.95C386.405 505.786 386.481 505.576 386.531 505.321C386.581 505.063 386.606 504.756 386.606 504.398ZM391.141 500.566V507H390.328V501.582L388.689 502.179V501.445L391.014 500.566H391.141Z" fill="white"/>
<defs>
<linearGradient id="paint0_linear_160_12" x1="313.5" y1="27" x2="313.5" y2="47" gradientUnits="userSpaceOnUse">
<stop stop-color="#7BB6FE"/>
<stop offset="1" stop-color="#1473E6"/>
</linearGradient>
<linearGradient id="paint1_linear_160_12" x1="316.5" y1="47" x2="316.5" y2="87" gradientUnits="userSpaceOnUse">
<stop stop-color="#7BB6FE"/>
<stop offset="1" stop-color="#1473E6"/>
</linearGradient>
<linearGradient id="paint2_linear_160_12" x1="313.5" y1="87" x2="313.5" y2="146" gradientUnits="userSpaceOnUse">
<stop stop-color="#7BB6FE"/>
<stop offset="1" stop-color="#1473E6"/>
</linearGradient>
<linearGradient id="paint3_linear_160_12" x1="313.5" y1="146" x2="313.5" y2="226" gradientUnits="userSpaceOnUse">
<stop stop-color="#7BB6FE"/>
<stop offset="1" stop-color="#1473E6"/>
</linearGradient>
<linearGradient id="paint4_linear_160_12" x1="27" y1="494.5" x2="32" y2="494.5" gradientUnits="userSpaceOnUse">
<stop stop-color="#7FAFE9"/>
<stop offset="1" stop-color="#1473E6"/>
</linearGradient>
<linearGradient id="paint5_linear_160_12" x1="32" y1="499.5" x2="37" y2="499.5" gradientUnits="userSpaceOnUse">
<stop stop-color="#7FAFE9"/>
<stop offset="1" stop-color="#1473E6"/>
</linearGradient>
<linearGradient id="paint6_linear_160_12" x1="27" y1="504.5" x2="32" y2="504.5" gradientUnits="userSpaceOnUse">
<stop stop-color="#7FAFE9"/>
<stop offset="1" stop-color="#1473E6"/>
</linearGradient>
<linearGradient id="paint7_linear_160_12" x1="37" y1="494.5" x2="42" y2="494.5" gradientUnits="userSpaceOnUse">
<stop stop-color="#7FAFE9"/>
<stop offset="1" stop-color="#1473E6"/>
</linearGradient>
<linearGradient id="paint8_linear_160_12" x1="42" y1="499.5" x2="47" y2="499.5" gradientUnits="userSpaceOnUse">
<stop stop-color="#7FAFE9"/>
<stop offset="1" stop-color="#1473E6"/>
</linearGradient>
<linearGradient id="paint9_linear_160_12" x1="37" y1="504.5" x2="42" y2="504.5" gradientUnits="userSpaceOnUse">
<stop stop-color="#7FAFE9"/>
<stop offset="1" stop-color="#1473E6"/>
</linearGradient>
<linearGradient id="paint10_linear_160_12" x1="47" y1="494.5" x2="52" y2="494.5" gradientUnits="userSpaceOnUse">
<stop stop-color="#7FAFE9"/>
<stop offset="1" stop-color="#1473E6"/>
</linearGradient>
<linearGradient id="paint11_linear_160_12" x1="52" y1="499.5" x2="57" y2="499.5" gradientUnits="userSpaceOnUse">
<stop stop-color="#7FAFE9"/>
<stop offset="1" stop-color="#1473E6"/>
</linearGradient>
<linearGradient id="paint12_linear_160_12" x1="47" y1="504.5" x2="52" y2="504.5" gradientUnits="userSpaceOnUse">
<stop stop-color="#7FAFE9"/>
<stop offset="1" stop-color="#1473E6"/>
</linearGradient>
<linearGradient id="paint13_linear_160_12" x1="57" y1="494.5" x2="62" y2="494.5" gradientUnits="userSpaceOnUse">
<stop stop-color="#7FAFE9"/>
<stop offset="1" stop-color="#1473E6"/>
</linearGradient>
<linearGradient id="paint14_linear_160_12" x1="62" y1="499.5" x2="67" y2="499.5" gradientUnits="userSpaceOnUse">
<stop stop-color="#7FAFE9"/>
<stop offset="1" stop-color="#1473E6"/>
</linearGradient>
<linearGradient id="paint15_linear_160_12" x1="57" y1="504.5" x2="62" y2="504.5" gradientUnits="userSpaceOnUse">
<stop stop-color="#7FAFE9"/>
<stop offset="1" stop-color="#1473E6"/>
</linearGradient>
<linearGradient id="paint16_linear_160_12" x1="67" y1="494.5" x2="72" y2="494.5" gradientUnits="userSpaceOnUse">
<stop stop-color="#7FAFE9"/>
<stop offset="1" stop-color="#1473E6"/>
</linearGradient>
<linearGradient id="paint17_linear_160_12" x1="72" y1="499.5" x2="77" y2="499.5" gradientUnits="userSpaceOnUse">
<stop stop-color="#7FAFE9"/>
<stop offset="1" stop-color="#1473E6"/>
</linearGradient>
<linearGradient id="paint18_linear_160_12" x1="67" y1="504.5" x2="72" y2="504.5" gradientUnits="userSpaceOnUse">
<stop stop-color="#7FAFE9"/>
<stop offset="1" stop-color="#1473E6"/>
</linearGradient>
<linearGradient id="paint19_linear_160_12" x1="77" y1="494.5" x2="82" y2="494.5" gradientUnits="userSpaceOnUse">
<stop stop-color="#7FAFE9"/>
<stop offset="1" stop-color="#1473E6"/>
</linearGradient>
<linearGradient id="paint20_linear_160_12" x1="82" y1="499.5" x2="87" y2="499.5" gradientUnits="userSpaceOnUse">
<stop stop-color="#7FAFE9"/>
<stop offset="1" stop-color="#1473E6"/>
</linearGradient>
<linearGradient id="paint21_linear_160_12" x1="77" y1="504.5" x2="82" y2="504.5" gradientUnits="userSpaceOnUse">
<stop stop-color="#7FAFE9"/>
<stop offset="1" stop-color="#1473E6"/>
</linearGradient>
<linearGradient id="paint22_linear_160_12" x1="87" y1="494.5" x2="92" y2="494.5" gradientUnits="userSpaceOnUse">
<stop stop-color="#7FAFE9"/>
<stop offset="1" stop-color="#1473E6"/>
</linearGradient>
<linearGradient id="paint23_linear_160_12" x1="92" y1="499.5" x2="97" y2="499.5" gradientUnits="userSpaceOnUse">
<stop stop-color="#7FAFE9"/>
<stop offset="1" stop-color="#1473E6"/>
</linearGradient>
<linearGradient id="paint24_linear_160_12" x1="87" y1="504.5" x2="92" y2="504.5" gradientUnits="userSpaceOnUse">
<stop stop-color="#7FAFE9"/>
<stop offset="1" stop-color="#1473E6"/>
</linearGradient>
<linearGradient id="paint25_linear_160_12" x1="97" y1="494.5" x2="102" y2="494.5" gradientUnits="userSpaceOnUse">
<stop stop-color="#7FAFE9"/>
<stop offset="1" stop-color="#1473E6"/>
</linearGradient>
<linearGradient id="paint26_linear_160_12" x1="102" y1="499.5" x2="107" y2="499.5" gradientUnits="userSpaceOnUse">
<stop stop-color="#7FAFE9"/>
<stop offset="1" stop-color="#1473E6"/>
</linearGradient>
<linearGradient id="paint27_linear_160_12" x1="97" y1="504.5" x2="102" y2="504.5" gradientUnits="userSpaceOnUse">
<stop stop-color="#7FAFE9"/>
<stop offset="1" stop-color="#1473E6"/>
</linearGradient>
<linearGradient id="paint28_linear_160_12" x1="107" y1="494.5" x2="112" y2="494.5" gradientUnits="userSpaceOnUse">
<stop stop-color="#7FAFE9"/>
<stop offset="1" stop-color="#1473E6"/>
</linearGradient>
<linearGradient id="paint29_linear_160_12" x1="112" y1="499.5" x2="117" y2="499.5" gradientUnits="userSpaceOnUse">
<stop stop-color="#7FAFE9"/>
<stop offset="1" stop-color="#1473E6"/>
</linearGradient>
<linearGradient id="paint30_linear_160_12" x1="107" y1="504.5" x2="112" y2="504.5" gradientUnits="userSpaceOnUse">
<stop stop-color="#7FAFE9"/>
<stop offset="1" stop-color="#1473E6"/>
</linearGradient>
<linearGradient id="paint31_linear_160_12" x1="117" y1="494.5" x2="122" y2="494.5" gradientUnits="userSpaceOnUse">
<stop stop-color="#7FAFE9"/>
<stop offset="1" stop-color="#1473E6"/>
</linearGradient>
<linearGradient id="paint32_linear_160_12" x1="122" y1="499.5" x2="127" y2="499.5" gradientUnits="userSpaceOnUse">
<stop stop-color="#7FAFE9"/>
<stop offset="1" stop-color="#1473E6"/>
</linearGradient>
<linearGradient id="paint33_linear_160_12" x1="117" y1="504.5" x2="122" y2="504.5" gradientUnits="userSpaceOnUse">
<stop stop-color="#7FAFE9"/>
<stop offset="1" stop-color="#1473E6"/>
</linearGradient>
<linearGradient id="paint34_linear_160_12" x1="127" y1="494.5" x2="132" y2="494.5" gradientUnits="userSpaceOnUse">
<stop stop-color="#7FAFE9"/>
<stop offset="1" stop-color="#1473E6"/>
</linearGradient>
<linearGradient id="paint35_linear_160_12" x1="132" y1="499.5" x2="137" y2="499.5" gradientUnits="userSpaceOnUse">
<stop stop-color="#7FAFE9"/>
<stop offset="1" stop-color="#1473E6"/>
</linearGradient>
<linearGradient id="paint36_linear_160_12" x1="127" y1="504.5" x2="132" y2="504.5" gradientUnits="userSpaceOnUse">
<stop stop-color="#7FAFE9"/>
<stop offset="1" stop-color="#1473E6"/>
</linearGradient>
<linearGradient id="paint37_linear_160_12" x1="137" y1="494.5" x2="142" y2="494.5" gradientUnits="userSpaceOnUse">
<stop stop-color="#7FAFE9"/>
<stop offset="1" stop-color="#1473E6"/>
</linearGradient>
<linearGradient id="paint38_linear_160_12" x1="142" y1="499.5" x2="147" y2="499.5" gradientUnits="userSpaceOnUse">
<stop stop-color="#7FAFE9"/>
<stop offset="1" stop-color="#1473E6"/>
</linearGradient>
<linearGradient id="paint39_linear_160_12" x1="137" y1="504.5" x2="142" y2="504.5" gradientUnits="userSpaceOnUse">
<stop stop-color="#7FAFE9"/>
<stop offset="1" stop-color="#1473E6"/>
</linearGradient>
<linearGradient id="paint40_linear_160_12" x1="147" y1="494.5" x2="152" y2="494.5" gradientUnits="userSpaceOnUse">
<stop stop-color="#7FAFE9"/>
<stop offset="1" stop-color="#1473E6"/>
</linearGradient>
<linearGradient id="paint41_linear_160_12" x1="152" y1="499.5" x2="157" y2="499.5" gradientUnits="userSpaceOnUse">
<stop stop-color="#7FAFE9"/>
<stop offset="1" stop-color="#1473E6"/>
</linearGradient>
<linearGradient id="paint42_linear_160_12" x1="147" y1="504.5" x2="152" y2="504.5" gradientUnits="userSpaceOnUse">
<stop stop-color="#7FAFE9"/>
<stop offset="1" stop-color="#1473E6"/>
</linearGradient>
<linearGradient id="paint43_linear_160_12" x1="157" y1="494.5" x2="162" y2="494.5" gradientUnits="userSpaceOnUse">
<stop stop-color="#7FAFE9"/>
<stop offset="1" stop-color="#1473E6"/>
</linearGradient>
<linearGradient id="paint44_linear_160_12" x1="162" y1="499.5" x2="167" y2="499.5" gradientUnits="userSpaceOnUse">
<stop stop-color="#7FAFE9"/>
<stop offset="1" stop-color="#1473E6"/>
</linearGradient>
<linearGradient id="paint45_linear_160_12" x1="157" y1="504.5" x2="162" y2="504.5" gradientUnits="userSpaceOnUse">
<stop stop-color="#7FAFE9"/>
<stop offset="1" stop-color="#1473E6"/>
</linearGradient>
<linearGradient id="paint46_linear_160_12" x1="167" y1="494.5" x2="172" y2="494.5" gradientUnits="userSpaceOnUse">
<stop stop-color="#7FAFE9"/>
<stop offset="1" stop-color="#1473E6"/>
</linearGradient>
<linearGradient id="paint47_linear_160_12" x1="172" y1="499.5" x2="177" y2="499.5" gradientUnits="userSpaceOnUse">
<stop stop-color="#7FAFE9"/>
<stop offset="1" stop-color="#1473E6"/>
</linearGradient>
<linearGradient id="paint48_linear_160_12" x1="167" y1="504.5" x2="172" y2="504.5" gradientUnits="userSpaceOnUse">
<stop stop-color="#7FAFE9"/>
<stop offset="1" stop-color="#1473E6"/>
</linearGradient>
<linearGradient id="paint49_linear_160_12" x1="177" y1="494.5" x2="182" y2="494.5" gradientUnits="userSpaceOnUse">
<stop stop-color="#7FAFE9"/>
<stop offset="1" stop-color="#1473E6"/>
</linearGradient>
<linearGradient id="paint50_linear_160_12" x1="182" y1="499.5" x2="187" y2="499.5" gradientUnits="userSpaceOnUse">
<stop stop-color="#7FAFE9"/>
<stop offset="1" stop-color="#1473E6"/>
</linearGradient>
<linearGradient id="paint51_linear_160_12" x1="177" y1="504.5" x2="182" y2="504.5" gradientUnits="userSpaceOnUse">
<stop stop-color="#7FAFE9"/>
<stop offset="1" stop-color="#1473E6"/>
</linearGradient>
<linearGradient id="paint52_linear_160_12" x1="187" y1="494.5" x2="192" y2="494.5" gradientUnits="userSpaceOnUse">
<stop stop-color="#7FAFE9"/>
<stop offset="1" stop-color="#1473E6"/>
</linearGradient>
<linearGradient id="paint53_linear_160_12" x1="192" y1="499.5" x2="197" y2="499.5" gradientUnits="userSpaceOnUse">
<stop stop-color="#7FAFE9"/>
<stop offset="1" stop-color="#1473E6"/>
</linearGradient>
<linearGradient id="paint54_linear_160_12" x1="187" y1="504.5" x2="192" y2="504.5" gradientUnits="userSpaceOnUse">
<stop stop-color="#7FAFE9"/>
<stop offset="1" stop-color="#1473E6"/>
</linearGradient>
<linearGradient id="paint55_linear_160_12" x1="197" y1="494.5" x2="202" y2="494.5" gradientUnits="userSpaceOnUse">
<stop stop-color="#7FAFE9"/>
<stop offset="1" stop-color="#1473E6"/>
</linearGradient>
<linearGradient id="paint56_linear_160_12" x1="202" y1="499.5" x2="207" y2="499.5" gradientUnits="userSpaceOnUse">
<stop stop-color="#7FAFE9"/>
<stop offset="1" stop-color="#1473E6"/>
</linearGradient>
<linearGradient id="paint57_linear_160_12" x1="197" y1="504.5" x2="202" y2="504.5" gradientUnits="userSpaceOnUse">
<stop stop-color="#7FAFE9"/>
<stop offset="1" stop-color="#1473E6"/>
</linearGradient>
<linearGradient id="paint58_linear_160_12" x1="207" y1="494.5" x2="212" y2="494.5" gradientUnits="userSpaceOnUse">
<stop stop-color="#7FAFE9"/>
<stop offset="1" stop-color="#1473E6"/>
</linearGradient>
<linearGradient id="paint59_linear_160_12" x1="212" y1="499.5" x2="217" y2="499.5" gradientUnits="userSpaceOnUse">
<stop stop-color="#7FAFE9"/>
<stop offset="1" stop-color="#1473E6"/>
</linearGradient>
<linearGradient id="paint60_linear_160_12" x1="207" y1="504.5" x2="212" y2="504.5" gradientUnits="userSpaceOnUse">
<stop stop-color="#7FAFE9"/>
<stop offset="1" stop-color="#1473E6"/>
</linearGradient>
<linearGradient id="paint61_linear_160_12" x1="217" y1="494.5" x2="222" y2="494.5" gradientUnits="userSpaceOnUse">
<stop stop-color="#7FAFE9"/>
<stop offset="1" stop-color="#1473E6"/>
</linearGradient>
<linearGradient id="paint62_linear_160_12" x1="222" y1="499.5" x2="227" y2="499.5" gradientUnits="userSpaceOnUse">
<stop stop-color="#7FAFE9"/>
<stop offset="1" stop-color="#1473E6"/>
</linearGradient>
<linearGradient id="paint63_linear_160_12" x1="217" y1="504.5" x2="222" y2="504.5" gradientUnits="userSpaceOnUse">
<stop stop-color="#7FAFE9"/>
<stop offset="1" stop-color="#1473E6"/>
</linearGradient>
<linearGradient id="paint64_linear_160_12" x1="227" y1="494.5" x2="232" y2="494.5" gradientUnits="userSpaceOnUse">
<stop stop-color="#7FAFE9"/>
<stop offset="1" stop-color="#1473E6"/>
</linearGradient>
<linearGradient id="paint65_linear_160_12" x1="232" y1="499.5" x2="237" y2="499.5" gradientUnits="userSpaceOnUse">
<stop stop-color="#7FAFE9"/>
<stop offset="1" stop-color="#1473E6"/>
</linearGradient>
<linearGradient id="paint66_linear_160_12" x1="227" y1="504.5" x2="232" y2="504.5" gradientUnits="userSpaceOnUse">
<stop stop-color="#7FAFE9"/>
<stop offset="1" stop-color="#1473E6"/>
</linearGradient>
<linearGradient id="paint67_linear_160_12" x1="237" y1="494.5" x2="242" y2="494.5" gradientUnits="userSpaceOnUse">
<stop stop-color="#7FAFE9"/>
<stop offset="1" stop-color="#1473E6"/>
</linearGradient>
<linearGradient id="paint68_linear_160_12" x1="242" y1="499.5" x2="247" y2="499.5" gradientUnits="userSpaceOnUse">
<stop stop-color="#7FAFE9"/>
<stop offset="1" stop-color="#1473E6"/>
</linearGradient>
<linearGradient id="paint69_linear_160_12" x1="237" y1="504.5" x2="242" y2="504.5" gradientUnits="userSpaceOnUse">
<stop stop-color="#7FAFE9"/>
<stop offset="1" stop-color="#1473E6"/>
</linearGradient>
<linearGradient id="paint70_linear_160_12" x1="247" y1="494.5" x2="252" y2="494.5" gradientUnits="userSpaceOnUse">
<stop stop-color="#7FAFE9"/>
<stop offset="1" stop-color="#1473E6"/>
</linearGradient>
<linearGradient id="paint71_linear_160_12" x1="252" y1="499.5" x2="257" y2="499.5" gradientUnits="userSpaceOnUse">
<stop stop-color="#7FAFE9"/>
<stop offset="1" stop-color="#1473E6"/>
</linearGradient>
<linearGradient id="paint72_linear_160_12" x1="247" y1="504.5" x2="252" y2="504.5" gradientUnits="userSpaceOnUse">
<stop stop-color="#7FAFE9"/>
<stop offset="1" stop-color="#1473E6"/>
</linearGradient>
<linearGradient id="paint73_linear_160_12" x1="257" y1="494.5" x2="262" y2="494.5" gradientUnits="userSpaceOnUse">
<stop stop-color="#7FAFE9"/>
<stop offset="1" stop-color="#1473E6"/>
</linearGradient>
<linearGradient id="paint74_linear_160_12" x1="262" y1="499.5" x2="267" y2="499.5" gradientUnits="userSpaceOnUse">
<stop stop-color="#7FAFE9"/>
<stop offset="1" stop-color="#1473E6"/>
</linearGradient>
<linearGradient id="paint75_linear_160_12" x1="257" y1="504.5" x2="262" y2="504.5" gradientUnits="userSpaceOnUse">
<stop stop-color="#7FAFE9"/>
<stop offset="1" stop-color="#1473E6"/>
</linearGradient>
<linearGradient id="paint76_linear_160_12" x1="267" y1="494.5" x2="272" y2="494.5" gradientUnits="userSpaceOnUse">
<stop stop-color="#7FAFE9"/>
<stop offset="1" stop-color="#1473E6"/>
</linearGradient>
<linearGradient id="paint77_linear_160_12" x1="272" y1="499.5" x2="277" y2="499.5" gradientUnits="userSpaceOnUse">
<stop stop-color="#7FAFE9"/>
<stop offset="1" stop-color="#1473E6"/>
</linearGradient>
<linearGradient id="paint78_linear_160_12" x1="22" y1="499.5" x2="27" y2="499.5" gradientUnits="userSpaceOnUse">
<stop stop-color="#7FAFE9"/>
<stop offset="1" stop-color="#1473E6"/>
</linearGradient>
<linearGradient id="paint79_linear_160_12" x1="267" y1="504.5" x2="272" y2="504.5" gradientUnits="userSpaceOnUse">
<stop stop-color="#7FAFE9"/>
<stop offset="1" stop-color="#1473E6"/>
</linearGradient>
</defs>
</svg>
