<svg width="426" height="534" viewBox="0 0 426 534" fill="none" xmlns="http://www.w3.org/2000/svg">
<rect width="426" height="534" rx="30" fill="#323232"/>
<path d="M41.6 355H25.92V314.792H41.6C54.312 314.792 62.32 322.968 62.32 334.672C62.32 346.376 54.032 355 41.6 355ZM36.504 323.92V345.872H40.984C47.984 345.872 51.456 342.232 51.456 334.672C51.456 327.56 47.872 323.92 40.984 323.92H36.504ZM80.6346 355.504C71.3386 355.504 65.1226 349.232 65.1226 339.88C65.1226 330.864 71.6186 324.312 80.5786 324.312C90.5466 324.312 97.2106 332.432 95.4746 342.344H75.0346C75.5386 346.152 77.3306 348.056 80.4106 348.056C83.0986 348.056 84.8906 346.936 85.7306 344.752H95.3066C93.4586 351.64 88.1386 355.504 80.6346 355.504ZM80.3546 331.368C77.4986 331.368 75.8186 332.992 75.1466 336.352H85.2266C85.1146 333.328 83.2106 331.368 80.3546 331.368ZM127.971 324.872L117.163 355H106.523L95.6028 324.872H106.019L112.067 344.136L118.227 324.872H127.971ZM143.361 355.504C134.065 355.504 127.849 349.232 127.849 339.88C127.849 330.864 134.345 324.312 143.305 324.312C153.273 324.312 159.937 332.432 158.201 342.344H137.761C138.265 346.152 140.057 348.056 143.137 348.056C145.825 348.056 147.617 346.936 148.457 344.752H158.033C156.185 351.64 150.865 355.504 143.361 355.504ZM143.081 331.368C140.225 331.368 138.545 332.992 137.873 336.352H147.953C147.841 333.328 145.937 331.368 143.081 331.368ZM172.527 355H162.839V314.792H172.527V355ZM192.64 355.56C183.736 355.56 176.904 348.56 176.904 339.936C176.904 331.312 183.736 324.312 192.64 324.312C201.544 324.312 208.376 331.312 208.376 339.936C208.376 348.56 201.544 355.56 192.64 355.56ZM192.64 346.992C195.608 346.992 198.408 344.64 198.408 339.936C198.408 335.232 195.608 332.936 192.64 332.936C189.672 332.936 186.872 335.232 186.872 339.936C186.872 344.64 189.672 346.992 192.64 346.992ZM243.961 339.936C243.961 348.672 238.641 355.56 230.521 355.56C227.385 355.56 224.697 354.44 222.345 352.2V365.808H212.769V324.872H221.561V328.288C224.025 325.712 226.993 324.312 230.521 324.312C238.641 324.312 243.961 331.312 243.961 339.936ZM233.993 339.936C233.993 335.232 231.137 332.936 228.225 332.936C225.257 332.936 222.457 335.232 222.457 339.992C222.457 344.808 225.313 346.936 228.225 346.936C231.137 346.936 233.993 344.752 233.993 339.936ZM257.892 355H248.316V324.872H257.108V328.568C259.404 325.88 261.868 324.312 265.788 324.312C269.596 324.312 272.62 325.936 274.3 328.96C276.876 326.048 279.564 324.312 283.988 324.312C289.98 324.312 294.18 328.288 294.18 335.624V355H284.604V338.592C284.604 335.12 283.204 332.936 280.46 332.936C278.052 332.936 276.036 334.616 276.036 338.648V355H266.46V338.592C266.46 335.12 265.06 332.936 262.316 332.936C259.852 332.936 257.892 334.616 257.892 338.648V355ZM313.767 355.504C304.471 355.504 298.255 349.232 298.255 339.88C298.255 330.864 304.751 324.312 313.711 324.312C323.679 324.312 330.343 332.432 328.607 342.344H308.167C308.671 346.152 310.463 348.056 313.543 348.056C316.231 348.056 318.023 346.936 318.863 344.752H328.439C326.591 351.64 321.271 355.504 313.767 355.504ZM313.487 331.368C310.631 331.368 308.951 332.992 308.279 336.352H318.359C318.247 333.328 316.343 331.368 313.487 331.368ZM342.821 339.152V355H333.245V324.872H342.037V328.512C344.389 325.88 347.189 324.312 350.997 324.312C356.933 324.312 361.133 328.288 361.133 335.624V355H351.557V338.816C351.557 335.008 350.213 332.936 347.301 332.936C344.949 332.936 342.821 334.616 342.821 339.152ZM387.094 345.592V353.936C384.966 355.112 382.95 355.56 380.262 355.56C373.486 355.56 369.51 351.528 369.51 344.64V333.216H363.91V324.872H369.51V316.024H379.086V324.872H387.318V333.216H379.086V342.4C379.086 345.312 380.318 346.656 382.95 346.656C384.518 346.656 386.03 346.264 387.094 345.592Z" fill="white"/>
<path d="M28.34 391.72H25.12V397H23.62V382.64H28.34C31.3 382.64 33.32 384.26 33.32 387.16C33.32 390.06 31.3 391.72 28.34 391.72ZM28.32 383.92H25.12V390.44H28.32C30.46 390.44 31.82 389.26 31.82 387.16C31.82 385.08 30.46 383.92 28.32 383.92ZM41.8164 397V395.08C41.1964 396.4 39.9164 397.2 38.2764 397.2C36.0964 397.2 34.6764 395.98 34.6764 394.08C34.6764 392.02 36.3164 390.94 39.5164 390.94C40.1564 390.94 40.6364 390.98 41.6764 391.06V390.18C41.6764 388.42 40.7364 387.38 39.1364 387.38C37.4164 387.38 36.3364 388.44 36.3164 390.16H35.0364C35.0964 387.82 36.7164 386.26 39.1164 386.26C41.5764 386.26 43.0164 387.7 43.0164 390.14V397H41.8164ZM36.0164 394.04C36.0164 395.32 36.9964 396.18 38.4764 396.18C40.4364 396.18 41.6764 394.9 41.6764 392.92V391.98C40.7764 391.9 40.1564 391.88 39.5764 391.88C37.1764 391.88 36.0164 392.58 36.0164 394.04ZM53.8414 394.06C53.8414 396 52.2814 397.2 49.6814 397.2C47.0614 397.2 45.4614 395.88 45.2614 393.7H46.6014C46.7014 395.2 47.8814 396.14 49.6814 396.14C51.4014 396.14 52.4414 395.48 52.4414 394.28C52.4414 393.24 51.8414 392.76 50.2414 392.44L48.7214 392.14C46.7214 391.76 45.6614 390.78 45.6614 389.26C45.6614 387.5 47.2214 386.26 49.5214 386.26C51.9414 386.26 53.5414 387.56 53.7014 389.66H52.3814C52.2414 388.2 51.1814 387.34 49.5214 387.34C48.0414 387.34 47.0214 388.04 47.0214 389.14C47.0214 390.18 47.6614 390.68 49.2214 390.98L50.8014 391.28C52.9014 391.68 53.8414 392.56 53.8414 394.06ZM64.1539 394.06C64.1539 396 62.5939 397.2 59.9939 397.2C57.3739 397.2 55.7739 395.88 55.5739 393.7H56.9139C57.0139 395.2 58.1939 396.14 59.9939 396.14C61.7139 396.14 62.7539 395.48 62.7539 394.28C62.7539 393.24 62.1539 392.76 60.5539 392.44L59.0339 392.14C57.0339 391.76 55.9739 390.78 55.9739 389.26C55.9739 387.5 57.5339 386.26 59.8339 386.26C62.2539 386.26 63.8539 387.56 64.0139 389.66H62.6939C62.5539 388.2 61.4939 387.34 59.8339 387.34C58.3539 387.34 57.3339 388.04 57.3339 389.14C57.3339 390.18 57.9739 390.68 59.5339 390.98L61.1139 391.28C63.2139 391.68 64.1539 392.56 64.1539 394.06ZM68.4064 384.02C68.4064 384.64 67.9464 385.08 67.2664 385.08C66.6064 385.08 66.1464 384.64 66.1464 384.02C66.1464 383.42 66.6064 382.98 67.2664 382.98C67.9464 382.98 68.4064 383.42 68.4064 384.02ZM67.9864 397H66.5864V386.46H67.9864V397ZM75.24 397.2C72.34 397.2 70.24 394.9 70.24 391.72C70.24 388.56 72.34 386.28 75.24 386.28C78.16 386.28 80.26 388.56 80.26 391.72C80.26 394.9 78.16 397.2 75.24 397.2ZM75.24 395.98C77.3 395.98 78.84 394.34 78.84 391.72C78.84 389.14 77.3 387.5 75.24 387.5C73.2 387.5 71.66 389.14 71.66 391.72C71.66 394.34 73.2 395.98 75.24 395.98ZM83.9239 390.86V397H82.5239V386.46H83.8239V388.44C84.5039 387.14 85.7839 386.26 87.3039 386.26C89.5039 386.26 90.9239 387.66 90.9239 390.16V397H89.5239V390.64C89.5239 388.62 88.6039 387.48 86.8839 387.48C85.2439 387.48 83.9239 388.9 83.9239 390.86ZM100.371 397H98.9713V387.64H96.4912V386.46H98.9713V385.5C98.9713 383.56 100.031 382.48 101.871 382.48C102.351 382.48 102.771 382.56 103.131 382.7V383.86C102.791 383.72 102.471 383.7 102.111 383.7C100.991 383.7 100.371 384.26 100.371 385.5V386.46H103.471V387.64H100.371V397ZM109.01 397.2C106.11 397.2 104.01 394.9 104.01 391.72C104.01 388.56 106.11 386.28 109.01 386.28C111.93 386.28 114.03 388.56 114.03 391.72C114.03 394.9 111.93 397.2 109.01 397.2ZM109.01 395.98C111.07 395.98 112.61 394.34 112.61 391.72C112.61 389.14 111.07 387.5 109.01 387.5C106.97 387.5 105.43 389.14 105.43 391.72C105.43 394.34 106.97 395.98 109.01 395.98ZM117.693 391.36V397H116.293V386.46H117.593V388.86C118.313 387.3 119.873 386.3 121.613 386.3V387.76C119.393 387.68 117.693 389.06 117.693 391.36ZM132.924 395.66V396.9C132.384 397.12 131.924 397.2 131.404 397.2C129.664 397.2 128.324 396.3 128.324 394.02V387.64H125.844V386.46H128.324V383.34H129.724V386.46H133.024V387.64H129.724V393.72C129.724 395.36 130.524 395.92 131.684 395.92C132.124 395.92 132.484 395.84 132.924 395.66ZM138.949 397.2C135.989 397.2 134.029 394.98 134.029 391.64C134.029 388.56 136.069 386.26 138.869 386.26C141.869 386.26 143.829 388.68 143.589 392.06H135.429C135.549 394.56 136.869 396.1 138.929 396.1C140.689 396.1 141.909 395.12 142.249 393.44H143.629C143.149 395.78 141.369 397.2 138.949 397.2ZM138.849 387.34C136.949 387.34 135.609 388.8 135.429 391.1H142.129C142.009 388.74 140.789 387.34 138.849 387.34ZM149.648 397.22C146.868 397.22 144.928 394.96 144.928 391.72C144.928 388.52 146.888 386.26 149.648 386.26C152.108 386.26 153.868 387.9 154.287 390.54H152.868C152.548 388.62 151.348 387.48 149.648 387.48C147.688 387.48 146.348 389.2 146.348 391.72C146.348 394.28 147.688 396 149.648 396C151.368 396 152.548 394.88 152.868 392.92H154.287C153.908 395.6 152.128 397.22 149.648 397.22ZM157.947 390.86V397H156.547V382.64H157.947V388.4C158.607 387.14 159.807 386.26 161.327 386.26C163.527 386.26 164.947 387.66 164.947 390.16V397H163.547V390.64C163.547 388.62 162.627 387.48 160.907 387.48C159.267 387.48 157.947 388.9 157.947 390.86ZM169.295 390.86V397H167.895V386.46H169.195V388.44C169.875 387.14 171.155 386.26 172.675 386.26C174.875 386.26 176.295 387.66 176.295 390.16V397H174.895V390.64C174.895 388.62 173.975 387.48 172.255 387.48C170.615 387.48 169.295 388.9 169.295 390.86ZM183.463 397.2C180.563 397.2 178.463 394.9 178.463 391.72C178.463 388.56 180.563 386.28 183.463 386.28C186.383 386.28 188.483 388.56 188.483 391.72C188.483 394.9 186.383 397.2 183.463 397.2ZM183.463 395.98C185.523 395.98 187.063 394.34 187.063 391.72C187.063 389.14 185.523 387.5 183.463 387.5C181.423 387.5 179.883 389.14 179.883 391.72C179.883 394.34 181.423 395.98 183.463 395.98ZM192.147 397H190.747V382.64H192.147V397ZM199.4 397.2C196.5 397.2 194.4 394.9 194.4 391.72C194.4 388.56 196.5 386.28 199.4 386.28C202.32 386.28 204.42 388.56 204.42 391.72C204.42 394.9 202.32 397.2 199.4 397.2ZM199.4 395.98C201.46 395.98 203 394.34 203 391.72C203 389.14 201.46 387.5 199.4 387.5C197.36 387.5 195.82 389.14 195.82 391.72C195.82 394.34 197.36 395.98 199.4 395.98ZM210.469 401.08C207.789 401.08 206.109 399.68 205.989 397.32H207.329C207.449 399.04 208.569 399.96 210.449 399.96C212.529 399.96 213.629 398.86 213.629 396.78V394.58C212.989 396.06 211.709 396.92 210.149 396.92C207.489 396.92 205.709 394.78 205.709 391.58C205.709 388.38 207.469 386.26 210.129 386.26C211.709 386.26 213.029 387.16 213.709 388.7V386.46H215.009V396.76C215.009 399.48 213.349 401.08 210.469 401.08ZM207.109 391.58C207.109 394.16 208.329 395.72 210.349 395.72C212.329 395.72 213.649 394.12 213.649 391.68C213.649 389.1 212.349 387.46 210.349 387.46C208.349 387.46 207.109 389.02 207.109 391.58ZM226.171 386.46L220.771 400.86H219.271L220.811 396.86L216.631 386.46H218.131L221.531 395.18L224.751 386.46H226.171ZM237.397 395.66V396.9C236.857 397.12 236.397 397.2 235.877 397.2C234.137 397.2 232.797 396.3 232.797 394.02V387.64H230.317V386.46H232.797V383.34H234.197V386.46H237.497V387.64H234.197V393.72C234.197 395.36 234.997 395.92 236.157 395.92C236.597 395.92 236.957 395.84 237.397 395.66ZM246.354 392.74V386.46H247.734V397H246.434V395.1C245.894 396.32 244.614 397.2 243.074 397.2C240.934 397.2 239.514 395.98 239.514 393.32V386.46H240.914V393.02C240.914 395.16 241.974 395.98 243.454 395.98C245.134 395.98 246.354 394.62 246.354 392.74ZM252.166 391.36V397H250.766V386.46H252.066V388.86C252.786 387.3 254.346 386.3 256.086 386.3V387.76C253.866 387.68 252.166 389.06 252.166 391.36ZM259.197 390.86V397H257.797V386.46H259.097V388.44C259.777 387.14 261.057 386.26 262.577 386.26C264.777 386.26 266.197 387.66 266.197 390.16V397H264.797V390.64C264.797 388.62 263.877 387.48 262.157 387.48C260.517 387.48 259.197 388.9 259.197 390.86ZM273.285 397.2C270.325 397.2 268.365 394.98 268.365 391.64C268.365 388.56 270.405 386.26 273.205 386.26C276.205 386.26 278.165 388.68 277.925 392.06H269.765C269.885 394.56 271.205 396.1 273.265 396.1C275.025 396.1 276.245 395.12 276.585 393.44H277.965C277.485 395.78 275.705 397.2 273.285 397.2ZM273.185 387.34C271.285 387.34 269.945 388.8 269.765 391.1H276.465C276.345 388.74 275.125 387.34 273.185 387.34ZM279.263 391.72C279.263 388.48 281.063 386.26 283.903 386.26C285.483 386.26 286.823 387.16 287.523 388.66V382.64H288.923V397H287.623V394.78C286.883 396.32 285.523 397.2 283.903 397.2C281.063 397.2 279.263 394.96 279.263 391.72ZM280.683 391.72C280.683 394.4 282.043 395.98 284.103 395.98C286.143 395.98 287.543 394.32 287.543 391.68C287.543 389.02 286.103 387.48 284.103 387.48C282.043 387.48 280.683 389.04 280.683 391.72ZM301.557 395.66V396.9C301.017 397.12 300.557 397.2 300.037 397.2C298.297 397.2 296.957 396.3 296.957 394.02V387.64H294.477V386.46H296.957V383.34H298.357V386.46H301.657V387.64H298.357V393.72C298.357 395.36 299.157 395.92 300.317 395.92C300.757 395.92 301.117 395.84 301.557 395.66ZM307.662 397.2C304.762 397.2 302.662 394.9 302.662 391.72C302.662 388.56 304.762 386.28 307.662 386.28C310.582 386.28 312.682 388.56 312.682 391.72C312.682 394.9 310.582 397.2 307.662 397.2ZM307.662 395.98C309.722 395.98 311.262 394.34 311.262 391.72C311.262 389.14 309.722 387.5 307.662 387.5C305.622 387.5 304.082 389.14 304.082 391.72C304.082 394.34 305.622 395.98 307.662 395.98ZM320.525 397H319.125V382.64H320.525V397ZM327.779 397.2C324.879 397.2 322.779 394.9 322.779 391.72C322.779 388.56 324.879 386.28 327.779 386.28C330.699 386.28 332.799 388.56 332.799 391.72C332.799 394.9 330.699 397.2 327.779 397.2ZM327.779 395.98C329.839 395.98 331.379 394.34 331.379 391.72C331.379 389.14 329.839 387.5 327.779 387.5C325.739 387.5 324.199 389.14 324.199 391.72C324.199 394.34 325.739 395.98 327.779 395.98ZM342.87 386.46L338.81 397H337.35L333.33 386.46H334.83L338.13 395.36L341.43 386.46H342.87ZM346.317 384.02C346.317 384.64 345.857 385.08 345.177 385.08C344.517 385.08 344.057 384.64 344.057 384.02C344.057 383.42 344.517 382.98 345.177 382.98C345.857 382.98 346.317 383.42 346.317 384.02ZM345.897 397H344.497V386.46H345.897V397ZM350.33 390.86V397H348.93V386.46H350.23V388.44C350.91 387.14 352.19 386.26 353.71 386.26C355.91 386.26 357.33 387.66 357.33 390.16V397H355.93V390.64C355.93 388.62 355.01 387.48 353.29 387.48C351.65 387.48 350.33 388.9 350.33 390.86ZM364.258 401.08C361.578 401.08 359.898 399.68 359.778 397.32H361.118C361.238 399.04 362.358 399.96 364.238 399.96C366.318 399.96 367.418 398.86 367.418 396.78V394.58C366.778 396.06 365.498 396.92 363.938 396.92C361.278 396.92 359.498 394.78 359.498 391.58C359.498 388.38 361.258 386.26 363.918 386.26C365.498 386.26 366.818 387.16 367.498 388.7V386.46H368.798V396.76C368.798 399.48 367.138 401.08 364.258 401.08ZM360.898 391.58C360.898 394.16 362.118 395.72 364.138 395.72C366.118 395.72 367.438 394.12 367.438 391.68C367.438 389.1 366.138 387.46 364.138 387.46C362.138 387.46 360.898 389.02 360.898 391.58ZM32.3 428L29.54 419.32L26.8 428H25.38L22.3 417.46H23.68L26.12 426.02L28.86 417.46H30.24L32.96 426.04L35.4 417.46H36.8L33.7 428H32.3ZM42.5428 428.2C39.5828 428.2 37.6228 425.98 37.6228 422.64C37.6228 419.56 39.6628 417.26 42.4628 417.26C45.4628 417.26 47.4228 419.68 47.1828 423.06H39.0228C39.1428 425.56 40.4628 427.1 42.5228 427.1C44.2828 427.1 45.5028 426.12 45.8428 424.44H47.2228C46.7428 426.78 44.9628 428.2 42.5428 428.2ZM42.4428 418.34C40.5428 418.34 39.2028 419.8 39.0228 422.1H45.7228C45.6028 419.74 44.3828 418.34 42.4428 418.34ZM59.1566 422.72C59.1566 425.96 57.3366 428.2 54.5166 428.2C52.8966 428.2 51.5366 427.32 50.7966 425.78V428H49.4966V413.64H50.8966V419.68C51.5766 418.14 52.9166 417.26 54.5166 417.26C57.3366 417.26 59.1566 419.48 59.1566 422.72ZM57.7366 422.72C57.7366 420.04 56.3566 418.48 54.2966 418.48C52.3166 418.48 50.8766 420.02 50.8766 422.68C50.8766 425.32 52.2766 426.98 54.2966 426.98C56.3566 426.98 57.7366 425.4 57.7366 422.72ZM72.0703 428V426.08C71.4503 427.4 70.1703 428.2 68.5303 428.2C66.3503 428.2 64.9303 426.98 64.9303 425.08C64.9303 423.02 66.5703 421.94 69.7703 421.94C70.4103 421.94 70.8903 421.98 71.9303 422.06V421.18C71.9303 419.42 70.9903 418.38 69.3903 418.38C67.6703 418.38 66.5903 419.44 66.5703 421.16H65.2903C65.3503 418.82 66.9703 417.26 69.3703 417.26C71.8303 417.26 73.2703 418.7 73.2703 421.14V428H72.0703ZM66.2703 425.04C66.2703 426.32 67.2503 427.18 68.7303 427.18C70.6903 427.18 71.9303 425.9 71.9303 423.92V422.98C71.0303 422.9 70.4103 422.88 69.8303 422.88C67.4303 422.88 66.2703 423.58 66.2703 425.04ZM77.6153 421.86V428H76.2153V417.46H77.5153V419.44C78.1953 418.14 79.4753 417.26 80.9953 417.26C83.1953 417.26 84.6153 418.66 84.6153 421.16V428H83.2153V421.64C83.2153 419.62 82.2953 418.48 80.5753 418.48C78.9353 418.48 77.6153 419.9 77.6153 421.86ZM86.783 422.72C86.783 419.48 88.583 417.26 91.423 417.26C93.003 417.26 94.343 418.16 95.043 419.66V413.64H96.443V428H95.143V425.78C94.403 427.32 93.043 428.2 91.423 428.2C88.583 428.2 86.783 425.96 86.783 422.72ZM88.203 422.72C88.203 425.4 89.563 426.98 91.623 426.98C93.663 426.98 95.063 425.32 95.063 422.68C95.063 420.02 93.623 418.48 91.623 418.48C89.563 418.48 88.203 420.04 88.203 422.72ZM111.537 425.06C111.537 427 109.977 428.2 107.377 428.2C104.757 428.2 103.157 426.88 102.957 424.7H104.297C104.397 426.2 105.577 427.14 107.377 427.14C109.097 427.14 110.137 426.48 110.137 425.28C110.137 424.24 109.537 423.76 107.937 423.44L106.417 423.14C104.417 422.76 103.357 421.78 103.357 420.26C103.357 418.5 104.917 417.26 107.217 417.26C109.637 417.26 111.237 418.56 111.397 420.66H110.077C109.937 419.2 108.877 418.34 107.217 418.34C105.737 418.34 104.717 419.04 104.717 420.14C104.717 421.18 105.357 421.68 106.917 421.98L108.497 422.28C110.597 422.68 111.537 423.56 111.537 425.06ZM118.189 428.2C115.289 428.2 113.189 425.9 113.189 422.72C113.189 419.56 115.289 417.28 118.189 417.28C121.109 417.28 123.209 419.56 123.209 422.72C123.209 425.9 121.109 428.2 118.189 428.2ZM118.189 426.98C120.249 426.98 121.789 425.34 121.789 422.72C121.789 420.14 120.249 418.5 118.189 418.5C116.149 418.5 114.609 420.14 114.609 422.72C114.609 425.34 116.149 426.98 118.189 426.98ZM127.5 428H126.1V418.64H123.62V417.46H126.1V416.5C126.1 414.56 127.16 413.48 129 413.48C129.48 413.48 129.9 413.56 130.26 413.7V414.86C129.92 414.72 129.6 414.7 129.24 414.7C128.12 414.7 127.5 415.26 127.5 416.5V417.46H130.6V418.64H127.5V428ZM138.413 426.66V427.9C137.873 428.12 137.413 428.2 136.893 428.2C135.153 428.2 133.813 427.3 133.813 425.02V418.64H131.333V417.46H133.813V414.34H135.213V417.46H138.513V418.64H135.213V424.72C135.213 426.36 136.013 426.92 137.173 426.92C137.613 426.92 137.973 426.84 138.413 426.66ZM149.409 428L146.649 419.32L143.909 428H142.489L139.409 417.46H140.789L143.229 426.02L145.969 417.46H147.349L150.069 426.04L152.509 417.46H153.909L150.809 428H149.409ZM161.895 428V426.08C161.275 427.4 159.995 428.2 158.355 428.2C156.175 428.2 154.755 426.98 154.755 425.08C154.755 423.02 156.395 421.94 159.595 421.94C160.235 421.94 160.715 421.98 161.755 422.06V421.18C161.755 419.42 160.815 418.38 159.215 418.38C157.495 418.38 156.415 419.44 156.395 421.16H155.115C155.175 418.82 156.795 417.26 159.195 417.26C161.655 417.26 163.095 418.7 163.095 421.14V428H161.895ZM156.095 425.04C156.095 426.32 157.075 427.18 158.555 427.18C160.515 427.18 161.755 425.9 161.755 423.92V422.98C160.855 422.9 160.235 422.88 159.655 422.88C157.255 422.88 156.095 423.58 156.095 425.04ZM167.44 422.36V428H166.04V417.46H167.34V419.86C168.06 418.3 169.62 417.3 171.36 417.3V418.76C169.14 418.68 167.44 420.06 167.44 422.36ZM177.191 428.2C174.231 428.2 172.271 425.98 172.271 422.64C172.271 419.56 174.311 417.26 177.111 417.26C180.111 417.26 182.071 419.68 181.831 423.06H173.671C173.791 425.56 175.111 427.1 177.171 427.1C178.931 427.1 180.151 426.12 180.491 424.44H181.871C181.391 426.78 179.611 428.2 177.191 428.2ZM177.091 418.34C175.191 418.34 173.851 419.8 173.671 422.1H180.371C180.251 419.74 179.031 418.34 177.091 418.34ZM187.545 422.72C187.545 419.48 189.345 417.26 192.185 417.26C193.765 417.26 195.105 418.16 195.805 419.66V413.64H197.205V428H195.905V425.78C195.165 427.32 193.805 428.2 192.185 428.2C189.345 428.2 187.545 425.96 187.545 422.72ZM188.965 422.72C188.965 425.4 190.325 426.98 192.385 426.98C194.425 426.98 195.825 425.32 195.825 422.68C195.825 420.02 194.385 418.48 192.385 418.48C190.325 418.48 188.965 420.04 188.965 422.72ZM204.379 428.2C201.419 428.2 199.459 425.98 199.459 422.64C199.459 419.56 201.499 417.26 204.299 417.26C207.299 417.26 209.259 419.68 209.019 423.06H200.859C200.979 425.56 202.299 427.1 204.359 427.1C206.119 427.1 207.339 426.12 207.679 424.44H209.059C208.579 426.78 206.799 428.2 204.379 428.2ZM204.279 418.34C202.379 418.34 201.039 419.8 200.859 422.1H207.559C207.439 419.74 206.219 418.34 204.279 418.34ZM219.14 417.46L215.08 428H213.62L209.6 417.46H211.1L214.4 426.36L217.7 417.46H219.14ZM224.594 428.2C221.634 428.2 219.674 425.98 219.674 422.64C219.674 419.56 221.714 417.26 224.514 417.26C227.514 417.26 229.474 419.68 229.234 423.06H221.074C221.194 425.56 222.514 427.1 224.574 427.1C226.334 427.1 227.554 426.12 227.894 424.44H229.274C228.794 426.78 227.014 428.2 224.594 428.2ZM224.494 418.34C222.594 418.34 221.254 419.8 221.074 422.1H227.774C227.654 419.74 226.434 418.34 224.494 418.34ZM232.947 428H231.547V413.64H232.947V428ZM240.201 428.2C237.301 428.2 235.201 425.9 235.201 422.72C235.201 419.56 237.301 417.28 240.201 417.28C243.121 417.28 245.221 419.56 245.221 422.72C245.221 425.9 243.121 428.2 240.201 428.2ZM240.201 426.98C242.261 426.98 243.801 425.34 243.801 422.72C243.801 420.14 242.261 418.5 240.201 418.5C238.161 418.5 236.621 420.14 236.621 422.72C236.621 425.34 238.161 426.98 240.201 426.98ZM257.145 422.72C257.145 425.98 255.325 428.2 252.525 428.2C250.945 428.2 249.605 427.34 248.885 425.84V431.86H247.485V417.46H248.785V419.74C249.505 418.18 250.905 417.26 252.525 417.26C255.325 417.26 257.145 419.5 257.145 422.72ZM255.725 422.72C255.725 420.06 254.345 418.48 252.285 418.48C250.325 418.48 248.865 420.04 248.865 422.72C248.865 425.34 250.285 426.98 252.285 426.98C254.345 426.98 255.725 425.42 255.725 422.72ZM260.799 428H259.399V417.46H260.699V419.44C261.399 418.08 262.639 417.26 264.139 417.26C265.779 417.26 266.999 418.16 267.439 419.7C268.099 418.22 269.419 417.26 271.079 417.26C273.259 417.26 274.619 418.7 274.619 421.16V428H273.239V421.62C273.239 419.62 272.319 418.48 270.619 418.48C269.019 418.48 267.719 419.88 267.719 421.82V428H266.319V421.62C266.319 419.62 265.399 418.48 263.699 418.48C262.079 418.48 260.799 419.88 260.799 421.82V428ZM281.703 428.2C278.743 428.2 276.783 425.98 276.783 422.64C276.783 419.56 278.823 417.26 281.623 417.26C284.623 417.26 286.583 419.68 286.343 423.06H278.183C278.303 425.56 279.623 427.1 281.683 427.1C283.443 427.1 284.663 426.12 285.003 424.44H286.383C285.903 426.78 284.123 428.2 281.703 428.2ZM281.603 418.34C279.703 418.34 278.363 419.8 278.183 422.1H284.883C284.763 419.74 283.543 418.34 281.603 418.34ZM290.057 421.86V428H288.657V417.46H289.957V419.44C290.637 418.14 291.917 417.26 293.437 417.26C295.637 417.26 297.057 418.66 297.057 421.16V428H295.657V421.64C295.657 419.62 294.737 418.48 293.017 418.48C291.377 418.48 290.057 419.9 290.057 421.86ZM305.405 426.66V427.9C304.865 428.12 304.405 428.2 303.885 428.2C302.145 428.2 300.805 427.3 300.805 425.02V418.64H298.325V417.46H300.805V414.34H302.205V417.46H305.505V418.64H302.205V424.72C302.205 426.36 303.005 426.92 304.165 426.92C304.605 426.92 304.965 426.84 305.405 426.66Z" fill="white"/>
<rect x="22.5" y="27.5" width="6" height="6" fill="#D9D9D9" stroke="#1473E6"/>
<rect x="212.5" y="286.5" width="6" height="6" fill="#D9D9D9" stroke="#1473E6"/>
<rect x="22.5" y="286.5" width="6" height="6" fill="#D9D9D9" stroke="#1473E6"/>
<rect x="212.5" y="27.5" width="6" height="6" fill="#D9D9D9" stroke="#1473E6"/>
<line x1="28" y1="30.5" x2="212" y2="30.5" stroke="#1473E6"/>
<path d="M215.5 33L215.5 286" stroke="#1473E6"/>
<line x1="25.5" y1="33" x2="25.5" y2="286" stroke="#1473E6"/>
<line x1="212" y1="289.5" x2="29" y2="289.5" stroke="#1473E6"/>
<line x1="212.404" y1="33.2941" x2="28.4044" y2="286.294" stroke="#1473E6"/>
<line x1="28.4044" y1="33.7059" x2="212.404" y2="286.706" stroke="#1473E6"/>
<path d="M393 47C344.5 47 357.407 47 313.5 47C269.593 47 258.5 47 234 47C234 35.9543 269.593 27 313.5 27C357.407 27 393 35.9543 393 47Z" fill="url(#paint0_linear_380_8)"/>
<path d="M396 87C347.5 87 360.407 87 316.5 87C272.593 87 261.5 87 237 87C237 64.9086 272.593 47 316.5 47C360.407 47 396 64.9086 396 87Z" fill="url(#paint1_linear_380_8)"/>
<path d="M393 146C344.5 146 357.407 146 313.5 146C269.593 146 258.5 146 234 146C234 113.415 269.593 87 313.5 87C357.407 87 393 113.415 393 146Z" fill="url(#paint2_linear_380_8)"/>
<path d="M393 226C344.5 226 357.407 226 313.5 226C269.593 226 258.5 226 234 226C234 181.817 269.593 146 313.5 146C357.407 146 393 181.817 393 226Z" fill="url(#paint3_linear_380_8)"/>
<rect x="27" y="492" width="5" height="5" fill="url(#paint4_linear_380_8)"/>
<rect x="32" y="497" width="5" height="5" fill="url(#paint5_linear_380_8)"/>
<rect x="27" y="502" width="5" height="5" fill="url(#paint6_linear_380_8)"/>
<rect x="37" y="492" width="5" height="5" fill="url(#paint7_linear_380_8)"/>
<rect x="42" y="497" width="5" height="5" fill="url(#paint8_linear_380_8)"/>
<rect x="37" y="502" width="5" height="5" fill="url(#paint9_linear_380_8)"/>
<rect x="47" y="492" width="5" height="5" fill="url(#paint10_linear_380_8)"/>
<rect x="52" y="497" width="5" height="5" fill="url(#paint11_linear_380_8)"/>
<rect x="47" y="502" width="5" height="5" fill="url(#paint12_linear_380_8)"/>
<rect x="57" y="492" width="5" height="5" fill="url(#paint13_linear_380_8)"/>
<rect x="62" y="497" width="5" height="5" fill="url(#paint14_linear_380_8)"/>
<rect x="57" y="502" width="5" height="5" fill="url(#paint15_linear_380_8)"/>
<rect x="67" y="492" width="5" height="5" fill="url(#paint16_linear_380_8)"/>
<rect x="72" y="497" width="5" height="5" fill="url(#paint17_linear_380_8)"/>
<rect x="67" y="502" width="5" height="5" fill="url(#paint18_linear_380_8)"/>
<rect x="77" y="492" width="5" height="5" fill="url(#paint19_linear_380_8)"/>
<rect x="82" y="497" width="5" height="5" fill="url(#paint20_linear_380_8)"/>
<rect x="77" y="502" width="5" height="5" fill="url(#paint21_linear_380_8)"/>
<rect x="87" y="492" width="5" height="5" fill="url(#paint22_linear_380_8)"/>
<rect x="92" y="497" width="5" height="5" fill="url(#paint23_linear_380_8)"/>
<rect x="87" y="502" width="5" height="5" fill="url(#paint24_linear_380_8)"/>
<rect x="97" y="492" width="5" height="5" fill="url(#paint25_linear_380_8)"/>
<rect x="102" y="497" width="5" height="5" fill="url(#paint26_linear_380_8)"/>
<rect x="97" y="502" width="5" height="5" fill="url(#paint27_linear_380_8)"/>
<rect x="107" y="492" width="5" height="5" fill="url(#paint28_linear_380_8)"/>
<rect x="112" y="497" width="5" height="5" fill="url(#paint29_linear_380_8)"/>
<rect x="107" y="502" width="5" height="5" fill="url(#paint30_linear_380_8)"/>
<rect x="117" y="492" width="5" height="5" fill="url(#paint31_linear_380_8)"/>
<rect x="122" y="497" width="5" height="5" fill="url(#paint32_linear_380_8)"/>
<rect x="117" y="502" width="5" height="5" fill="url(#paint33_linear_380_8)"/>
<rect x="127" y="492" width="5" height="5" fill="url(#paint34_linear_380_8)"/>
<rect x="132" y="497" width="5" height="5" fill="url(#paint35_linear_380_8)"/>
<rect x="127" y="502" width="5" height="5" fill="url(#paint36_linear_380_8)"/>
<rect x="137" y="492" width="5" height="5" fill="url(#paint37_linear_380_8)"/>
<rect x="142" y="497" width="5" height="5" fill="url(#paint38_linear_380_8)"/>
<rect x="137" y="502" width="5" height="5" fill="url(#paint39_linear_380_8)"/>
<rect x="147" y="492" width="5" height="5" fill="url(#paint40_linear_380_8)"/>
<rect x="152" y="497" width="5" height="5" fill="url(#paint41_linear_380_8)"/>
<rect x="147" y="502" width="5" height="5" fill="url(#paint42_linear_380_8)"/>
<rect x="157" y="492" width="5" height="5" fill="url(#paint43_linear_380_8)"/>
<rect x="162" y="497" width="5" height="5" fill="url(#paint44_linear_380_8)"/>
<rect x="157" y="502" width="5" height="5" fill="url(#paint45_linear_380_8)"/>
<rect x="167" y="492" width="5" height="5" fill="url(#paint46_linear_380_8)"/>
<rect x="172" y="497" width="5" height="5" fill="url(#paint47_linear_380_8)"/>
<rect x="167" y="502" width="5" height="5" fill="url(#paint48_linear_380_8)"/>
<rect x="177" y="492" width="5" height="5" fill="url(#paint49_linear_380_8)"/>
<rect x="182" y="497" width="5" height="5" fill="url(#paint50_linear_380_8)"/>
<rect x="177" y="502" width="5" height="5" fill="url(#paint51_linear_380_8)"/>
<rect x="187" y="492" width="5" height="5" fill="url(#paint52_linear_380_8)"/>
<rect x="192" y="497" width="5" height="5" fill="url(#paint53_linear_380_8)"/>
<rect x="187" y="502" width="5" height="5" fill="url(#paint54_linear_380_8)"/>
<rect x="197" y="492" width="5" height="5" fill="url(#paint55_linear_380_8)"/>
<rect x="202" y="497" width="5" height="5" fill="url(#paint56_linear_380_8)"/>
<rect x="197" y="502" width="5" height="5" fill="url(#paint57_linear_380_8)"/>
<rect x="207" y="492" width="5" height="5" fill="url(#paint58_linear_380_8)"/>
<rect x="212" y="497" width="5" height="5" fill="url(#paint59_linear_380_8)"/>
<rect x="207" y="502" width="5" height="5" fill="url(#paint60_linear_380_8)"/>
<rect x="217" y="492" width="5" height="5" fill="url(#paint61_linear_380_8)"/>
<rect x="222" y="497" width="5" height="5" fill="url(#paint62_linear_380_8)"/>
<rect x="217" y="502" width="5" height="5" fill="url(#paint63_linear_380_8)"/>
<rect x="227" y="492" width="5" height="5" fill="url(#paint64_linear_380_8)"/>
<rect x="232" y="497" width="5" height="5" fill="url(#paint65_linear_380_8)"/>
<rect x="227" y="502" width="5" height="5" fill="url(#paint66_linear_380_8)"/>
<rect x="237" y="492" width="5" height="5" fill="url(#paint67_linear_380_8)"/>
<rect x="242" y="497" width="5" height="5" fill="url(#paint68_linear_380_8)"/>
<rect x="237" y="502" width="5" height="5" fill="url(#paint69_linear_380_8)"/>
<rect x="247" y="492" width="5" height="5" fill="url(#paint70_linear_380_8)"/>
<rect x="252" y="497" width="5" height="5" fill="url(#paint71_linear_380_8)"/>
<rect x="247" y="502" width="5" height="5" fill="url(#paint72_linear_380_8)"/>
<rect x="257" y="492" width="5" height="5" fill="url(#paint73_linear_380_8)"/>
<rect x="262" y="497" width="5" height="5" fill="url(#paint74_linear_380_8)"/>
<rect x="257" y="502" width="5" height="5" fill="url(#paint75_linear_380_8)"/>
<rect x="267" y="492" width="5" height="5" fill="url(#paint76_linear_380_8)"/>
<rect x="272" y="497" width="5" height="5" fill="url(#paint77_linear_380_8)"/>
<rect x="22" y="497" width="5" height="5" fill="url(#paint78_linear_380_8)"/>
<rect x="267" y="502" width="5" height="5" fill="url(#paint79_linear_380_8)"/>
<line x1="22" y1="486.5" x2="392" y2="486.5" stroke="#1473E6"/>
<line x1="282.5" y1="487" x2="282.5" y2="507" stroke="#1473E6"/>
<path d="M366.63 497H365.237L365.246 495.972H366.63C366.976 495.972 367.268 495.894 367.505 495.739C367.742 495.581 367.921 495.351 368.041 495.049C368.164 494.747 368.226 494.382 368.226 493.955V493.643C368.226 493.314 368.19 493.026 368.12 492.777C368.053 492.528 367.952 492.318 367.817 492.148C367.682 491.979 367.517 491.851 367.32 491.766C367.124 491.678 366.898 491.634 366.644 491.634H365.211V490.602H366.644C367.071 490.602 367.462 490.675 367.817 490.821C368.174 490.965 368.483 491.171 368.744 491.441C369.005 491.71 369.206 492.033 369.346 492.408C369.49 492.78 369.562 493.194 369.562 493.651V493.955C369.562 494.409 369.49 494.823 369.346 495.198C369.206 495.573 369.005 495.896 368.744 496.165C368.486 496.432 368.177 496.638 367.817 496.785C367.459 496.928 367.064 497 366.63 497ZM365.984 490.602V497H364.666V490.602H365.984ZM372.629 497.088C372.26 497.088 371.929 497.029 371.636 496.912C371.343 496.792 371.094 496.626 370.889 496.416C370.687 496.205 370.531 495.96 370.423 495.682C370.314 495.4 370.26 495.102 370.26 494.785V494.609C370.26 494.249 370.312 493.919 370.414 493.621C370.517 493.322 370.663 493.062 370.854 492.843C371.047 492.623 371.281 492.455 371.557 492.337C371.832 492.217 372.143 492.157 372.488 492.157C372.825 492.157 373.124 492.213 373.385 492.324C373.646 492.436 373.864 492.594 374.04 492.799C374.218 493.004 374.353 493.25 374.444 493.537C374.535 493.821 374.58 494.138 374.58 494.486V495.014H370.801V494.17H373.336V494.073C373.336 493.897 373.304 493.741 373.24 493.603C373.178 493.462 373.084 493.351 372.958 493.269C372.833 493.187 372.671 493.146 372.475 493.146C372.308 493.146 372.165 493.183 372.044 493.256C371.924 493.329 371.826 493.432 371.75 493.563C371.677 493.695 371.621 493.851 371.583 494.029C371.548 494.205 371.53 494.398 371.53 494.609V494.785C371.53 494.976 371.557 495.151 371.609 495.312C371.665 495.474 371.743 495.613 371.842 495.73C371.945 495.847 372.068 495.938 372.211 496.002C372.358 496.067 372.523 496.099 372.708 496.099C372.937 496.099 373.149 496.055 373.345 495.967C373.544 495.876 373.716 495.74 373.859 495.559L374.475 496.227C374.375 496.37 374.239 496.508 374.066 496.64C373.896 496.771 373.691 496.88 373.451 496.965C373.21 497.047 372.937 497.088 372.629 497.088ZM377.872 495.686C377.872 495.595 377.845 495.513 377.792 495.44C377.74 495.367 377.642 495.299 377.498 495.238C377.357 495.173 377.154 495.115 376.887 495.062C376.647 495.009 376.423 494.943 376.215 494.864C376.01 494.782 375.831 494.684 375.679 494.57C375.529 494.456 375.412 494.321 375.327 494.166C375.242 494.007 375.2 493.827 375.2 493.625C375.2 493.426 375.242 493.238 375.327 493.062C375.415 492.887 375.54 492.731 375.701 492.597C375.865 492.459 376.064 492.352 376.298 492.276C376.536 492.197 376.802 492.157 377.098 492.157C377.511 492.157 377.866 492.223 378.162 492.355C378.46 492.487 378.689 492.668 378.847 492.9C379.008 493.128 379.089 493.389 379.089 493.682H377.823C377.823 493.559 377.797 493.449 377.744 493.353C377.694 493.253 377.615 493.175 377.507 493.12C377.401 493.061 377.264 493.032 377.094 493.032C376.953 493.032 376.832 493.057 376.729 493.106C376.626 493.153 376.547 493.218 376.492 493.3C376.439 493.379 376.413 493.467 376.413 493.563C376.413 493.637 376.427 493.703 376.457 493.761C376.489 493.817 376.54 493.868 376.61 493.915C376.681 493.962 376.771 494.006 376.883 494.047C376.997 494.085 377.138 494.12 377.305 494.152C377.647 494.223 377.954 494.315 378.223 494.429C378.493 494.541 378.707 494.693 378.865 494.886C379.023 495.077 379.102 495.327 379.102 495.638C379.102 495.849 379.055 496.042 378.961 496.218C378.868 496.394 378.733 496.547 378.557 496.679C378.381 496.808 378.17 496.909 377.924 496.982C377.681 497.053 377.407 497.088 377.103 497.088C376.66 497.088 376.285 497.009 375.978 496.851C375.673 496.692 375.441 496.492 375.283 496.249C375.128 496.002 375.05 495.75 375.05 495.493H376.25C376.256 495.666 376.3 495.805 376.382 495.91C376.467 496.016 376.574 496.092 376.703 496.139C376.834 496.186 376.977 496.209 377.129 496.209C377.293 496.209 377.429 496.187 377.538 496.143C377.646 496.096 377.728 496.035 377.784 495.958C377.842 495.879 377.872 495.789 377.872 495.686ZM381.26 492.245V497H379.99V492.245H381.26ZM379.911 491.006C379.911 490.821 379.975 490.669 380.104 490.549C380.233 490.429 380.406 490.369 380.623 490.369C380.836 490.369 381.008 490.429 381.137 490.549C381.269 490.669 381.334 490.821 381.334 491.006C381.334 491.19 381.269 491.343 381.137 491.463C381.008 491.583 380.836 491.643 380.623 491.643C380.406 491.643 380.233 491.583 380.104 491.463C379.975 491.343 379.911 491.19 379.911 491.006ZM385.316 492.245H386.463V496.842C386.463 497.275 386.366 497.643 386.173 497.945C385.982 498.25 385.716 498.479 385.373 498.635C385.03 498.793 384.632 498.872 384.178 498.872C383.979 498.872 383.768 498.846 383.545 498.793C383.325 498.74 383.114 498.658 382.912 498.547C382.713 498.436 382.546 498.295 382.411 498.125L382.969 497.378C383.116 497.548 383.286 497.68 383.479 497.773C383.672 497.87 383.886 497.918 384.121 497.918C384.349 497.918 384.542 497.876 384.701 497.791C384.859 497.709 384.98 497.587 385.065 497.426C385.15 497.268 385.193 497.076 385.193 496.851V493.344L385.316 492.245ZM382.117 494.68V494.587C382.117 494.224 382.161 493.895 382.249 493.599C382.339 493.3 382.467 493.043 382.631 492.83C382.798 492.616 383 492.45 383.237 492.333C383.475 492.216 383.743 492.157 384.042 492.157C384.358 492.157 384.623 492.216 384.837 492.333C385.051 492.45 385.227 492.617 385.364 492.834C385.502 493.048 385.609 493.301 385.685 493.594C385.764 493.884 385.826 494.202 385.87 494.548V494.75C385.826 495.081 385.76 495.389 385.672 495.673C385.584 495.957 385.468 496.206 385.325 496.42C385.181 496.631 385.002 496.795 384.789 496.912C384.578 497.029 384.326 497.088 384.033 497.088C383.74 497.088 383.475 497.028 383.237 496.908C383.003 496.788 382.802 496.619 382.635 496.402C382.468 496.186 382.339 495.931 382.249 495.638C382.161 495.345 382.117 495.025 382.117 494.68ZM383.382 494.587V494.68C383.382 494.876 383.401 495.059 383.439 495.229C383.478 495.399 383.536 495.55 383.615 495.682C383.697 495.811 383.798 495.912 383.918 495.985C384.042 496.055 384.187 496.09 384.354 496.09C384.585 496.09 384.774 496.042 384.92 495.945C385.067 495.846 385.177 495.709 385.25 495.537C385.323 495.364 385.366 495.165 385.377 494.939V494.363C385.372 494.179 385.347 494.013 385.303 493.867C385.259 493.717 385.197 493.59 385.118 493.484C385.039 493.379 384.937 493.297 384.811 493.238C384.685 493.18 384.535 493.15 384.362 493.15C384.195 493.15 384.05 493.188 383.927 493.265C383.807 493.338 383.706 493.439 383.624 493.568C383.545 493.697 383.485 493.849 383.444 494.025C383.403 494.198 383.382 494.385 383.382 494.587ZM388.687 493.26V497H387.421V492.245H388.607L388.687 493.26ZM388.502 494.456H388.159C388.159 494.104 388.205 493.788 388.295 493.506C388.386 493.222 388.514 492.98 388.678 492.781C388.842 492.579 389.037 492.425 389.262 492.32C389.491 492.211 389.746 492.157 390.027 492.157C390.25 492.157 390.453 492.189 390.638 492.254C390.822 492.318 390.98 492.421 391.112 492.562C391.247 492.702 391.35 492.888 391.42 493.12C391.493 493.351 391.53 493.634 391.53 493.968V497H390.255V493.963C390.255 493.752 390.226 493.588 390.167 493.471C390.109 493.354 390.022 493.272 389.908 493.225C389.797 493.175 389.659 493.15 389.495 493.15C389.325 493.15 389.177 493.184 389.051 493.251C388.928 493.319 388.826 493.413 388.744 493.533C388.665 493.65 388.604 493.788 388.563 493.946C388.522 494.104 388.502 494.274 388.502 494.456Z" fill="white"/>
<path d="M387.423 503.291V504.267C387.423 504.791 387.376 505.233 387.283 505.594C387.189 505.954 387.054 506.244 386.878 506.464C386.703 506.684 386.49 506.843 386.241 506.943C385.995 507.04 385.717 507.088 385.406 507.088C385.16 507.088 384.933 507.057 384.725 506.996C384.517 506.934 384.33 506.836 384.163 506.701C383.999 506.563 383.858 506.385 383.741 506.165C383.624 505.945 383.534 505.679 383.473 505.365C383.411 505.052 383.38 504.686 383.38 504.267V503.291C383.38 502.767 383.427 502.327 383.521 501.973C383.618 501.618 383.754 501.334 383.93 501.12C384.105 500.903 384.316 500.748 384.562 500.654C384.812 500.561 385.09 500.514 385.397 500.514C385.646 500.514 385.875 500.544 386.083 500.606C386.294 500.665 386.481 500.76 386.646 500.892C386.81 501.021 386.949 501.193 387.063 501.41C387.18 501.624 387.27 501.886 387.331 502.197C387.393 502.507 387.423 502.872 387.423 503.291ZM386.606 504.398V503.155C386.606 502.868 386.588 502.616 386.553 502.399C386.521 502.179 386.473 501.992 386.408 501.836C386.344 501.681 386.262 501.555 386.162 501.458C386.065 501.362 385.953 501.292 385.824 501.248C385.698 501.201 385.556 501.177 385.397 501.177C385.204 501.177 385.033 501.214 384.883 501.287C384.734 501.357 384.608 501.47 384.505 501.625C384.406 501.781 384.33 501.984 384.277 502.236C384.224 502.488 384.198 502.794 384.198 503.155V504.398C384.198 504.686 384.214 504.939 384.246 505.159C384.281 505.378 384.333 505.569 384.4 505.73C384.467 505.888 384.549 506.019 384.646 506.121C384.743 506.224 384.854 506.3 384.98 506.35C385.109 506.396 385.251 506.42 385.406 506.42C385.605 506.42 385.78 506.382 385.929 506.306C386.079 506.229 386.203 506.111 386.303 505.95C386.405 505.786 386.481 505.576 386.531 505.321C386.581 505.063 386.606 504.756 386.606 504.398ZM391.141 500.566V507H390.328V501.582L388.689 502.179V501.445L391.014 500.566H391.141Z" fill="white"/>
<defs>
<linearGradient id="paint0_linear_380_8" x1="313.5" y1="27" x2="313.5" y2="47" gradientUnits="userSpaceOnUse">
<stop stop-color="#7BB6FE"/>
<stop offset="1" stop-color="#1473E6"/>
</linearGradient>
<linearGradient id="paint1_linear_380_8" x1="316.5" y1="47" x2="316.5" y2="87" gradientUnits="userSpaceOnUse">
<stop stop-color="#7BB6FE"/>
<stop offset="1" stop-color="#1473E6"/>
</linearGradient>
<linearGradient id="paint2_linear_380_8" x1="313.5" y1="87" x2="313.5" y2="146" gradientUnits="userSpaceOnUse">
<stop stop-color="#7BB6FE"/>
<stop offset="1" stop-color="#1473E6"/>
</linearGradient>
<linearGradient id="paint3_linear_380_8" x1="313.5" y1="146" x2="313.5" y2="226" gradientUnits="userSpaceOnUse">
<stop stop-color="#7BB6FE"/>
<stop offset="1" stop-color="#1473E6"/>
</linearGradient>
<linearGradient id="paint4_linear_380_8" x1="27" y1="494.5" x2="32" y2="494.5" gradientUnits="userSpaceOnUse">
<stop stop-color="#7FAFE9"/>
<stop offset="1" stop-color="#1473E6"/>
</linearGradient>
<linearGradient id="paint5_linear_380_8" x1="32" y1="499.5" x2="37" y2="499.5" gradientUnits="userSpaceOnUse">
<stop stop-color="#7FAFE9"/>
<stop offset="1" stop-color="#1473E6"/>
</linearGradient>
<linearGradient id="paint6_linear_380_8" x1="27" y1="504.5" x2="32" y2="504.5" gradientUnits="userSpaceOnUse">
<stop stop-color="#7FAFE9"/>
<stop offset="1" stop-color="#1473E6"/>
</linearGradient>
<linearGradient id="paint7_linear_380_8" x1="37" y1="494.5" x2="42" y2="494.5" gradientUnits="userSpaceOnUse">
<stop stop-color="#7FAFE9"/>
<stop offset="1" stop-color="#1473E6"/>
</linearGradient>
<linearGradient id="paint8_linear_380_8" x1="42" y1="499.5" x2="47" y2="499.5" gradientUnits="userSpaceOnUse">
<stop stop-color="#7FAFE9"/>
<stop offset="1" stop-color="#1473E6"/>
</linearGradient>
<linearGradient id="paint9_linear_380_8" x1="37" y1="504.5" x2="42" y2="504.5" gradientUnits="userSpaceOnUse">
<stop stop-color="#7FAFE9"/>
<stop offset="1" stop-color="#1473E6"/>
</linearGradient>
<linearGradient id="paint10_linear_380_8" x1="47" y1="494.5" x2="52" y2="494.5" gradientUnits="userSpaceOnUse">
<stop stop-color="#7FAFE9"/>
<stop offset="1" stop-color="#1473E6"/>
</linearGradient>
<linearGradient id="paint11_linear_380_8" x1="52" y1="499.5" x2="57" y2="499.5" gradientUnits="userSpaceOnUse">
<stop stop-color="#7FAFE9"/>
<stop offset="1" stop-color="#1473E6"/>
</linearGradient>
<linearGradient id="paint12_linear_380_8" x1="47" y1="504.5" x2="52" y2="504.5" gradientUnits="userSpaceOnUse">
<stop stop-color="#7FAFE9"/>
<stop offset="1" stop-color="#1473E6"/>
</linearGradient>
<linearGradient id="paint13_linear_380_8" x1="57" y1="494.5" x2="62" y2="494.5" gradientUnits="userSpaceOnUse">
<stop stop-color="#7FAFE9"/>
<stop offset="1" stop-color="#1473E6"/>
</linearGradient>
<linearGradient id="paint14_linear_380_8" x1="62" y1="499.5" x2="67" y2="499.5" gradientUnits="userSpaceOnUse">
<stop stop-color="#7FAFE9"/>
<stop offset="1" stop-color="#1473E6"/>
</linearGradient>
<linearGradient id="paint15_linear_380_8" x1="57" y1="504.5" x2="62" y2="504.5" gradientUnits="userSpaceOnUse">
<stop stop-color="#7FAFE9"/>
<stop offset="1" stop-color="#1473E6"/>
</linearGradient>
<linearGradient id="paint16_linear_380_8" x1="67" y1="494.5" x2="72" y2="494.5" gradientUnits="userSpaceOnUse">
<stop stop-color="#7FAFE9"/>
<stop offset="1" stop-color="#1473E6"/>
</linearGradient>
<linearGradient id="paint17_linear_380_8" x1="72" y1="499.5" x2="77" y2="499.5" gradientUnits="userSpaceOnUse">
<stop stop-color="#7FAFE9"/>
<stop offset="1" stop-color="#1473E6"/>
</linearGradient>
<linearGradient id="paint18_linear_380_8" x1="67" y1="504.5" x2="72" y2="504.5" gradientUnits="userSpaceOnUse">
<stop stop-color="#7FAFE9"/>
<stop offset="1" stop-color="#1473E6"/>
</linearGradient>
<linearGradient id="paint19_linear_380_8" x1="77" y1="494.5" x2="82" y2="494.5" gradientUnits="userSpaceOnUse">
<stop stop-color="#7FAFE9"/>
<stop offset="1" stop-color="#1473E6"/>
</linearGradient>
<linearGradient id="paint20_linear_380_8" x1="82" y1="499.5" x2="87" y2="499.5" gradientUnits="userSpaceOnUse">
<stop stop-color="#7FAFE9"/>
<stop offset="1" stop-color="#1473E6"/>
</linearGradient>
<linearGradient id="paint21_linear_380_8" x1="77" y1="504.5" x2="82" y2="504.5" gradientUnits="userSpaceOnUse">
<stop stop-color="#7FAFE9"/>
<stop offset="1" stop-color="#1473E6"/>
</linearGradient>
<linearGradient id="paint22_linear_380_8" x1="87" y1="494.5" x2="92" y2="494.5" gradientUnits="userSpaceOnUse">
<stop stop-color="#7FAFE9"/>
<stop offset="1" stop-color="#1473E6"/>
</linearGradient>
<linearGradient id="paint23_linear_380_8" x1="92" y1="499.5" x2="97" y2="499.5" gradientUnits="userSpaceOnUse">
<stop stop-color="#7FAFE9"/>
<stop offset="1" stop-color="#1473E6"/>
</linearGradient>
<linearGradient id="paint24_linear_380_8" x1="87" y1="504.5" x2="92" y2="504.5" gradientUnits="userSpaceOnUse">
<stop stop-color="#7FAFE9"/>
<stop offset="1" stop-color="#1473E6"/>
</linearGradient>
<linearGradient id="paint25_linear_380_8" x1="97" y1="494.5" x2="102" y2="494.5" gradientUnits="userSpaceOnUse">
<stop stop-color="#7FAFE9"/>
<stop offset="1" stop-color="#1473E6"/>
</linearGradient>
<linearGradient id="paint26_linear_380_8" x1="102" y1="499.5" x2="107" y2="499.5" gradientUnits="userSpaceOnUse">
<stop stop-color="#7FAFE9"/>
<stop offset="1" stop-color="#1473E6"/>
</linearGradient>
<linearGradient id="paint27_linear_380_8" x1="97" y1="504.5" x2="102" y2="504.5" gradientUnits="userSpaceOnUse">
<stop stop-color="#7FAFE9"/>
<stop offset="1" stop-color="#1473E6"/>
</linearGradient>
<linearGradient id="paint28_linear_380_8" x1="107" y1="494.5" x2="112" y2="494.5" gradientUnits="userSpaceOnUse">
<stop stop-color="#7FAFE9"/>
<stop offset="1" stop-color="#1473E6"/>
</linearGradient>
<linearGradient id="paint29_linear_380_8" x1="112" y1="499.5" x2="117" y2="499.5" gradientUnits="userSpaceOnUse">
<stop stop-color="#7FAFE9"/>
<stop offset="1" stop-color="#1473E6"/>
</linearGradient>
<linearGradient id="paint30_linear_380_8" x1="107" y1="504.5" x2="112" y2="504.5" gradientUnits="userSpaceOnUse">
<stop stop-color="#7FAFE9"/>
<stop offset="1" stop-color="#1473E6"/>
</linearGradient>
<linearGradient id="paint31_linear_380_8" x1="117" y1="494.5" x2="122" y2="494.5" gradientUnits="userSpaceOnUse">
<stop stop-color="#7FAFE9"/>
<stop offset="1" stop-color="#1473E6"/>
</linearGradient>
<linearGradient id="paint32_linear_380_8" x1="122" y1="499.5" x2="127" y2="499.5" gradientUnits="userSpaceOnUse">
<stop stop-color="#7FAFE9"/>
<stop offset="1" stop-color="#1473E6"/>
</linearGradient>
<linearGradient id="paint33_linear_380_8" x1="117" y1="504.5" x2="122" y2="504.5" gradientUnits="userSpaceOnUse">
<stop stop-color="#7FAFE9"/>
<stop offset="1" stop-color="#1473E6"/>
</linearGradient>
<linearGradient id="paint34_linear_380_8" x1="127" y1="494.5" x2="132" y2="494.5" gradientUnits="userSpaceOnUse">
<stop stop-color="#7FAFE9"/>
<stop offset="1" stop-color="#1473E6"/>
</linearGradient>
<linearGradient id="paint35_linear_380_8" x1="132" y1="499.5" x2="137" y2="499.5" gradientUnits="userSpaceOnUse">
<stop stop-color="#7FAFE9"/>
<stop offset="1" stop-color="#1473E6"/>
</linearGradient>
<linearGradient id="paint36_linear_380_8" x1="127" y1="504.5" x2="132" y2="504.5" gradientUnits="userSpaceOnUse">
<stop stop-color="#7FAFE9"/>
<stop offset="1" stop-color="#1473E6"/>
</linearGradient>
<linearGradient id="paint37_linear_380_8" x1="137" y1="494.5" x2="142" y2="494.5" gradientUnits="userSpaceOnUse">
<stop stop-color="#7FAFE9"/>
<stop offset="1" stop-color="#1473E6"/>
</linearGradient>
<linearGradient id="paint38_linear_380_8" x1="142" y1="499.5" x2="147" y2="499.5" gradientUnits="userSpaceOnUse">
<stop stop-color="#7FAFE9"/>
<stop offset="1" stop-color="#1473E6"/>
</linearGradient>
<linearGradient id="paint39_linear_380_8" x1="137" y1="504.5" x2="142" y2="504.5" gradientUnits="userSpaceOnUse">
<stop stop-color="#7FAFE9"/>
<stop offset="1" stop-color="#1473E6"/>
</linearGradient>
<linearGradient id="paint40_linear_380_8" x1="147" y1="494.5" x2="152" y2="494.5" gradientUnits="userSpaceOnUse">
<stop stop-color="#7FAFE9"/>
<stop offset="1" stop-color="#1473E6"/>
</linearGradient>
<linearGradient id="paint41_linear_380_8" x1="152" y1="499.5" x2="157" y2="499.5" gradientUnits="userSpaceOnUse">
<stop stop-color="#7FAFE9"/>
<stop offset="1" stop-color="#1473E6"/>
</linearGradient>
<linearGradient id="paint42_linear_380_8" x1="147" y1="504.5" x2="152" y2="504.5" gradientUnits="userSpaceOnUse">
<stop stop-color="#7FAFE9"/>
<stop offset="1" stop-color="#1473E6"/>
</linearGradient>
<linearGradient id="paint43_linear_380_8" x1="157" y1="494.5" x2="162" y2="494.5" gradientUnits="userSpaceOnUse">
<stop stop-color="#7FAFE9"/>
<stop offset="1" stop-color="#1473E6"/>
</linearGradient>
<linearGradient id="paint44_linear_380_8" x1="162" y1="499.5" x2="167" y2="499.5" gradientUnits="userSpaceOnUse">
<stop stop-color="#7FAFE9"/>
<stop offset="1" stop-color="#1473E6"/>
</linearGradient>
<linearGradient id="paint45_linear_380_8" x1="157" y1="504.5" x2="162" y2="504.5" gradientUnits="userSpaceOnUse">
<stop stop-color="#7FAFE9"/>
<stop offset="1" stop-color="#1473E6"/>
</linearGradient>
<linearGradient id="paint46_linear_380_8" x1="167" y1="494.5" x2="172" y2="494.5" gradientUnits="userSpaceOnUse">
<stop stop-color="#7FAFE9"/>
<stop offset="1" stop-color="#1473E6"/>
</linearGradient>
<linearGradient id="paint47_linear_380_8" x1="172" y1="499.5" x2="177" y2="499.5" gradientUnits="userSpaceOnUse">
<stop stop-color="#7FAFE9"/>
<stop offset="1" stop-color="#1473E6"/>
</linearGradient>
<linearGradient id="paint48_linear_380_8" x1="167" y1="504.5" x2="172" y2="504.5" gradientUnits="userSpaceOnUse">
<stop stop-color="#7FAFE9"/>
<stop offset="1" stop-color="#1473E6"/>
</linearGradient>
<linearGradient id="paint49_linear_380_8" x1="177" y1="494.5" x2="182" y2="494.5" gradientUnits="userSpaceOnUse">
<stop stop-color="#7FAFE9"/>
<stop offset="1" stop-color="#1473E6"/>
</linearGradient>
<linearGradient id="paint50_linear_380_8" x1="182" y1="499.5" x2="187" y2="499.5" gradientUnits="userSpaceOnUse">
<stop stop-color="#7FAFE9"/>
<stop offset="1" stop-color="#1473E6"/>
</linearGradient>
<linearGradient id="paint51_linear_380_8" x1="177" y1="504.5" x2="182" y2="504.5" gradientUnits="userSpaceOnUse">
<stop stop-color="#7FAFE9"/>
<stop offset="1" stop-color="#1473E6"/>
</linearGradient>
<linearGradient id="paint52_linear_380_8" x1="187" y1="494.5" x2="192" y2="494.5" gradientUnits="userSpaceOnUse">
<stop stop-color="#7FAFE9"/>
<stop offset="1" stop-color="#1473E6"/>
</linearGradient>
<linearGradient id="paint53_linear_380_8" x1="192" y1="499.5" x2="197" y2="499.5" gradientUnits="userSpaceOnUse">
<stop stop-color="#7FAFE9"/>
<stop offset="1" stop-color="#1473E6"/>
</linearGradient>
<linearGradient id="paint54_linear_380_8" x1="187" y1="504.5" x2="192" y2="504.5" gradientUnits="userSpaceOnUse">
<stop stop-color="#7FAFE9"/>
<stop offset="1" stop-color="#1473E6"/>
</linearGradient>
<linearGradient id="paint55_linear_380_8" x1="197" y1="494.5" x2="202" y2="494.5" gradientUnits="userSpaceOnUse">
<stop stop-color="#7FAFE9"/>
<stop offset="1" stop-color="#1473E6"/>
</linearGradient>
<linearGradient id="paint56_linear_380_8" x1="202" y1="499.5" x2="207" y2="499.5" gradientUnits="userSpaceOnUse">
<stop stop-color="#7FAFE9"/>
<stop offset="1" stop-color="#1473E6"/>
</linearGradient>
<linearGradient id="paint57_linear_380_8" x1="197" y1="504.5" x2="202" y2="504.5" gradientUnits="userSpaceOnUse">
<stop stop-color="#7FAFE9"/>
<stop offset="1" stop-color="#1473E6"/>
</linearGradient>
<linearGradient id="paint58_linear_380_8" x1="207" y1="494.5" x2="212" y2="494.5" gradientUnits="userSpaceOnUse">
<stop stop-color="#7FAFE9"/>
<stop offset="1" stop-color="#1473E6"/>
</linearGradient>
<linearGradient id="paint59_linear_380_8" x1="212" y1="499.5" x2="217" y2="499.5" gradientUnits="userSpaceOnUse">
<stop stop-color="#7FAFE9"/>
<stop offset="1" stop-color="#1473E6"/>
</linearGradient>
<linearGradient id="paint60_linear_380_8" x1="207" y1="504.5" x2="212" y2="504.5" gradientUnits="userSpaceOnUse">
<stop stop-color="#7FAFE9"/>
<stop offset="1" stop-color="#1473E6"/>
</linearGradient>
<linearGradient id="paint61_linear_380_8" x1="217" y1="494.5" x2="222" y2="494.5" gradientUnits="userSpaceOnUse">
<stop stop-color="#7FAFE9"/>
<stop offset="1" stop-color="#1473E6"/>
</linearGradient>
<linearGradient id="paint62_linear_380_8" x1="222" y1="499.5" x2="227" y2="499.5" gradientUnits="userSpaceOnUse">
<stop stop-color="#7FAFE9"/>
<stop offset="1" stop-color="#1473E6"/>
</linearGradient>
<linearGradient id="paint63_linear_380_8" x1="217" y1="504.5" x2="222" y2="504.5" gradientUnits="userSpaceOnUse">
<stop stop-color="#7FAFE9"/>
<stop offset="1" stop-color="#1473E6"/>
</linearGradient>
<linearGradient id="paint64_linear_380_8" x1="227" y1="494.5" x2="232" y2="494.5" gradientUnits="userSpaceOnUse">
<stop stop-color="#7FAFE9"/>
<stop offset="1" stop-color="#1473E6"/>
</linearGradient>
<linearGradient id="paint65_linear_380_8" x1="232" y1="499.5" x2="237" y2="499.5" gradientUnits="userSpaceOnUse">
<stop stop-color="#7FAFE9"/>
<stop offset="1" stop-color="#1473E6"/>
</linearGradient>
<linearGradient id="paint66_linear_380_8" x1="227" y1="504.5" x2="232" y2="504.5" gradientUnits="userSpaceOnUse">
<stop stop-color="#7FAFE9"/>
<stop offset="1" stop-color="#1473E6"/>
</linearGradient>
<linearGradient id="paint67_linear_380_8" x1="237" y1="494.5" x2="242" y2="494.5" gradientUnits="userSpaceOnUse">
<stop stop-color="#7FAFE9"/>
<stop offset="1" stop-color="#1473E6"/>
</linearGradient>
<linearGradient id="paint68_linear_380_8" x1="242" y1="499.5" x2="247" y2="499.5" gradientUnits="userSpaceOnUse">
<stop stop-color="#7FAFE9"/>
<stop offset="1" stop-color="#1473E6"/>
</linearGradient>
<linearGradient id="paint69_linear_380_8" x1="237" y1="504.5" x2="242" y2="504.5" gradientUnits="userSpaceOnUse">
<stop stop-color="#7FAFE9"/>
<stop offset="1" stop-color="#1473E6"/>
</linearGradient>
<linearGradient id="paint70_linear_380_8" x1="247" y1="494.5" x2="252" y2="494.5" gradientUnits="userSpaceOnUse">
<stop stop-color="#7FAFE9"/>
<stop offset="1" stop-color="#1473E6"/>
</linearGradient>
<linearGradient id="paint71_linear_380_8" x1="252" y1="499.5" x2="257" y2="499.5" gradientUnits="userSpaceOnUse">
<stop stop-color="#7FAFE9"/>
<stop offset="1" stop-color="#1473E6"/>
</linearGradient>
<linearGradient id="paint72_linear_380_8" x1="247" y1="504.5" x2="252" y2="504.5" gradientUnits="userSpaceOnUse">
<stop stop-color="#7FAFE9"/>
<stop offset="1" stop-color="#1473E6"/>
</linearGradient>
<linearGradient id="paint73_linear_380_8" x1="257" y1="494.5" x2="262" y2="494.5" gradientUnits="userSpaceOnUse">
<stop stop-color="#7FAFE9"/>
<stop offset="1" stop-color="#1473E6"/>
</linearGradient>
<linearGradient id="paint74_linear_380_8" x1="262" y1="499.5" x2="267" y2="499.5" gradientUnits="userSpaceOnUse">
<stop stop-color="#7FAFE9"/>
<stop offset="1" stop-color="#1473E6"/>
</linearGradient>
<linearGradient id="paint75_linear_380_8" x1="257" y1="504.5" x2="262" y2="504.5" gradientUnits="userSpaceOnUse">
<stop stop-color="#7FAFE9"/>
<stop offset="1" stop-color="#1473E6"/>
</linearGradient>
<linearGradient id="paint76_linear_380_8" x1="267" y1="494.5" x2="272" y2="494.5" gradientUnits="userSpaceOnUse">
<stop stop-color="#7FAFE9"/>
<stop offset="1" stop-color="#1473E6"/>
</linearGradient>
<linearGradient id="paint77_linear_380_8" x1="272" y1="499.5" x2="277" y2="499.5" gradientUnits="userSpaceOnUse">
<stop stop-color="#7FAFE9"/>
<stop offset="1" stop-color="#1473E6"/>
</linearGradient>
<linearGradient id="paint78_linear_380_8" x1="22" y1="499.5" x2="27" y2="499.5" gradientUnits="userSpaceOnUse">
<stop stop-color="#7FAFE9"/>
<stop offset="1" stop-color="#1473E6"/>
</linearGradient>
<linearGradient id="paint79_linear_380_8" x1="267" y1="504.5" x2="272" y2="504.5" gradientUnits="userSpaceOnUse">
<stop stop-color="#7FAFE9"/>
<stop offset="1" stop-color="#1473E6"/>
</linearGradient>
</defs>
</svg>
