<svg width="714" height="524" viewBox="0 0 714 524" fill="none" xmlns="http://www.w3.org/2000/svg">
<path d="M50.56 126L30.848 73.008V126H8.96V34.096H37.504L60.672 96.432L83.712 34.096H112.256V126H90.368V72.368L70.528 126H50.56ZM190.114 126L184.482 108.976H152.226L146.466 126H122.018L156.066 34.096H182.562L216.226 126H190.114ZM168.61 60.72L158.754 89.904H178.21L168.61 60.72ZM263.647 126H239.455V55.984H211.295V34.096H291.807V55.984H263.647V126ZM350.522 126H326.33V55.984H298.17V34.096H378.682V55.984H350.522V126ZM413.777 126H389.585V34.096H413.777V68.272H447.697V34.096H471.889V126H447.697V89.264H413.777V126ZM554.859 105.008V126H489.835V34.096H553.963V55.088H514.027V68.272H550.251V89.264H514.027V105.008H554.859ZM638.214 126L623.238 68.784L608.262 126H583.814L560.518 34.096H584.198L596.614 88.88L611.206 34.096H635.654L649.734 89.136L662.278 34.096H685.958L662.534 126H638.214ZM51.328 281.92C24.576 281.92 3.584 262.208 3.584 233.536C3.584 206.4 23.552 186.176 50.56 186.176C73.6 186.176 90.624 199.488 97.024 220.096H68.352C66.048 213.056 59.264 207.808 49.92 207.808C38.016 207.808 28.416 216.128 28.416 234.176C28.416 249.536 35.968 261.44 52.608 261.44C63.104 261.44 69.632 255.552 72.32 247.872H50.176V228.8H98.176C100.096 259.136 81.792 281.92 51.328 281.92ZM165.614 280L159.982 262.976H127.726L121.966 280H97.518L131.566 188.096H158.062L191.726 280H165.614ZM144.11 214.72L134.254 243.904H153.71L144.11 214.72ZM260.212 280L223.604 222.656V280H201.46V188.096H227.444L261.364 241.216V188.096H283.508V280H260.212ZM361.364 280L355.732 262.976H323.476L317.716 280H293.268L327.316 188.096H353.812L387.476 280H361.364ZM339.86 214.72L330.004 243.904H349.46L339.86 214.72ZM433.05 280H397.21V188.096H433.05C462.106 188.096 480.41 206.784 480.41 233.536C480.41 260.288 461.466 280 433.05 280ZM421.402 208.96V259.136H431.642C447.642 259.136 455.578 250.816 455.578 233.536C455.578 217.28 447.386 208.96 431.642 208.96H421.402ZM557.984 259.008V280H492.96V188.096H557.088V209.088H517.152V222.272H553.376V243.264H517.152V259.008H557.984ZM630.587 280L593.979 222.656V280H571.835V188.096H597.819L631.739 241.216V188.096H653.883V280H630.587Z" fill="white"/>
<path d="M6.24 350H3.24V321.28H6.24V350ZM23.6916 350H20.8916V321.28H23.6916V350ZM33.3988 324.04C33.3988 325.28 32.4788 326.16 31.1188 326.16C29.7988 326.16 28.8788 325.28 28.8788 324.04C28.8788 322.84 29.7988 321.96 31.1188 321.96C32.4788 321.96 33.3988 322.84 33.3988 324.04ZM32.5588 350H29.7588V328.92H32.5588V350ZM41.4259 350H38.6259V321.28H41.4259V338.72L51.5859 328.92H54.9059L44.2659 339.24L55.7859 350H52.1459L41.4259 339.88V350ZM66.4372 350.4C60.5172 350.4 56.5972 345.96 56.5972 339.28C56.5972 333.12 60.6772 328.52 66.2772 328.52C72.2772 328.52 76.1972 333.36 75.7172 340.12H59.3972C59.6372 345.12 62.2772 348.2 66.3972 348.2C69.9172 348.2 72.3572 346.24 73.0372 342.88H75.7972C74.8372 347.56 71.2772 350.4 66.4372 350.4ZM66.2372 330.68C62.4372 330.68 59.7572 333.6 59.3972 338.2H72.7972C72.5572 333.48 70.1172 330.68 66.2372 330.68ZM99.5441 347.32V349.8C98.4641 350.24 97.5441 350.4 96.5041 350.4C93.0241 350.4 90.3441 348.6 90.3441 344.04V331.28H85.3841V328.92H90.3441V322.68H93.1441V328.92H99.7441V331.28H93.1441V343.44C93.1441 346.72 94.7441 347.84 97.0641 347.84C97.9441 347.84 98.6641 347.68 99.5441 347.32ZM111.753 350.4C105.953 350.4 101.753 345.8 101.753 339.44C101.753 333.12 105.953 328.56 111.753 328.56C117.593 328.56 121.793 333.12 121.793 339.44C121.793 345.8 117.593 350.4 111.753 350.4ZM111.753 347.96C115.873 347.96 118.953 344.68 118.953 339.44C118.953 334.28 115.873 331 111.753 331C107.673 331 104.593 334.28 104.593 339.44C104.593 344.68 107.673 347.96 111.753 347.96ZM142.561 350.44C137.001 350.44 133.121 345.92 133.121 339.44C133.121 333.04 137.041 328.52 142.561 328.52C147.481 328.52 151.001 331.8 151.841 337.08H149.001C148.361 333.24 145.961 330.96 142.561 330.96C138.641 330.96 135.961 334.4 135.961 339.44C135.961 344.56 138.641 348 142.561 348C146.001 348 148.361 345.76 149.001 341.84H151.841C151.081 347.2 147.521 350.44 142.561 350.44ZM159.16 337.72V350H156.36V321.28H159.16V332.8C160.48 330.28 162.88 328.52 165.92 328.52C170.32 328.52 173.16 331.32 173.16 336.32V350H170.36V337.28C170.36 333.24 168.52 330.96 165.08 330.96C161.8 330.96 159.16 333.8 159.16 337.72ZM192.016 350V346.16C190.776 348.8 188.216 350.4 184.936 350.4C180.576 350.4 177.736 347.96 177.736 344.16C177.736 340.04 181.016 337.88 187.416 337.88C188.696 337.88 189.656 337.96 191.736 338.12V336.36C191.736 332.84 189.856 330.76 186.656 330.76C183.216 330.76 181.056 332.88 181.016 336.32H178.456C178.576 331.64 181.816 328.52 186.616 328.52C191.536 328.52 194.416 331.4 194.416 336.28V350H192.016ZM180.416 344.08C180.416 346.64 182.376 348.36 185.336 348.36C189.256 348.36 191.736 345.8 191.736 341.84V339.96C189.936 339.8 188.696 339.76 187.536 339.76C182.736 339.76 180.416 341.16 180.416 344.08ZM203.106 350H200.306V321.28H203.106V350ZM211.973 350H209.173V321.28H211.973V350ZM226.32 350.4C220.4 350.4 216.48 345.96 216.48 339.28C216.48 333.12 220.56 328.52 226.16 328.52C232.16 328.52 236.08 333.36 235.6 340.12H219.28C219.52 345.12 222.16 348.2 226.28 348.2C229.8 348.2 232.24 346.24 232.92 342.88H235.68C234.72 347.56 231.16 350.4 226.32 350.4ZM226.12 330.68C222.32 330.68 219.64 333.6 219.28 338.2H232.68C232.44 333.48 230 330.68 226.12 330.68ZM243.028 337.72V350H240.228V328.92H242.828V332.88C244.188 330.28 246.748 328.52 249.788 328.52C254.188 328.52 257.028 331.32 257.028 336.32V350H254.228V337.28C254.228 333.24 252.388 330.96 248.947 330.96C245.668 330.96 243.028 333.8 243.028 337.72ZM270.883 358.16C265.523 358.16 262.163 355.36 261.923 350.64H264.603C264.843 354.08 267.083 355.92 270.843 355.92C275.003 355.92 277.203 353.72 277.203 349.56V345.16C275.923 348.12 273.363 349.84 270.243 349.84C264.923 349.84 261.363 345.56 261.363 339.16C261.363 332.76 264.883 328.52 270.203 328.52C273.363 328.52 276.003 330.32 277.363 333.4V328.92H279.963V349.52C279.963 354.96 276.643 358.16 270.883 358.16ZM264.163 339.16C264.163 344.32 266.603 347.44 270.643 347.44C274.603 347.44 277.243 344.24 277.243 339.36C277.243 334.2 274.643 330.92 270.643 330.92C266.643 330.92 264.163 334.04 264.163 339.16ZM294.328 350.4C288.408 350.4 284.488 345.96 284.488 339.28C284.488 333.12 288.568 328.52 294.168 328.52C300.168 328.52 304.088 333.36 303.608 340.12H287.288C287.528 345.12 290.168 348.2 294.288 348.2C297.808 348.2 300.248 346.24 300.928 342.88H303.688C302.728 347.56 299.168 350.4 294.328 350.4ZM294.128 330.68C290.328 330.68 287.648 333.6 287.288 338.2H300.688C300.448 333.48 298.008 330.68 294.128 330.68ZM319.395 350H316.595V328.92H319.195V332.88C320.595 330.16 323.075 328.52 326.075 328.52C329.355 328.52 331.795 330.32 332.675 333.4C333.995 330.44 336.635 328.52 339.955 328.52C344.315 328.52 347.035 331.4 347.035 336.32V350H344.275V337.24C344.275 333.24 342.435 330.96 339.035 330.96C335.835 330.96 333.235 333.76 333.235 337.64V350H330.435V337.24C330.435 333.24 328.595 330.96 325.195 330.96C321.955 330.96 319.395 333.76 319.395 337.64V350ZM368.382 328.92L357.582 357.72H354.582L357.662 349.72L349.302 328.92H352.302L359.102 346.36L365.542 328.92H368.382ZM386.964 344.12C386.964 348 383.844 350.4 378.644 350.4C373.404 350.4 370.204 347.76 369.804 343.4H372.484C372.684 346.4 375.044 348.28 378.644 348.28C382.084 348.28 384.164 346.96 384.164 344.56C384.164 342.48 382.964 341.52 379.764 340.88L376.724 340.28C372.724 339.52 370.604 337.56 370.604 334.52C370.604 331 373.724 328.52 378.324 328.52C383.164 328.52 386.364 331.12 386.684 335.32H384.044C383.764 332.4 381.644 330.68 378.324 330.68C375.364 330.68 373.324 332.08 373.324 334.28C373.324 336.36 374.604 337.36 377.724 337.96L380.884 338.56C385.084 339.36 386.964 341.12 386.964 344.12ZM400.109 350.4C394.189 350.4 390.269 345.96 390.269 339.28C390.269 333.12 394.349 328.52 399.949 328.52C405.949 328.52 409.869 333.36 409.389 340.12H393.069C393.309 345.12 395.949 348.2 400.069 348.2C403.589 348.2 406.029 346.24 406.709 342.88H409.469C408.509 347.56 404.949 350.4 400.109 350.4ZM399.909 330.68C396.109 330.68 393.429 333.6 393.069 338.2H406.469C406.229 333.48 403.789 330.68 399.909 330.68ZM416.817 350H414.017V321.28H416.817V350ZM427.524 350H424.724V331.28H419.764V328.92H424.724V327C424.724 323.12 426.844 320.96 430.524 320.96C431.484 320.96 432.324 321.12 433.044 321.4V323.72C432.364 323.44 431.724 323.4 431.004 323.4C428.764 323.4 427.524 324.52 427.524 327V328.92H433.724V331.28H427.524V350ZM456.146 347.32V349.8C455.066 350.24 454.146 350.4 453.106 350.4C449.626 350.4 446.946 348.6 446.946 344.04V331.28H441.986V328.92H446.946V322.68H449.746V328.92H456.346V331.28H449.746V343.44C449.746 346.72 451.346 347.84 453.666 347.84C454.546 347.84 455.266 347.68 456.146 347.32ZM463.379 337.72V350H460.579V321.28H463.379V332.8C464.699 330.28 467.099 328.52 470.139 328.52C474.539 328.52 477.379 331.32 477.379 336.32V350H474.579V337.28C474.579 333.24 472.739 330.96 469.299 330.96C466.019 330.96 463.379 333.8 463.379 337.72ZM486.074 338.72V350H483.274V328.92H485.874V333.72C487.314 330.6 490.434 328.6 493.914 328.6V331.52C489.474 331.36 486.074 334.12 486.074 338.72ZM505.738 350.4C499.938 350.4 495.738 345.8 495.738 339.44C495.738 333.12 499.938 328.56 505.738 328.56C511.578 328.56 515.778 333.12 515.778 339.44C515.778 345.8 511.578 350.4 505.738 350.4ZM505.738 347.96C509.858 347.96 512.938 344.68 512.938 339.44C512.938 334.28 509.858 331 505.738 331C501.658 331 498.578 334.28 498.578 339.44C498.578 344.68 501.658 347.96 505.738 347.96ZM533.786 341.48V328.92H536.546V350H533.946V346.2C532.866 348.64 530.306 350.4 527.226 350.4C522.946 350.4 520.106 347.96 520.106 342.64V328.92H522.906V342.04C522.906 346.32 525.026 347.96 527.986 347.96C531.346 347.96 533.786 345.24 533.786 341.48ZM550.57 358.16C545.21 358.16 541.85 355.36 541.61 350.64H544.29C544.53 354.08 546.77 355.92 550.53 355.92C554.69 355.92 556.89 353.72 556.89 349.56V345.16C555.61 348.12 553.05 349.84 549.93 349.84C544.61 349.84 541.05 345.56 541.05 339.16C541.05 332.76 544.57 328.52 549.89 328.52C553.05 328.52 555.69 330.32 557.05 333.4V328.92H559.65V349.52C559.65 354.96 556.33 358.16 550.57 358.16ZM543.85 339.16C543.85 344.32 546.29 347.44 550.33 347.44C554.29 347.44 556.93 344.24 556.93 339.36C556.93 334.2 554.33 330.92 550.33 330.92C546.33 330.92 543.85 334.04 543.85 339.16ZM568.535 337.72V350H565.735V321.28H568.535V332.8C569.855 330.28 572.255 328.52 575.295 328.52C579.695 328.52 582.535 331.32 582.535 336.32V350H579.735V337.28C579.735 333.24 577.895 330.96 574.455 330.96C571.175 330.96 568.535 333.8 568.535 337.72ZM1.48 393.44C1.48 386.96 5.08 382.52 10.76 382.52C13.92 382.52 16.6 384.32 18 387.32V375.28H20.8V404H18.2V399.56C16.72 402.64 14 404.4 10.76 404.4C5.08 404.4 1.48 399.92 1.48 393.44ZM4.32 393.44C4.32 398.8 7.04 401.96 11.16 401.96C15.24 401.96 18.04 398.64 18.04 393.36C18.04 388.04 15.16 384.96 11.16 384.96C7.04 384.96 4.32 388.08 4.32 393.44ZM35.1481 404.4C29.2281 404.4 25.3081 399.96 25.3081 393.28C25.3081 387.12 29.3881 382.52 34.9881 382.52C40.9881 382.52 44.9081 387.36 44.4281 394.12H28.1081C28.3481 399.12 30.9881 402.2 35.1081 402.2C38.6281 402.2 41.0681 400.24 41.7481 396.88H44.5081C43.5481 401.56 39.9881 404.4 35.1481 404.4ZM34.9481 384.68C31.1481 384.68 28.4681 387.6 28.1081 392.2H41.5081C41.2681 387.48 38.8281 384.68 34.9481 384.68ZM64.6706 382.92L56.5506 404H53.6306L45.5906 382.92H48.5906L55.1906 400.72L61.7906 382.92H64.6706ZM75.5778 404.4C69.6578 404.4 65.7378 399.96 65.7378 393.28C65.7378 387.12 69.8178 382.52 75.4178 382.52C81.4178 382.52 85.3378 387.36 84.8578 394.12H68.5378C68.7778 399.12 71.4178 402.2 75.5378 402.2C79.0578 402.2 81.4978 400.24 82.1778 396.88H84.9378C83.9778 401.56 80.4178 404.4 75.5778 404.4ZM75.3778 384.68C71.5778 384.68 68.8978 387.6 68.5378 392.2H81.9378C81.6978 387.48 79.2578 384.68 75.3778 384.68ZM92.2853 404H89.4853V375.28H92.2853V404ZM106.793 404.4C100.993 404.4 96.7925 399.8 96.7925 393.44C96.7925 387.12 100.993 382.56 106.793 382.56C112.633 382.56 116.833 387.12 116.833 393.44C116.833 399.8 112.633 404.4 106.793 404.4ZM106.793 401.96C110.913 401.96 113.993 398.68 113.993 393.44C113.993 388.28 110.913 385 106.793 385C102.713 385 99.6325 388.28 99.6325 393.44C99.6325 398.68 102.713 401.96 106.793 401.96ZM140.68 393.44C140.68 399.96 137.04 404.4 131.44 404.4C128.28 404.4 125.6 402.68 124.16 399.68V411.72H121.36V382.92H123.96V387.48C125.4 384.36 128.2 382.52 131.44 382.52C137.04 382.52 140.68 387 140.68 393.44ZM137.84 393.44C137.84 388.12 135.08 384.96 130.96 384.96C127.04 384.96 124.12 388.08 124.12 393.44C124.12 398.68 126.96 401.96 130.96 401.96C135.08 401.96 137.84 398.84 137.84 393.44ZM148.828 378.04C148.828 379.28 147.908 380.16 146.548 380.16C145.228 380.16 144.308 379.28 144.308 378.04C144.308 376.84 145.228 375.96 146.548 375.96C147.908 375.96 148.828 376.84 148.828 378.04ZM147.988 404H145.188V382.92H147.988V404ZM156.856 391.72V404H154.056V382.92H156.656V386.88C158.016 384.28 160.576 382.52 163.616 382.52C168.016 382.52 170.856 385.32 170.856 390.32V404H168.056V391.28C168.056 387.24 166.216 384.96 162.776 384.96C159.496 384.96 156.856 387.8 156.856 391.72ZM184.711 412.16C179.351 412.16 175.991 409.36 175.751 404.64H178.431C178.671 408.08 180.911 409.92 184.671 409.92C188.831 409.92 191.031 407.72 191.031 403.56V399.16C189.751 402.12 187.191 403.84 184.071 403.84C178.751 403.84 175.191 399.56 175.191 393.16C175.191 386.76 178.711 382.52 184.031 382.52C187.191 382.52 189.831 384.32 191.191 387.4V382.92H193.791V403.52C193.791 408.96 190.471 412.16 184.711 412.16ZM177.991 393.16C177.991 398.32 180.431 401.44 184.471 401.44C188.431 401.44 191.071 398.24 191.071 393.36C191.071 388.2 188.471 384.92 184.471 384.92C180.471 384.92 177.991 388.04 177.991 393.16ZM225.795 404L220.275 386.64L214.795 404H211.955L205.795 382.92H208.555L213.435 400.04L218.915 382.92H221.675L227.115 400.08L231.995 382.92H234.795L228.595 404H225.795ZM246.281 404.4C240.361 404.4 236.441 399.96 236.441 393.28C236.441 387.12 240.521 382.52 246.121 382.52C252.121 382.52 256.041 387.36 255.561 394.12H239.241C239.481 399.12 242.121 402.2 246.241 402.2C249.761 402.2 252.201 400.24 252.881 396.88H255.641C254.681 401.56 251.121 404.4 246.281 404.4ZM246.081 384.68C242.281 384.68 239.601 387.6 239.241 392.2H252.641C252.401 387.48 249.961 384.68 246.081 384.68ZM279.508 393.44C279.508 399.92 275.868 404.4 270.228 404.4C266.988 404.4 264.268 402.64 262.788 399.56V404H260.188V375.28H262.988V387.36C264.348 384.28 267.028 382.52 270.228 382.52C275.868 382.52 279.508 386.96 279.508 393.44ZM276.668 393.44C276.668 388.08 273.908 384.96 269.788 384.96C265.828 384.96 262.948 388.04 262.948 393.36C262.948 398.64 265.748 401.96 269.788 401.96C273.908 401.96 276.668 398.8 276.668 393.44ZM299.777 398.12C299.777 402 296.657 404.4 291.457 404.4C286.217 404.4 283.017 401.76 282.617 397.4H285.297C285.497 400.4 287.857 402.28 291.457 402.28C294.897 402.28 296.977 400.96 296.977 398.56C296.977 396.48 295.777 395.52 292.577 394.88L289.537 394.28C285.537 393.52 283.417 391.56 283.417 388.52C283.417 385 286.537 382.52 291.137 382.52C295.977 382.52 299.177 385.12 299.497 389.32H296.857C296.577 386.4 294.457 384.68 291.137 384.68C288.177 384.68 286.137 386.08 286.137 388.28C286.137 390.36 287.417 391.36 290.537 391.96L293.697 392.56C297.897 393.36 299.777 395.12 299.777 398.12ZM308.282 378.04C308.282 379.28 307.362 380.16 306.002 380.16C304.682 380.16 303.762 379.28 303.762 378.04C303.762 376.84 304.682 375.96 306.002 375.96C307.362 375.96 308.282 376.84 308.282 378.04ZM307.442 404H304.642V382.92H307.442V404ZM324.349 401.32V403.8C323.269 404.24 322.349 404.4 321.309 404.4C317.829 404.4 315.149 402.6 315.149 398.04V385.28H310.189V382.92H315.149V376.68H317.949V382.92H324.549V385.28H317.949V397.44C317.949 400.72 319.549 401.84 321.869 401.84C322.749 401.84 323.469 401.68 324.349 401.32ZM336.398 404.4C330.478 404.4 326.558 399.96 326.558 393.28C326.558 387.12 330.638 382.52 336.238 382.52C342.238 382.52 346.158 387.36 345.678 394.12H329.358C329.598 399.12 332.238 402.2 336.358 402.2C339.878 402.2 342.318 400.24 342.998 396.88H345.758C344.798 401.56 341.238 404.4 336.398 404.4ZM336.198 384.68C332.398 384.68 329.718 387.6 329.358 392.2H342.758C342.518 387.48 340.078 384.68 336.198 384.68ZM366.066 398.12C366.066 402 362.946 404.4 357.746 404.4C352.506 404.4 349.306 401.76 348.906 397.4H351.586C351.786 400.4 354.146 402.28 357.746 402.28C361.186 402.28 363.266 400.96 363.266 398.56C363.266 396.48 362.066 395.52 358.866 394.88L355.826 394.28C351.826 393.52 349.706 391.56 349.706 388.52C349.706 385 352.826 382.52 357.426 382.52C362.266 382.52 365.466 385.12 365.786 389.32H363.146C362.866 386.4 360.746 384.68 357.426 384.68C354.466 384.68 352.426 386.08 352.426 388.28C352.426 390.36 353.706 391.36 356.826 391.96L359.986 392.56C364.186 393.36 366.066 395.12 366.066 398.12ZM375.571 402.68C375.571 405.64 373.331 408.4 369.491 408.52V406.84C371.771 406.68 373.331 405.28 373.491 403.44C373.171 403.6 372.891 403.64 372.571 403.64C371.291 403.64 370.371 402.64 370.371 401.44C370.371 400.04 371.411 399.12 372.771 399.12C374.651 399.12 375.571 400.56 375.571 402.68ZM397.883 404.4C391.963 404.4 388.043 399.96 388.043 393.28C388.043 387.12 392.123 382.52 397.723 382.52C403.723 382.52 407.643 387.36 407.163 394.12H390.843C391.083 399.12 393.723 402.2 397.843 402.2C401.363 402.2 403.803 400.24 404.483 396.88H407.243C406.283 401.56 402.723 404.4 397.883 404.4ZM397.683 384.68C393.883 384.68 391.203 387.6 390.843 392.2H404.243C404.003 387.48 401.563 384.68 397.683 384.68ZM414.59 391.72V404H411.79V382.92H414.39V386.88C415.75 384.28 418.31 382.52 421.35 382.52C425.75 382.52 428.59 385.32 428.59 390.32V404H425.79V391.28C425.79 387.24 423.95 384.96 420.51 384.96C417.23 384.96 414.59 387.8 414.59 391.72ZM437.285 391.72V404H434.485V375.28H437.285V386.8C438.605 384.28 441.005 382.52 444.045 382.52C448.445 382.52 451.285 385.32 451.285 390.32V404H448.485V391.28C448.485 387.24 446.645 384.96 443.205 384.96C439.925 384.96 437.285 387.8 437.285 391.72ZM470.141 404V400.16C468.901 402.8 466.341 404.4 463.061 404.4C458.701 404.4 455.861 401.96 455.861 398.16C455.861 394.04 459.141 391.88 465.541 391.88C466.821 391.88 467.781 391.96 469.861 392.12V390.36C469.861 386.84 467.981 384.76 464.781 384.76C461.341 384.76 459.181 386.88 459.141 390.32H456.581C456.701 385.64 459.941 382.52 464.741 382.52C469.661 382.52 472.541 385.4 472.541 390.28V404H470.141ZM458.541 398.08C458.541 400.64 460.501 402.36 463.461 402.36C467.381 402.36 469.861 399.8 469.861 395.84V393.96C468.061 393.8 466.821 393.76 465.661 393.76C460.861 393.76 458.541 395.16 458.541 398.08ZM481.231 391.72V404H478.431V382.92H481.031V386.88C482.391 384.28 484.951 382.52 487.991 382.52C492.391 382.52 495.231 385.32 495.231 390.32V404H492.431V391.28C492.431 387.24 490.591 384.96 487.151 384.96C483.871 384.96 481.231 387.8 481.231 391.72ZM509.006 404.44C503.446 404.44 499.566 399.92 499.566 393.44C499.566 387.04 503.486 382.52 509.006 382.52C513.926 382.52 517.446 385.8 518.286 391.08H515.446C514.806 387.24 512.406 384.96 509.006 384.96C505.086 384.96 502.406 388.4 502.406 393.44C502.406 398.56 505.086 402 509.006 402C512.446 402 514.806 399.76 515.446 395.84H518.286C517.526 401.2 513.966 404.44 509.006 404.44ZM526.446 378.04C526.446 379.28 525.526 380.16 524.166 380.16C522.846 380.16 521.926 379.28 521.926 378.04C521.926 376.84 522.846 375.96 524.166 375.96C525.526 375.96 526.446 376.84 526.446 378.04ZM525.606 404H522.806V382.92H525.606V404ZM534.473 391.72V404H531.673V382.92H534.273V386.88C535.633 384.28 538.193 382.52 541.233 382.52C545.633 382.52 548.473 385.32 548.473 390.32V404H545.673V391.28C545.673 387.24 543.833 384.96 540.393 384.96C537.113 384.96 534.473 387.8 534.473 391.72ZM562.328 412.16C556.968 412.16 553.608 409.36 553.368 404.64H556.048C556.288 408.08 558.528 409.92 562.288 409.92C566.448 409.92 568.648 407.72 568.648 403.56V399.16C567.368 402.12 564.808 403.84 561.688 403.84C556.368 403.84 552.808 399.56 552.808 393.16C552.808 386.76 556.328 382.52 561.648 382.52C564.808 382.52 567.448 384.32 568.808 387.4V382.92H571.408V403.52C571.408 408.96 568.088 412.16 562.328 412.16ZM555.608 393.16C555.608 398.32 558.048 401.44 562.088 401.44C566.048 401.44 568.688 398.24 568.688 393.36C568.688 388.2 566.088 384.92 562.088 384.92C558.088 384.92 555.608 388.04 555.608 393.16ZM588.653 404H585.853V382.92H588.453V386.88C589.853 384.16 592.333 382.52 595.333 382.52C598.613 382.52 601.053 384.32 601.933 387.4C603.253 384.44 605.893 382.52 609.213 382.52C613.573 382.52 616.293 385.4 616.293 390.32V404H613.533V391.24C613.533 387.24 611.693 384.96 608.293 384.96C605.093 384.96 602.493 387.76 602.493 391.64V404H599.693V391.24C599.693 387.24 597.853 384.96 594.453 384.96C591.213 384.96 588.653 387.76 588.653 391.64V404ZM637.639 382.92L626.839 411.72H623.839L626.919 403.72L618.559 382.92H621.559L628.359 400.36L634.799 382.92H637.639ZM18.8 452.12C18.8 456 15.68 458.4 10.48 458.4C5.24 458.4 2.04 455.76 1.64 451.4H4.32C4.52 454.4 6.88 456.28 10.48 456.28C13.92 456.28 16 454.96 16 452.56C16 450.48 14.8 449.52 11.6 448.88L8.56 448.28C4.56 447.52 2.44 445.56 2.44 442.52C2.44 439 5.56 436.52 10.16 436.52C15 436.52 18.2 439.12 18.52 443.32H15.88C15.6 440.4 13.48 438.68 10.16 438.68C7.2 438.68 5.16 440.08 5.16 442.28C5.16 444.36 6.44 445.36 9.56 445.96L12.72 446.56C16.92 447.36 18.8 449.12 18.8 452.12ZM26.465 458H23.665V429.28H26.465V446.72L36.625 436.92H39.945L29.305 447.24L40.825 458H37.185L26.465 447.88V458ZM47.5394 432.04C47.5394 433.28 46.6194 434.16 45.2594 434.16C43.9394 434.16 43.0194 433.28 43.0194 432.04C43.0194 430.84 43.9394 429.96 45.2594 429.96C46.6194 429.96 47.5394 430.84 47.5394 432.04ZM46.6994 458H43.8994V436.92H46.6994V458ZM55.5666 458H52.7666V429.28H55.5666V458ZM64.4338 458H61.6338V429.28H64.4338V458ZM86.2609 452.12C86.2609 456 83.1409 458.4 77.9409 458.4C72.7009 458.4 69.5009 455.76 69.1009 451.4H71.7809C71.9809 454.4 74.3409 456.28 77.9409 456.28C81.3809 456.28 83.4609 454.96 83.4609 452.56C83.4609 450.48 82.2609 449.52 79.0609 448.88L76.0209 448.28C72.0209 447.52 69.9009 445.56 69.9009 442.52C69.9009 439 73.0209 436.52 77.6209 436.52C82.4609 436.52 85.6609 439.12 85.9809 443.32H83.3409C83.0609 440.4 80.9409 438.68 77.6209 438.68C74.6609 438.68 72.6209 440.08 72.6209 442.28C72.6209 444.36 73.9009 445.36 77.0209 445.96L80.1809 446.56C84.3809 447.36 86.2609 449.12 86.2609 452.12ZM112.445 458V454.16C111.205 456.8 108.645 458.4 105.365 458.4C101.005 458.4 98.1653 455.96 98.1653 452.16C98.1653 448.04 101.445 445.88 107.845 445.88C109.125 445.88 110.085 445.96 112.165 446.12V444.36C112.165 440.84 110.285 438.76 107.085 438.76C103.645 438.76 101.485 440.88 101.445 444.32H98.8853C99.0053 439.64 102.245 436.52 107.045 436.52C111.965 436.52 114.845 439.4 114.845 444.28V458H112.445ZM100.845 452.08C100.845 454.64 102.805 456.36 105.765 456.36C109.685 456.36 112.165 453.8 112.165 449.84V447.96C110.365 447.8 109.125 447.76 107.965 447.76C103.165 447.76 100.845 449.16 100.845 452.08ZM123.535 445.72V458H120.735V436.92H123.335V440.88C124.695 438.28 127.255 436.52 130.295 436.52C134.695 436.52 137.535 439.32 137.535 444.32V458H134.735V445.28C134.735 441.24 132.895 438.96 129.455 438.96C126.175 438.96 123.535 441.8 123.535 445.72ZM141.871 447.44C141.871 440.96 145.471 436.52 151.151 436.52C154.311 436.52 156.991 438.32 158.391 441.32V429.28H161.191V458H158.591V453.56C157.111 456.64 154.391 458.4 151.151 458.4C145.471 458.4 141.871 453.92 141.871 447.44ZM144.711 447.44C144.711 452.8 147.431 455.96 151.551 455.96C155.631 455.96 158.431 452.64 158.431 447.36C158.431 442.04 155.551 438.96 151.551 438.96C147.431 438.96 144.711 442.08 144.711 447.44ZM191.378 452.12C191.378 456 188.258 458.4 183.058 458.4C177.818 458.4 174.618 455.76 174.218 451.4H176.898C177.098 454.4 179.458 456.28 183.058 456.28C186.498 456.28 188.578 454.96 188.578 452.56C188.578 450.48 187.378 449.52 184.178 448.88L181.138 448.28C177.138 447.52 175.018 445.56 175.018 442.52C175.018 439 178.138 436.52 182.738 436.52C187.578 436.52 190.778 439.12 191.098 443.32H188.458C188.178 440.4 186.058 438.68 182.738 438.68C179.778 438.68 177.738 440.08 177.738 442.28C177.738 444.36 179.018 445.36 182.138 445.96L185.298 446.56C189.498 447.36 191.378 449.12 191.378 452.12ZM209.203 458V454.16C207.963 456.8 205.403 458.4 202.123 458.4C197.763 458.4 194.923 455.96 194.923 452.16C194.923 448.04 198.203 445.88 204.603 445.88C205.883 445.88 206.843 445.96 208.923 446.12V444.36C208.923 440.84 207.043 438.76 203.843 438.76C200.403 438.76 198.243 440.88 198.203 444.32H195.643C195.763 439.64 199.003 436.52 203.803 436.52C208.723 436.52 211.603 439.4 211.603 444.28V458H209.203ZM197.603 452.08C197.603 454.64 199.563 456.36 202.523 456.36C206.443 456.36 208.923 453.8 208.923 449.84V447.96C207.123 447.8 205.883 447.76 204.723 447.76C199.923 447.76 197.603 449.16 197.603 452.08ZM228.216 455.32V457.8C227.136 458.24 226.216 458.4 225.176 458.4C221.696 458.4 219.016 456.6 219.016 452.04V439.28H214.056V436.92H219.016V430.68H221.816V436.92H228.416V439.28H221.816V451.44C221.816 454.72 223.416 455.84 225.736 455.84C226.616 455.84 227.336 455.68 228.216 455.32ZM236.289 432.04C236.289 433.28 235.369 434.16 234.009 434.16C232.689 434.16 231.769 433.28 231.769 432.04C231.769 430.84 232.689 429.96 234.009 429.96C235.369 429.96 236.289 430.84 236.289 432.04ZM235.449 458H232.649V436.92H235.449V458ZM257.277 452.12C257.277 456 254.157 458.4 248.957 458.4C243.717 458.4 240.517 455.76 240.117 451.4H242.797C242.997 454.4 245.357 456.28 248.957 456.28C252.397 456.28 254.477 454.96 254.477 452.56C254.477 450.48 253.277 449.52 250.077 448.88L247.037 448.28C243.037 447.52 240.917 445.56 240.917 442.52C240.917 439 244.037 436.52 248.637 436.52C253.477 436.52 256.677 439.12 256.997 443.32H254.357C254.077 440.4 251.957 438.68 248.637 438.68C245.677 438.68 243.637 440.08 243.637 442.28C243.637 444.36 244.917 445.36 248.037 445.96L251.197 446.56C255.397 447.36 257.277 449.12 257.277 452.12ZM266.625 458H263.825V439.28H258.865V436.92H263.825V435C263.825 431.12 265.945 428.96 269.625 428.96C270.585 428.96 271.425 429.12 272.145 429.4V431.72C271.465 431.44 270.825 431.4 270.105 431.4C267.865 431.4 266.625 432.52 266.625 435V436.92H272.825V439.28H266.625V458ZM292.405 436.92L281.605 465.72H278.605L281.685 457.72L273.325 436.92H276.325L283.125 454.36L289.565 436.92H292.405ZM299.297 432.04C299.297 433.28 298.377 434.16 297.017 434.16C295.697 434.16 294.777 433.28 294.777 432.04C294.777 430.84 295.697 429.96 297.017 429.96C298.377 429.96 299.297 430.84 299.297 432.04ZM298.457 458H295.657V436.92H298.457V458ZM307.324 445.72V458H304.524V436.92H307.124V440.88C308.484 438.28 311.044 436.52 314.084 436.52C318.484 436.52 321.324 439.32 321.324 444.32V458H318.524V445.28C318.524 441.24 316.684 438.96 313.244 438.96C309.964 438.96 307.324 441.8 307.324 445.72ZM335.18 466.16C329.82 466.16 326.46 463.36 326.22 458.64H328.9C329.14 462.08 331.38 463.92 335.14 463.92C339.3 463.92 341.5 461.72 341.5 457.56V453.16C340.22 456.12 337.66 457.84 334.54 457.84C329.22 457.84 325.66 453.56 325.66 447.16C325.66 440.76 329.18 436.52 334.5 436.52C337.66 436.52 340.3 438.32 341.66 441.4V436.92H344.26V457.52C344.26 462.96 340.94 466.16 335.18 466.16ZM328.46 447.16C328.46 452.32 330.9 455.44 334.94 455.44C338.9 455.44 341.54 452.24 341.54 447.36C341.54 442.2 338.94 438.92 334.94 438.92C330.94 438.92 328.46 442.04 328.46 447.16ZM366.584 458.44C361.024 458.44 357.144 453.92 357.144 447.44C357.144 441.04 361.064 436.52 366.584 436.52C371.504 436.52 375.024 439.8 375.864 445.08H373.024C372.384 441.24 369.984 438.96 366.584 438.96C362.664 438.96 359.984 442.4 359.984 447.44C359.984 452.56 362.664 456 366.584 456C370.024 456 372.384 453.76 373.024 449.84H375.864C375.104 455.2 371.544 458.44 366.584 458.44ZM383.184 458H380.384V429.28H383.184V458ZM392.891 432.04C392.891 433.28 391.971 434.16 390.611 434.16C389.291 434.16 388.371 433.28 388.371 432.04C388.371 430.84 389.291 429.96 390.611 429.96C391.971 429.96 392.891 430.84 392.891 432.04ZM392.051 458H389.251V436.92H392.051V458ZM406.398 458.4C400.478 458.4 396.558 453.96 396.558 447.28C396.558 441.12 400.638 436.52 406.238 436.52C412.238 436.52 416.158 441.36 415.678 448.12H399.358C399.598 453.12 402.238 456.2 406.358 456.2C409.878 456.2 412.318 454.24 412.998 450.88H415.758C414.798 455.56 411.238 458.4 406.398 458.4ZM406.198 438.68C402.398 438.68 399.718 441.6 399.358 446.2H412.758C412.518 441.48 410.078 438.68 406.198 438.68ZM423.106 445.72V458H420.306V436.92H422.906V440.88C424.266 438.28 426.826 436.52 429.866 436.52C434.266 436.52 437.106 439.32 437.106 444.32V458H434.306V445.28C434.306 441.24 432.466 438.96 429.026 438.96C425.746 438.96 423.106 441.8 423.106 445.72ZM453.802 455.32V457.8C452.722 458.24 451.802 458.4 450.762 458.4C447.282 458.4 444.602 456.6 444.602 452.04V439.28H439.642V436.92H444.602V430.68H447.402V436.92H454.002V439.28H447.402V451.44C447.402 454.72 449.002 455.84 451.322 455.84C452.202 455.84 452.922 455.68 453.802 455.32ZM469.395 445.72V458H466.595V436.92H469.195V440.88C470.555 438.28 473.115 436.52 476.155 436.52C480.555 436.52 483.395 439.32 483.395 444.32V458H480.595V445.28C480.595 441.24 478.755 438.96 475.315 438.96C472.035 438.96 469.395 441.8 469.395 445.72ZM497.57 458.4C491.65 458.4 487.73 453.96 487.73 447.28C487.73 441.12 491.81 436.52 497.41 436.52C503.41 436.52 507.33 441.36 506.85 448.12H490.53C490.77 453.12 493.41 456.2 497.53 456.2C501.05 456.2 503.49 454.24 504.17 450.88H506.93C505.97 455.56 502.41 458.4 497.57 458.4ZM497.37 438.68C493.57 438.68 490.89 441.6 490.53 446.2H503.93C503.69 441.48 501.25 438.68 497.37 438.68ZM519.367 458.4C513.447 458.4 509.527 453.96 509.527 447.28C509.527 441.12 513.607 436.52 519.207 436.52C525.207 436.52 529.127 441.36 528.647 448.12H512.327C512.567 453.12 515.207 456.2 519.327 456.2C522.847 456.2 525.287 454.24 525.967 450.88H528.727C527.767 455.56 524.207 458.4 519.367 458.4ZM519.167 438.68C515.367 438.68 512.687 441.6 512.327 446.2H525.727C525.487 441.48 523.047 438.68 519.167 438.68ZM531.324 447.44C531.324 440.96 534.924 436.52 540.604 436.52C543.764 436.52 546.444 438.32 547.844 441.32V429.28H550.644V458H548.044V453.56C546.564 456.64 543.844 458.4 540.604 458.4C534.924 458.4 531.324 453.92 531.324 447.44ZM534.164 447.44C534.164 452.8 536.884 455.96 541.004 455.96C545.084 455.96 547.884 452.64 547.884 447.36C547.884 442.04 545.004 438.96 541.004 438.96C536.884 438.96 534.164 442.08 534.164 447.44ZM572.472 452.12C572.472 456 569.352 458.4 564.152 458.4C558.912 458.4 555.712 455.76 555.312 451.4H557.992C558.192 454.4 560.552 456.28 564.152 456.28C567.592 456.28 569.672 454.96 569.672 452.56C569.672 450.48 568.472 449.52 565.272 448.88L562.232 448.28C558.232 447.52 556.112 445.56 556.112 442.52C556.112 439 559.232 436.52 563.832 436.52C568.672 436.52 571.872 439.12 572.192 443.32H569.552C569.272 440.4 567.152 438.68 563.832 438.68C560.872 438.68 558.832 440.08 558.832 442.28C558.832 444.36 560.112 445.36 563.232 445.96L566.392 446.56C570.592 447.36 572.472 449.12 572.472 452.12ZM16 512V508.16C14.76 510.8 12.2 512.4 8.92 512.4C4.56 512.4 1.72 509.96 1.72 506.16C1.72 502.04 5 499.88 11.4 499.88C12.68 499.88 13.64 499.96 15.72 500.12V498.36C15.72 494.84 13.84 492.76 10.64 492.76C7.2 492.76 5.04 494.88 5 498.32H2.44C2.56 493.64 5.8 490.52 10.6 490.52C15.52 490.52 18.4 493.4 18.4 498.28V512H16ZM4.4 506.08C4.4 508.64 6.36 510.36 9.32 510.36C13.24 510.36 15.72 507.8 15.72 503.84V501.96C13.92 501.8 12.68 501.76 11.52 501.76C6.72 501.76 4.4 503.16 4.4 506.08ZM27.09 499.72V512H24.29V490.92H26.89V494.88C28.25 492.28 30.81 490.52 33.85 490.52C38.25 490.52 41.09 493.32 41.09 498.32V512H38.29V499.28C38.29 495.24 36.45 492.96 33.01 492.96C29.73 492.96 27.09 495.8 27.09 499.72ZM45.4253 501.44C45.4253 494.96 49.0253 490.52 54.7053 490.52C57.8653 490.52 60.5453 492.32 61.9453 495.32V483.28H64.7453V512H62.1453V507.56C60.6653 510.64 57.9453 512.4 54.7053 512.4C49.0253 512.4 45.4253 507.92 45.4253 501.44ZM48.2653 501.44C48.2653 506.8 50.9853 509.96 55.1053 509.96C59.1853 509.96 61.9853 506.64 61.9853 501.36C61.9853 496.04 59.1053 492.96 55.1053 492.96C50.9853 492.96 48.2653 496.08 48.2653 501.44ZM81.9728 500.72V512H79.1728V490.92H81.7728V495.72C83.2128 492.6 86.3328 490.6 89.8128 490.6V493.52C85.3728 493.36 81.9728 496.12 81.9728 500.72ZM101.476 512.4C95.5563 512.4 91.6363 507.96 91.6363 501.28C91.6363 495.12 95.7163 490.52 101.316 490.52C107.316 490.52 111.236 495.36 110.756 502.12H94.4363C94.6763 507.12 97.3163 510.2 101.436 510.2C104.956 510.2 107.396 508.24 108.076 504.88H110.836C109.876 509.56 106.316 512.4 101.476 512.4ZM101.276 492.68C97.4763 492.68 94.7963 495.6 94.4363 500.2H107.836C107.596 495.48 105.156 492.68 101.276 492.68ZM113.433 501.44C113.433 495 117.033 490.52 122.713 490.52C125.993 490.52 128.713 492.4 130.153 495.56V490.92H132.753V519.72H129.953V507.68C128.513 510.68 125.873 512.4 122.713 512.4C117.033 512.4 113.433 507.96 113.433 501.44ZM116.273 501.44C116.273 506.84 118.993 509.96 123.113 509.96C127.193 509.96 129.993 506.68 129.993 501.44C129.993 496.08 127.113 492.96 123.113 492.96C118.993 492.96 116.273 496.12 116.273 501.44ZM152.301 503.48V490.92H155.061V512H152.461V508.2C151.381 510.64 148.821 512.4 145.741 512.4C141.461 512.4 138.621 509.96 138.621 504.64V490.92H141.421V504.04C141.421 508.32 143.541 509.96 146.501 509.96C149.861 509.96 152.301 507.24 152.301 503.48ZM164.766 486.04C164.766 487.28 163.846 488.16 162.486 488.16C161.166 488.16 160.246 487.28 160.246 486.04C160.246 484.84 161.166 483.96 162.486 483.96C163.846 483.96 164.766 484.84 164.766 486.04ZM163.926 512H161.126V490.92H163.926V512ZM172.793 500.72V512H169.993V490.92H172.593V495.72C174.033 492.6 177.153 490.6 180.633 490.6V493.52C176.193 493.36 172.793 496.12 172.793 500.72ZM192.297 512.4C186.377 512.4 182.457 507.96 182.457 501.28C182.457 495.12 186.537 490.52 192.137 490.52C198.137 490.52 202.057 495.36 201.577 502.12H185.257C185.497 507.12 188.137 510.2 192.257 510.2C195.777 510.2 198.217 508.24 198.897 504.88H201.657C200.697 509.56 197.137 512.4 192.297 512.4ZM192.097 492.68C188.297 492.68 185.617 495.6 185.257 500.2H198.657C198.417 495.48 195.977 492.68 192.097 492.68ZM209.004 512H206.204V490.92H208.804V494.88C210.204 492.16 212.684 490.52 215.684 490.52C218.964 490.52 221.404 492.32 222.284 495.4C223.604 492.44 226.244 490.52 229.564 490.52C233.924 490.52 236.644 493.4 236.644 498.32V512H233.884V499.24C233.884 495.24 232.044 492.96 228.644 492.96C225.444 492.96 222.844 495.76 222.844 499.64V512H220.044V499.24C220.044 495.24 218.204 492.96 214.804 492.96C211.564 492.96 209.004 495.76 209.004 499.64V512ZM250.812 512.4C244.892 512.4 240.972 507.96 240.972 501.28C240.972 495.12 245.052 490.52 250.652 490.52C256.652 490.52 260.572 495.36 260.092 502.12H243.772C244.012 507.12 246.652 510.2 250.772 510.2C254.292 510.2 256.732 508.24 257.412 504.88H260.172C259.212 509.56 255.652 512.4 250.812 512.4ZM250.612 492.68C246.812 492.68 244.132 495.6 243.772 500.2H257.172C256.932 495.48 254.492 492.68 250.612 492.68ZM267.52 499.72V512H264.72V490.92H267.32V494.88C268.68 492.28 271.24 490.52 274.28 490.52C278.68 490.52 281.52 493.32 281.52 498.32V512H278.72V499.28C278.72 495.24 276.88 492.96 273.44 492.96C270.16 492.96 267.52 495.8 267.52 499.72ZM298.216 509.32V511.8C297.136 512.24 296.216 512.4 295.176 512.4C291.696 512.4 289.016 510.6 289.016 506.04V493.28H284.056V490.92H289.016V484.68H291.816V490.92H298.416V493.28H291.816V505.44C291.816 508.72 293.416 509.84 295.736 509.84C296.616 509.84 297.336 509.68 298.216 509.32ZM318.37 506.12C318.37 510 315.25 512.4 310.05 512.4C304.81 512.4 301.61 509.76 301.21 505.4H303.89C304.09 508.4 306.45 510.28 310.05 510.28C313.49 510.28 315.57 508.96 315.57 506.56C315.57 504.48 314.37 503.52 311.17 502.88L308.13 502.28C304.13 501.52 302.01 499.56 302.01 496.52C302.01 493 305.13 490.52 309.73 490.52C314.57 490.52 317.77 493.12 318.09 497.32H315.45C315.17 494.4 313.05 492.68 309.73 492.68C306.77 492.68 304.73 494.08 304.73 496.28C304.73 498.36 306.01 499.36 309.13 499.96L312.29 500.56C316.49 501.36 318.37 503.12 318.37 506.12Z" fill="white"/>
</svg>
