<svg width="463" height="54" viewBox="0 0 463 54" fill="none" xmlns="http://www.w3.org/2000/svg">
<path d="M34.4921 43L27.9401 17.968L21.3881 43H10.6921L0.500063 2.792H10.8601L16.2921 26.76L22.6761 2.792H33.3721L39.5321 26.872L45.0201 2.792H55.3801L45.1321 43H34.4921ZM68.4386 27.152V43H58.8626V2.792H68.4386V16.12C70.6226 13.768 72.8066 12.312 76.6146 12.312C82.5506 12.312 86.7506 16.288 86.7506 23.624V43H77.1746V26.816C77.1746 23.008 75.8306 20.936 72.9186 20.936C70.5666 20.936 68.4386 22.616 68.4386 27.152ZM110.409 43V40.088C108.281 42.496 105.649 43.56 101.785 43.56C95.5128 43.56 91.3128 39.808 91.3128 34.096C91.3128 28.216 96.0728 25.024 104.697 25.024C106.321 25.024 107.833 25.136 109.121 25.36V23.904C109.121 21.272 107.609 19.816 104.921 19.816C102.289 19.816 100.721 21.272 100.385 23.904H91.7608C92.3208 16.904 97.5288 12.312 104.977 12.312C113.265 12.312 118.137 16.792 118.137 24.408V43H110.409ZM100.329 33.816C100.329 35.776 101.673 36.952 104.025 36.952C107.217 36.952 109.121 35.44 109.121 32.976V31.072C107.665 30.792 106.545 30.68 105.313 30.68C102.065 30.68 100.329 31.744 100.329 33.816ZM143.774 33.592V41.936C141.646 43.112 139.63 43.56 136.942 43.56C130.166 43.56 126.19 39.528 126.19 32.64V21.216H120.59V12.872H126.19V4.024H135.766V12.872H143.998V21.216H135.766V30.4C135.766 33.312 136.998 34.656 139.63 34.656C141.198 34.656 142.71 34.264 143.774 33.592ZM171.348 43H160.764V2.792H171.348V43ZM216.825 32.752C216.825 39.416 211.897 43.56 202.825 43.56C193.753 43.56 188.825 39.304 188.209 32.36H197.393C197.393 34.88 199.689 36.504 202.993 36.504C205.177 36.504 207.137 36 207.137 34.432C207.137 33.088 206.129 32.528 204.057 32.136L198.121 31.072C192.857 30.12 189.497 27.096 189.497 22.224C189.497 16.4 194.425 12.312 202.321 12.312C210.217 12.312 215.705 16.512 216.265 23.232H207.081C206.857 20.824 205.009 19.368 202.377 19.368C200.137 19.368 198.681 19.984 198.681 21.328C198.681 22.616 199.633 23.008 201.537 23.344L207.921 24.52C213.745 25.584 216.825 28.44 216.825 32.752ZM252.641 27.936C252.641 36.672 247.321 43.56 239.201 43.56C236.065 43.56 233.377 42.44 231.025 40.2V53.808H221.449V12.872H230.241V16.288C232.704 13.712 235.673 12.312 239.201 12.312C247.321 12.312 252.641 19.312 252.641 27.936ZM242.673 27.936C242.673 23.232 239.817 20.936 236.905 20.936C233.937 20.936 231.137 23.232 231.137 27.992C231.137 32.808 233.993 34.936 236.905 34.936C239.817 34.936 242.673 32.752 242.673 27.936ZM270.603 43.504C261.307 43.504 255.091 37.232 255.091 27.88C255.091 18.864 261.587 12.312 270.547 12.312C280.515 12.312 287.179 20.432 285.443 30.344H265.003C265.507 34.152 267.299 36.056 270.379 36.056C273.067 36.056 274.859 34.936 275.699 32.752H285.275C283.427 39.64 278.107 43.504 270.603 43.504ZM270.323 19.368C267.467 19.368 265.787 20.992 265.115 24.352H275.195C275.083 21.328 273.179 19.368 270.323 19.368ZM302.806 43.56C293.846 43.56 287.63 37.12 287.63 27.936C287.63 18.976 294.126 12.312 302.806 12.312C311.094 12.312 317.254 17.912 318.094 26.312H307.902C307.734 23.008 305.774 20.936 302.862 20.936C299.502 20.936 297.542 23.512 297.542 27.936C297.542 32.472 299.446 34.992 302.862 34.992C305.83 34.992 307.678 32.976 307.902 29.56H318.094C317.254 38.184 311.374 43.56 302.806 43.56ZM333.32 5.872C333.32 9.008 330.8 11.304 327.16 11.304C323.52 11.304 321 9.008 321 5.872C321 2.68 323.52 0.383998 327.16 0.383998C330.8 0.383998 333.32 2.68 333.32 5.872ZM332.032 43H322.456V12.872H332.032V43ZM355.956 43V40.088C353.828 42.496 351.196 43.56 347.332 43.56C341.06 43.56 336.86 39.808 336.86 34.096C336.86 28.216 341.62 25.024 350.244 25.024C351.868 25.024 353.38 25.136 354.668 25.36V23.904C354.668 21.272 353.156 19.816 350.468 19.816C347.836 19.816 346.268 21.272 345.932 23.904H337.308C337.868 16.904 343.076 12.312 350.524 12.312C358.812 12.312 363.684 16.792 363.684 24.408V43H355.956ZM345.876 33.816C345.876 35.776 347.22 36.952 349.572 36.952C352.764 36.952 354.668 35.44 354.668 32.976V31.072C353.212 30.792 352.092 30.68 350.86 30.68C347.612 30.68 345.876 31.744 345.876 33.816ZM379.34 43H369.652V2.792H379.34V43ZM396.484 5.872C396.484 9.008 393.964 11.304 390.324 11.304C386.684 11.304 384.164 9.008 384.164 5.872C384.164 2.68 386.684 0.383998 390.324 0.383998C393.964 0.383998 396.484 2.68 396.484 5.872ZM395.196 43H385.62V12.872H395.196V43ZM427.184 43H400.808V35.104L414.864 21.272H400.472V12.872H426.848V20.936L412.624 34.6H427.184V43ZM445.494 43.504C436.198 43.504 429.982 37.232 429.982 27.88C429.982 18.864 436.478 12.312 445.438 12.312C455.406 12.312 462.07 20.432 460.334 30.344H439.894C440.398 34.152 442.19 36.056 445.27 36.056C447.958 36.056 449.75 34.936 450.59 32.752H460.166C458.318 39.64 452.998 43.504 445.494 43.504ZM445.214 19.368C442.358 19.368 440.678 20.992 440.006 24.352H450.086C449.974 21.328 448.07 19.368 445.214 19.368Z" fill="white"/>
</svg>
