<svg width="1484" height="253" viewBox="0 0 1484 253" fill="none" xmlns="http://www.w3.org/2000/svg">
<rect width="1484" height="253" rx="30" fill="#323232"/>
<path d="M325.744 148H315.16V117.368H302.84V107.792H338.064V117.368H325.744V148ZM351.626 132.152V148H342.05V107.792H351.626V121.12C353.81 118.768 355.994 117.312 359.802 117.312C365.738 117.312 369.938 121.288 369.938 128.624V148H360.362V131.816C360.362 128.008 359.018 125.936 356.106 125.936C353.754 125.936 351.626 127.616 351.626 132.152ZM389.564 148.504C380.268 148.504 374.052 142.232 374.052 132.88C374.052 123.864 380.548 117.312 389.508 117.312C399.476 117.312 406.14 125.432 404.404 135.344H383.964C384.468 139.152 386.26 141.056 389.34 141.056C392.028 141.056 393.82 139.936 394.66 137.752H404.236C402.388 144.64 397.068 148.504 389.564 148.504ZM389.284 124.368C386.428 124.368 384.748 125.992 384.076 129.352H394.156C394.044 126.328 392.14 124.368 389.284 124.368ZM435.754 137.752C435.754 144.416 430.826 148.56 421.754 148.56C412.682 148.56 407.754 144.304 407.138 137.36H416.322C416.322 139.88 418.618 141.504 421.922 141.504C424.106 141.504 426.066 141 426.066 139.432C426.066 138.088 425.058 137.528 422.986 137.136L417.05 136.072C411.786 135.12 408.426 132.096 408.426 127.224C408.426 121.4 413.354 117.312 421.25 117.312C429.146 117.312 434.634 121.512 435.194 128.232H426.01C425.786 125.824 423.938 124.368 421.306 124.368C419.066 124.368 417.61 124.984 417.61 126.328C417.61 127.616 418.562 128.008 420.466 128.344L426.85 129.52C432.674 130.584 435.754 133.44 435.754 137.752ZM453.986 148.504C444.69 148.504 438.474 142.232 438.474 132.88C438.474 123.864 444.97 117.312 453.93 117.312C463.898 117.312 470.562 125.432 468.826 135.344H448.386C448.89 139.152 450.682 141.056 453.762 141.056C456.45 141.056 458.242 139.936 459.082 137.752H468.658C466.81 144.64 461.49 148.504 453.986 148.504ZM453.706 124.368C450.85 124.368 449.17 125.992 448.498 129.352H458.578C458.466 126.328 456.562 124.368 453.706 124.368ZM502.807 148V145.088C500.679 147.496 498.047 148.56 494.183 148.56C487.911 148.56 483.711 144.808 483.711 139.096C483.711 133.216 488.471 130.024 497.095 130.024C498.719 130.024 500.231 130.136 501.519 130.36V128.904C501.519 126.272 500.007 124.816 497.319 124.816C494.687 124.816 493.119 126.272 492.783 128.904H484.159C484.719 121.904 489.927 117.312 497.375 117.312C505.663 117.312 510.535 121.792 510.535 129.408V148H502.807ZM492.727 138.816C492.727 140.776 494.071 141.952 496.423 141.952C499.615 141.952 501.519 140.44 501.519 137.976V136.072C500.063 135.792 498.943 135.68 497.711 135.68C494.463 135.68 492.727 136.744 492.727 138.816ZM526.079 134.112V148H516.503V117.872H525.295V123.192C527.591 119.664 532.351 117.648 537.167 117.648V127.616C530.391 126.944 526.079 127.448 526.079 134.112ZM554.174 148.504C544.878 148.504 538.662 142.232 538.662 132.88C538.662 123.864 545.158 117.312 554.118 117.312C564.086 117.312 570.75 125.432 569.014 135.344H548.574C549.078 139.152 550.87 141.056 553.95 141.056C556.638 141.056 558.43 139.936 559.27 137.752H568.846C566.998 144.64 561.678 148.504 554.174 148.504ZM553.894 124.368C551.038 124.368 549.358 125.992 548.686 129.352H558.766C558.654 126.328 556.75 124.368 553.894 124.368ZM605.571 138.592V146.936C603.443 148.112 601.427 148.56 598.739 148.56C591.963 148.56 587.987 144.528 587.987 137.64V126.216H582.387V117.872H587.987V109.024H597.563V117.872H605.795V126.216H597.563V135.4C597.563 138.312 598.795 139.656 601.427 139.656C602.995 139.656 604.507 139.264 605.571 138.592ZM619.65 132.152V148H610.074V107.792H619.65V121.12C621.834 118.768 624.018 117.312 627.826 117.312C633.762 117.312 637.962 121.288 637.962 128.624V148H628.386V131.816C628.386 128.008 627.042 125.936 624.13 125.936C621.778 125.936 619.65 127.616 619.65 132.152ZM657.588 148.504C648.292 148.504 642.076 142.232 642.076 132.88C642.076 123.864 648.572 117.312 657.532 117.312C667.5 117.312 674.164 125.432 672.428 135.344H651.988C652.492 139.152 654.284 141.056 657.364 141.056C660.052 141.056 661.844 139.936 662.684 137.752H672.26C670.412 144.64 665.092 148.504 657.588 148.504ZM657.308 124.368C654.452 124.368 652.772 125.992 652.1 129.352H662.18C662.068 126.328 660.164 124.368 657.308 124.368ZM708.985 138.592V146.936C706.857 148.112 704.841 148.56 702.153 148.56C695.377 148.56 691.401 144.528 691.401 137.64V126.216H685.801V117.872H691.401V109.024H700.977V117.872H709.209V126.216H700.977V135.4C700.977 138.312 702.209 139.656 704.841 139.656C706.409 139.656 707.921 139.264 708.985 138.592ZM726.549 148.504C717.253 148.504 711.037 142.232 711.037 132.88C711.037 123.864 717.533 117.312 726.493 117.312C736.461 117.312 743.125 125.432 741.389 135.344H720.949C721.453 139.152 723.245 141.056 726.325 141.056C729.013 141.056 730.805 139.936 731.645 137.752H741.221C739.373 144.64 734.053 148.504 726.549 148.504ZM726.269 124.368C723.413 124.368 721.733 125.992 721.061 129.352H731.141C731.029 126.328 729.125 124.368 726.269 124.368ZM758.752 148.56C749.792 148.56 743.576 142.12 743.576 132.936C743.576 123.976 750.072 117.312 758.752 117.312C767.04 117.312 773.2 122.912 774.04 131.312H763.848C763.68 128.008 761.72 125.936 758.808 125.936C755.448 125.936 753.488 128.512 753.488 132.936C753.488 137.472 755.392 139.992 758.808 139.992C761.776 139.992 763.624 137.976 763.848 134.56H774.04C773.2 143.184 767.32 148.56 758.752 148.56ZM787.978 132.152V148H778.402V107.792H787.978V121.12C790.162 118.768 792.346 117.312 796.154 117.312C802.09 117.312 806.29 121.288 806.29 128.624V148H796.714V131.816C796.714 128.008 795.37 125.936 792.458 125.936C790.106 125.936 787.978 127.616 787.978 132.152ZM821.884 132.152V148H812.308V117.872H821.1V121.512C823.452 118.88 826.252 117.312 830.06 117.312C835.996 117.312 840.196 121.288 840.196 128.624V148H830.62V131.816C830.62 128.008 829.276 125.936 826.364 125.936C824.012 125.936 821.884 127.616 821.884 132.152ZM860.046 148.56C851.142 148.56 844.31 141.56 844.31 132.936C844.31 124.312 851.142 117.312 860.046 117.312C868.95 117.312 875.782 124.312 875.782 132.936C875.782 141.56 868.95 148.56 860.046 148.56ZM860.046 139.992C863.014 139.992 865.814 137.64 865.814 132.936C865.814 128.232 863.014 125.936 860.046 125.936C857.078 125.936 854.278 128.232 854.278 132.936C854.278 137.64 857.078 139.992 860.046 139.992ZM889.863 148H880.175V107.792H889.863V148ZM909.976 148.56C901.072 148.56 894.24 141.56 894.24 132.936C894.24 124.312 901.072 117.312 909.976 117.312C918.88 117.312 925.712 124.312 925.712 132.936C925.712 141.56 918.88 148.56 909.976 148.56ZM909.976 139.992C912.944 139.992 915.744 137.64 915.744 132.936C915.744 128.232 912.944 125.936 909.976 125.936C907.008 125.936 904.208 128.232 904.208 132.936C904.208 137.64 907.008 139.992 909.976 139.992ZM942.998 159.368C934.654 159.368 928.942 154.776 928.606 147.776H937.902C938.238 150.464 939.974 151.92 942.942 151.92C946.526 151.92 948.374 150.016 948.374 146.376V142.848C946.806 145.088 943.95 146.432 940.702 146.432C933.366 146.432 927.654 140.104 927.654 131.872C927.654 123.36 932.918 117.312 940.31 117.312C944.118 117.312 946.862 118.432 949.158 120.952V117.872H957.95V146.264C957.95 154.384 952.238 159.368 942.998 159.368ZM937.342 131.928C937.342 135.68 939.414 138.088 942.662 138.088C946.022 138.088 948.262 135.568 948.262 131.872C948.262 128.12 946.022 125.656 942.662 125.656C939.414 125.656 937.342 128.12 937.342 131.928ZM975.094 110.872C975.094 114.008 972.574 116.304 968.934 116.304C965.294 116.304 962.774 114.008 962.774 110.872C962.774 107.68 965.294 105.384 968.934 105.384C972.574 105.384 975.094 107.68 975.094 110.872ZM973.806 148H964.23V117.872H973.806V148ZM993.697 148.504C984.401 148.504 978.185 142.232 978.185 132.88C978.185 123.864 984.681 117.312 993.641 117.312C1003.61 117.312 1010.27 125.432 1008.54 135.344H988.097C988.601 139.152 990.393 141.056 993.473 141.056C996.161 141.056 997.953 139.936 998.793 137.752H1008.37C1006.52 144.64 1001.2 148.504 993.697 148.504ZM993.417 124.368C990.561 124.368 988.881 125.992 988.209 129.352H998.289C998.177 126.328 996.273 124.368 993.417 124.368ZM1039.89 137.752C1039.89 144.416 1034.96 148.56 1025.89 148.56C1016.82 148.56 1011.89 144.304 1011.27 137.36H1020.46C1020.46 139.88 1022.75 141.504 1026.06 141.504C1028.24 141.504 1030.2 141 1030.2 139.432C1030.2 138.088 1029.19 137.528 1027.12 137.136L1021.18 136.072C1015.92 135.12 1012.56 132.096 1012.56 127.224C1012.56 121.4 1017.49 117.312 1025.38 117.312C1033.28 117.312 1038.77 121.512 1039.33 128.232H1030.14C1029.92 125.824 1028.07 124.368 1025.44 124.368C1023.2 124.368 1021.74 124.984 1021.74 126.328C1021.74 127.616 1022.7 128.008 1024.6 128.344L1030.98 129.52C1036.81 130.584 1039.89 133.44 1039.89 137.752ZM1067.58 148H1057V107.792H1067.58V148ZM1104.21 135.064V117.872H1113.79V148H1104.99V144.752C1103.31 146.992 1100.12 148.56 1096.59 148.56C1090.6 148.56 1086.07 144.808 1086.07 136.856V117.872H1095.64V135.064C1095.64 138.368 1097.27 139.992 1099.95 139.992C1101.86 139.992 1104.21 138.48 1104.21 135.064ZM1146.75 137.752C1146.75 144.416 1141.82 148.56 1132.75 148.56C1123.67 148.56 1118.75 144.304 1118.13 137.36H1127.31C1127.31 139.88 1129.61 141.504 1132.91 141.504C1135.1 141.504 1137.06 141 1137.06 139.432C1137.06 138.088 1136.05 137.528 1133.98 137.136L1128.04 136.072C1122.78 135.12 1119.42 132.096 1119.42 127.224C1119.42 121.4 1124.35 117.312 1132.24 117.312C1140.14 117.312 1145.63 121.512 1146.19 128.232H1137C1136.78 125.824 1134.93 124.368 1132.3 124.368C1130.06 124.368 1128.6 124.984 1128.6 126.328C1128.6 127.616 1129.55 128.008 1131.46 128.344L1137.84 129.52C1143.67 130.584 1146.75 133.44 1146.75 137.752ZM1164.98 148.504C1155.68 148.504 1149.47 142.232 1149.47 132.88C1149.47 123.864 1155.96 117.312 1164.92 117.312C1174.89 117.312 1181.55 125.432 1179.82 135.344H1159.38C1159.88 139.152 1161.67 141.056 1164.75 141.056C1167.44 141.056 1169.23 139.936 1170.07 137.752H1179.65C1177.8 144.64 1172.48 148.504 1164.98 148.504ZM1164.7 124.368C1161.84 124.368 1160.16 125.992 1159.49 129.352H1169.57C1169.46 126.328 1167.55 124.368 1164.7 124.368Z" fill="white"/>
</svg>
